# Blender v2.76 (sub 0) OBJ File: ''
# www.blender.org
mtllib clavicule_right.mtl
o RCLAVICL01_RCLAVICL01_WHITE_BONE
v -13.304109 19.936188 -19.455147
v -12.787354 19.685898 -19.030392
v -13.260562 20.035332 -19.621805
v -13.542693 19.573982 -19.315941
v -12.955870 19.257721 -18.946316
v -13.523119 19.594391 -19.315483
v -13.542425 19.573502 -19.305954
v -13.401491 19.910179 -19.373661
v -13.432217 19.920456 -19.392372
v -13.068581 19.689621 -19.843903
v -13.180895 19.739532 -19.888559
v -12.597752 19.526016 -19.573984
v -13.318995 19.590088 -19.551525
v -13.429882 19.608597 -19.567684
v -13.620453 19.491364 -19.297794
v -13.171436 19.740715 -19.908787
v -13.375019 19.955589 -19.472340
v -13.773857 20.106361 -20.065294
v -13.391850 19.939880 -19.362476
v -13.420382 19.869316 -19.365105
v -13.582877 19.583092 -19.314423
v -14.116537 19.721649 -19.714054
v -13.027874 19.593033 -19.899719
v -13.168006 19.936485 -19.609018
v -13.240502 19.920265 -19.718018
v -13.260040 19.947861 -19.676105
v -13.190766 19.758324 -19.867359
v -13.653921 19.772453 -20.354994
v -12.626911 19.821960 -19.288551
v -11.975212 19.602882 -19.036177
v -11.977253 19.327705 -19.349819
v -12.104721 19.446541 -18.759796
v -12.243046 19.009041 -18.676979
v -11.306206 19.389046 -18.884169
v -11.338913 19.133659 -19.206049
v -11.364535 19.212837 -18.580610
v -11.492392 18.765091 -18.488552
v -10.619358 19.179489 -18.812553
v -10.691774 18.922752 -19.123417
v -10.637504 18.994186 -18.510513
v -10.755158 18.536659 -18.419201
v -9.935192 18.974754 -18.840788
v -10.048267 18.737572 -19.159634
v -9.923148 18.780113 -18.540007
v -9.990832 18.323692 -18.449984
v -13.967389 20.119423 -19.799072
v -14.599504 20.233910 -20.157156
v -14.708408 19.836525 -20.063185
v -14.467219 20.231422 -20.461285
v -14.357752 19.907761 -20.760225
v -15.279630 20.314926 -20.465485
v -15.347483 19.916496 -20.332607
v -15.187052 20.311081 -20.758598
v -15.087374 19.977219 -21.057766
v -15.985957 20.350052 -20.665152
v -16.003693 19.933235 -20.544519
v -15.913576 20.355751 -20.957262
v -15.854410 20.021973 -21.275368
v -16.709299 20.340950 -20.786367
v -16.666801 19.924973 -20.657299
v -16.687157 20.346031 -21.087173
v -16.638256 20.012512 -21.415007
vt 0.123386 0.494785
vt 0.062347 0.403694
vt 0.172538 0.500197
vt 0.047821 0.506564
vt 0.003829 0.407354
vt 0.050722 0.504760
vt 0.045440 0.506054
vt 0.981165 0.371718
vt 0.981438 0.366660
vt 0.981439 0.471463
vt 0.902010 0.262878
vt 0.894899 0.279968
vt 0.916128 0.186608
vt 0.501057 0.111289
vt 0.497765 0.096022
vt 0.557378 0.204892
vt 0.409467 0.083552
vt 0.924222 0.281554
vt 0.924222 0.338413
vt 0.919848 0.336400
vt 0.121211 0.504920
vt 0.229512 0.586197
vt 0.092484 0.501421
vt 0.924222 0.285511
vt 0.927960 0.335666
vt 0.925870 0.335431
vt 0.927960 0.281554
vt 0.930924 0.205809
vt 1.000000 0.186608
vt 0.916987 0.226156
vt 0.043805 0.511728
vt 0.091578 0.600290
vt 0.422564 0.085387
vt 0.488571 0.000000
vt 0.975375 0.471931
vt 0.949221 0.463714
vt 0.975375 0.366660
vt 1.000000 0.281554
vt 0.923827 0.253545
vt 0.927960 0.288654
vt 0.931116 0.281554
vt 0.931116 0.319148
vt 0.916987 0.366660
vt 0.889525 0.280084
vt 0.927503 0.353646
vt 0.916987 0.353646
vt 0.927259 0.338413
vt 0.235542 0.493411
vt 0.147115 0.400076
vt 0.203560 0.400569
vt 0.358826 0.186702
vt 0.142561 0.301300
vt 0.203582 0.307586
vt 0.055597 0.299636
vt 0.000000 0.299346
vt 0.536803 0.297249
vt 0.330904 0.293745
vt 0.163996 0.205202
vt 0.224834 0.216260
vt 0.076828 0.192892
vt 0.019585 0.190568
vt 0.537492 0.389138
vt 0.325931 0.402858
vt 0.206657 0.110761
vt 0.260743 0.126161
vt 0.123505 0.093288
vt 0.998569 0.165405
vt 0.881152 0.186608
vt 0.862395 0.137382
vt 0.981837 0.117033
vt 0.552636 0.480593
vt 0.350026 0.505914
vt 0.273123 0.021424
vt 0.325931 0.042809
vt 0.192892 0.000000
vt 0.844867 0.074942
vt 0.961574 0.058631
vt 0.598227 0.566984
vt 0.401662 0.608743
vt 0.998569 0.025864
vt 0.919072 0.000000
vt 0.146837 0.598122
vt 0.706918 0.000000
vt 0.844866 0.132624
vt 0.645223 0.102572
vt 0.173440 0.696152
vt 0.120175 0.692957
vt 0.259435 0.693857
vt 0.294364 0.574526
vt 0.325931 0.684222
vt 0.809446 0.224651
vt 0.605561 0.211557
vt 0.181602 0.796762
vt 0.123188 0.786673
vt 0.260844 0.798809
vt 0.325889 0.790076
vt 0.799703 0.318291
vt 0.598228 0.317417
vt 0.158870 0.894151
vt 0.107586 0.877885
vt 0.236283 0.898937
vt 0.301715 0.896076
vt 0.809323 0.409874
vt 0.615065 0.423950
vt 0.113478 0.988639
vt 0.066374 0.964584
vt 0.187805 1.000000
vt 0.254525 0.998864
vt 0.844867 0.497497
vt 0.655550 0.527798
vt 0.844867 0.445610
vt 0.852471 0.406391
vt 0.949221 0.465128
vt 0.949221 0.366660
vt 0.086697 0.502882
vt 0.031449 0.512758
vt 0.094534 0.507182
vt 0.975375 0.366996
vt 0.981165 0.366660
vt 0.981165 0.460950
vt 0.598228 0.131177
vt 0.919035 0.332403
vt 0.092697 0.502211
vt 0.844867 0.279763
vt 0.845322 0.264514
vt 0.916987 0.294923
vt 0.916987 0.259305
vt 0.191849 0.498630
vt 0.174037 0.485146
vn 0.519700 0.354800 0.777200
vn -0.146600 0.615600 0.774300
vn 0.328200 0.940000 -0.092900
vn 0.662000 0.347900 0.663900
vn -0.490200 -0.670900 0.556500
vn -0.153200 0.235600 0.959700
vn 0.306700 0.793600 0.525600
vn 0.218900 -0.849800 0.479600
vn -0.365300 0.335700 0.868300
vn -0.145700 0.616800 0.773500
vn 0.941600 0.019100 -0.336300
vn -0.069600 0.537900 -0.840100
vn 0.346700 -0.247200 -0.904800
vn -0.088300 -0.906200 -0.413600
vn -0.112300 -0.957800 -0.264700
vn -0.540800 -0.520700 0.660600
vn -0.176200 -0.143900 -0.973800
vn 0.167400 0.981900 0.088400
vn 0.380600 0.888900 -0.255100
vn -0.082500 0.677500 0.730900
vn 0.218900 -0.850500 0.478300
vn 0.132200 0.177800 0.975100
vn -0.153100 0.235500 0.959700
vn 0.519600 0.354900 0.777200
vn -0.025800 0.826800 0.561900
vn -0.518100 -0.596200 0.613200
vn -0.112300 -0.957800 -0.264600
vn 0.864600 -0.501500 -0.029600
vn 0.941600 0.019400 -0.336200
vn 0.941500 0.019100 -0.336500
vn 0.791700 0.578300 0.197300
vn 0.800000 0.408800 0.439300
vn 0.747100 -0.591800 -0.302700
vn -0.302000 0.638600 -0.707800
vn -0.069700 0.537800 -0.840200
vn 0.412500 -0.424800 -0.805800
vn -0.302300 0.638700 -0.707600
vn 0.791700 0.578200 0.197300
vn 0.344300 0.938100 -0.036600
vn 0.311500 0.949800 -0.027800
vn 0.227200 -0.170700 -0.958800
vn -0.064800 0.586800 0.807200
vn -0.418700 -0.708600 0.568000
vn 0.299900 0.953300 -0.035400
vn 0.126600 -0.121900 -0.984400
vn 0.040200 0.570500 0.820300
vn -0.329900 -0.727500 0.601600
vn 0.293400 0.954600 -0.051500
vn 0.004600 -0.120900 -0.992700
vn 0.140800 0.546200 0.825700
vn -0.243000 -0.755400 0.608500
vn 0.768000 0.628700 -0.121700
vn 0.417200 -0.192500 -0.888200
vn 0.780600 0.285800 0.555900
vn 0.447600 -0.780200 0.437100
vn -0.151200 0.828400 0.539300
vn -0.160000 0.821000 0.548100
vn -0.436100 -0.620000 0.652200
vn 0.281500 0.906300 -0.315300
vn 0.371700 -0.315600 -0.873100
vn -0.117000 0.835600 0.536800
vn -0.298500 -0.605300 0.737900
vn 0.203300 0.908600 -0.364900
vn 0.298600 -0.335300 -0.893600
vn -0.120900 0.811500 0.571700
vn -0.193000 -0.656400 0.729300
vn 0.104300 0.920900 -0.375600
vn 0.204800 -0.310200 -0.928300
vn -0.691600 0.597000 0.406700
vn -0.586300 -0.571000 0.574700
vn -0.632500 0.686800 -0.358200
vn -0.449100 -0.282500 -0.847600
vn -0.387600 0.302000 0.871000
vn 0.132100 0.177900 0.975100
vn 0.132200 0.177900 0.975100
vn -0.302300 0.638500 -0.707800
vn -0.169300 -0.985000 0.033500
vn -0.518000 -0.596700 0.612800
vn -0.088300 -0.906300 -0.413200
vn 0.509800 0.701500 -0.498000
vn -0.514700 0.508300 -0.690500
vn 0.747300 -0.591300 -0.303100
usemtl Material
s 1
f 1/1/1 2/2/2 3/3/3
f 4/4/4 5/5/5 6/6/6
f 4/4/4 7/7/7 5/5/5
f 8/8/8 9/9/9 2/10/10
f 10/11/11 11/12/12 12/13/13
f 13/14/14 14/15/15 12/16/13
f 13/14/14 12/16/13 15/17/16
f 3/18/3 16/19/17 11/20/12
f 17/21/18 18/22/19 19/23/20
f 8/24/21 7/25/7 4/26/4
f 8/24/21 19/27/20 7/25/7
f 20/28/22 6/29/23 1/30/24
f 21/31/25 7/7/7 22/32/26
f 14/15/27 21/33/25 22/34/26
f 23/35/28 10/36/29 22/37/26
f 10/38/30 24/39/31 6/29/23
f 25/40/32 26/41/33 27/42/34
f 11/12/35 28/43/36 27/44/37
f 11/12/35 10/11/29 28/43/36
f 26/45/33 25/46/32 24/47/38
f 16/48/17 3/3/3 29/49/39
f 16/48/17 29/49/39 12/50/13
f 3/3/3 2/2/2 29/49/39
f 15/17/16 12/16/13 5/51/5
f 12/50/13 29/49/39 30/52/40
f 12/50/13 30/52/40 31/53/41
f 29/49/39 2/2/2 32/54/42
f 29/49/39 32/54/42 30/52/40
f 2/2/2 5/5/5 33/55/43
f 2/2/2 33/55/43 32/54/42
f 5/51/5 12/16/13 31/56/41
f 5/51/5 31/56/41 33/57/43
f 31/53/41 30/52/40 34/58/44
f 31/53/41 34/58/44 35/59/45
f 30/52/40 32/54/42 36/60/46
f 30/52/40 36/60/46 34/58/44
f 32/54/42 33/55/43 37/61/47
f 32/54/42 37/61/47 36/60/46
f 33/57/43 31/56/41 35/62/45
f 33/57/43 35/62/45 37/63/47
f 35/59/45 34/58/44 38/64/48
f 35/59/45 38/64/48 39/65/49
f 34/58/44 36/60/46 40/66/50
f 34/58/44 40/66/50 38/64/48
f 36/67/46 37/68/47 41/69/51
f 36/67/46 41/69/51 40/70/50
f 37/63/47 35/62/45 39/71/49
f 37/63/47 39/71/49 41/72/51
f 39/65/49 38/64/48 42/73/52
f 39/65/49 42/73/52 43/74/53
f 38/64/48 40/66/50 44/75/54
f 38/64/48 44/75/54 42/73/52
f 40/70/50 41/69/51 45/76/55
f 40/70/50 45/76/55 44/77/54
f 41/72/51 39/71/49 43/78/53
f 41/72/51 43/78/53 45/79/55
f 42/80/52 44/77/54 43/81/53
f 44/77/54 45/76/55 43/81/53
f 7/7/7 19/23/20 46/82/56
f 7/7/7 46/82/56 22/32/26
f 19/23/20 18/22/19 46/82/56
f 23/83/28 22/84/26 28/85/36
f 22/32/26 46/82/56 47/86/57
f 22/32/26 47/86/57 48/87/58
f 46/82/56 18/22/19 49/88/59
f 46/82/56 49/88/59 47/86/57
f 18/22/19 28/89/36 50/90/60
f 18/22/19 50/90/60 49/88/59
f 28/85/36 22/84/26 48/91/58
f 28/85/36 48/91/58 50/92/60
f 48/87/58 47/86/57 51/93/61
f 48/87/58 51/93/61 52/94/62
f 47/86/57 49/88/59 53/95/63
f 47/86/57 53/95/63 51/93/61
f 49/88/59 50/90/60 54/96/64
f 49/88/59 54/96/64 53/95/63
f 50/92/60 48/91/58 52/97/62
f 50/92/60 52/97/62 54/98/64
f 52/94/62 51/93/61 55/99/65
f 52/94/62 55/99/65 56/100/66
f 51/93/61 53/95/63 57/101/67
f 51/93/61 57/101/67 55/99/65
f 53/95/63 54/96/64 58/102/68
f 53/95/63 58/102/68 57/101/67
f 54/98/64 52/97/62 56/103/66
f 54/98/64 56/103/66 58/104/68
f 56/100/66 55/99/65 59/105/69
f 56/100/66 59/105/69 60/106/70
f 55/99/65 57/101/67 61/107/71
f 55/99/65 61/107/71 59/105/69
f 57/101/67 58/102/68 62/108/72
f 57/101/67 62/108/72 61/107/71
f 58/104/68 56/103/66 60/109/70
f 58/104/68 60/109/70 62/110/72
f 59/111/69 61/112/71 60/113/70
f 61/112/71 62/114/72 60/113/70
f 6/6/73 5/5/5 20/115/73
f 21/31/25 15/116/16 5/5/5
f 7/7/7 21/31/25 5/5/5
f 20/115/74 5/5/5 2/2/2
f 9/117/9 20/115/75 2/2/10
f 11/118/12 16/119/17 12/120/13
f 14/15/15 10/121/11 12/16/13
f 3/18/3 11/20/12 27/122/76
f 8/123/21 4/4/4 6/6/6
f 6/29/23 24/39/31 1/30/24
f 13/14/77 14/15/77 22/34/78
f 10/121/29 13/14/79 22/34/26
f 26/124/33 24/125/38 10/11/30
f 11/12/80 26/124/33 10/11/80
f 27/122/81 26/126/82 11/20/81
f 10/11/29 23/127/28 28/43/36
f 25/128/32 28/89/36 18/22/19
f 17/21/18 25/128/32 18/22/19
f 24/129/38 25/128/32 17/21/18
