# Blender v2.76 (sub 0) OBJ File: ''
# www.blender.org
mtllib clavicule_left.mtl
o LCLAVICL01_LCLAVICL01_WHITE_BONE
v -5.335851 20.095581 -19.952003
v -4.707910 20.274818 -20.280735
v -5.356121 20.009109 -20.035742
v -5.513862 20.096756 -20.257635
v -5.493874 20.097191 -20.258150
v -5.533644 20.086334 -20.257605
v -5.071105 19.765610 -20.055115
v -5.119053 19.741669 -19.994888
v -4.937313 19.969749 -20.900177
v -4.547918 19.904305 -20.212727
v -5.136273 19.707420 -19.915953
v -5.177324 19.708466 -19.954861
v -5.102161 19.766869 -20.094280
v -5.510101 19.753494 -20.404451
v -5.530090 19.753052 -20.403934
v -5.532571 20.084412 -20.217665
v -5.545064 20.117508 -20.285843
v -6.058546 19.884514 -19.832577
v -5.563471 19.941170 -20.373955
v -5.643660 19.776360 -20.519943
v -4.989079 19.667511 -20.062040
v -5.801338 19.809532 -19.622761
v -5.209293 19.778671 -19.970654
v -5.550448 19.420074 -19.538074
v -5.542155 19.852692 -20.398815
v -5.530358 19.753532 -20.413919
v -5.386909 20.009888 -20.064922
v -1.856517 20.225159 -20.720280
v -1.847557 20.620338 -20.811672
v -2.587607 20.614540 -20.802082
v -2.556116 20.209770 -20.702225
v -1.816371 20.646584 -21.131733
v -2.606125 20.639206 -21.110868
v -1.797864 20.332375 -21.457819
v -2.607607 20.324562 -21.436440
v -3.324207 20.554489 -20.705061
v -3.253007 20.151085 -20.616219
v -3.402751 20.568329 -21.022770
v -3.413960 20.252983 -21.338099
v -4.027643 20.441322 -20.531364
v -3.916673 20.048782 -20.443068
v -4.135902 20.454018 -20.838314
v -4.197886 20.139015 -21.182308
v -4.865603 20.285454 -20.566427
v -5.614336 19.758980 -20.561628
v -8.514991 18.658005 -19.134550
v -8.572768 18.912369 -18.830318
v -7.901080 19.172264 -18.946026
v -7.862877 18.897484 -19.250713
v -8.502124 18.759956 -18.549110
v -7.760683 19.031380 -18.666138
v -8.319706 18.347054 -18.423653
v -7.559289 18.630341 -18.570663
v -7.241386 19.416298 -19.152309
v -7.242746 19.120667 -19.456940
v -7.062438 19.307686 -18.901951
v -6.830854 18.897324 -18.807735
v -6.614151 19.654488 -19.458157
v -6.664409 19.355835 -19.721556
v -6.405427 19.556511 -19.208084
v -6.154805 19.167534 -19.133383
v -6.128585 19.575424 -20.095947
vt 0.135660 0.495608
vt 0.116859 0.593486
vt 0.123026 0.494173
vt 0.766356 0.488845
vt 0.769237 0.488085
vt 0.764663 0.490618
vt 0.413977 0.479247
vt 0.423980 0.487871
vt 0.250789 0.431167
vt 0.405692 0.403412
vt 0.439702 0.493365
vt 0.430032 0.497456
vt 0.404791 0.482036
vt 0.324382 0.525626
vt 0.323417 0.528231
vt 0.748987 0.530603
vt 0.764663 0.488085
vt 0.764663 0.542193
vt 0.072533 0.483009
vt 0.057598 0.485589
vt 0.110571 0.394504
vt 0.653566 0.517689
vt 0.647531 0.549048
vt 0.653566 0.490637
vt 0.820821 0.025358
vt 0.800749 0.000000
vt 0.823089 0.015011
vt 0.881998 0.109861
vt 0.836830 0.024972
vt 0.893580 0.027889
vt 0.728493 0.498384
vt 0.748987 0.488085
vt 0.748987 0.574753
vt 0.439702 0.508113
vt 0.567915 0.490637
vt 0.567915 0.599508
vt 0.460181 0.424588
vt 0.653566 0.483441
vt 0.625387 0.490637
vt 0.636917 0.490637
vt 0.636917 0.568043
vt 0.636306 0.567161
vt 0.115274 0.491721
vt 0.172462 0.414371
vt 0.779572 0.476465
vt 0.699461 0.488085
vt 0.668871 0.393776
vt 0.753037 0.386758
vt 0.229093 0.980875
vt 0.172241 1.000000
vt 0.114228 0.901486
vt 0.172871 0.889047
vt 0.978596 0.241408
vt 0.893580 0.224923
vt 0.907729 0.141792
vt 0.992442 0.160325
vt 0.297563 0.000000
vt 0.439702 0.032629
vt 0.405931 0.123807
vt 0.258080 0.105288
vt 0.653566 0.295215
vt 0.738600 0.293731
vt 0.070913 0.797093
vt 0.135379 0.791989
vt 0.916147 0.066858
vt 1.000000 0.085566
vt 0.387313 0.217810
vt 0.236494 0.214117
vt 0.654037 0.196654
vt 0.738696 0.200413
vt 0.052153 0.694805
vt 0.116951 0.693886
vt 0.920916 0.000000
vt 0.000000 0.692797
vt 0.389168 0.311291
vt 0.229093 0.322887
vt 0.669903 0.096811
vt 0.751382 0.108027
vt 0.052125 0.587288
vt 0.001097 0.583596
vt 0.694741 0.000000
vt 0.779572 0.017329
vt 0.019329 0.478234
vt 1.000000 0.264690
vt 0.933979 0.281144
vt 0.102691 0.021650
vt 0.141117 0.008786
vt 0.160525 0.104971
vt 0.121455 0.114801
vt 0.204989 0.000000
vt 0.229093 0.105204
vt 0.893580 0.526718
vt 0.798722 0.531293
vt 0.787526 0.422400
vt 0.880830 0.422107
vt 0.498939 0.000000
vt 0.653566 0.029418
vt 0.618510 0.120318
vt 0.460223 0.106813
vt 0.163321 0.203270
vt 0.122148 0.207565
vt 0.228020 0.210603
vt 0.779572 0.313396
vt 0.877179 0.316229
vt 0.601651 0.212275
vt 0.439702 0.214682
vt 0.145787 0.301881
vt 0.108389 0.298192
vt 0.212267 0.313231
vt 0.780120 0.205803
vt 0.874858 0.212838
vt 0.599518 0.303195
vt 0.439869 0.321775
vt 0.072122 0.388048
vt 0.786780 0.103326
vt 0.620073 0.395130
vt 0.636306 0.546239
vt 0.571701 0.576109
vt 0.567915 0.516273
vt 0.636306 0.490637
vt 0.653566 0.509405
vt 0.728493 0.488085
vt 0.658459 0.553431
vt 0.728493 0.595516
vt 0.067623 0.490009
vt 0.048629 0.481756
vt 0.769237 0.515830
vt 0.288600 0.534179
vt 0.769785 0.500625
vt 0.779572 0.488085
vt 0.779572 0.546007
vt 0.644301 0.546724
vt 0.638525 0.536514
vt 0.644301 0.490637
vt 0.644301 0.491744
vt 0.825357 0.005267
vt 0.913035 0.281144
vt 0.913035 0.409567
vt 0.893580 0.405653
vn -0.613000 0.577200 0.539500
vn 0.055100 0.782700 0.620000
vn -0.450700 0.686500 0.570600
vn 0.253400 0.122400 -0.959600
vn -0.326900 0.885400 -0.330500
vn -0.171600 0.589200 -0.789500
vn 0.489300 -0.668400 -0.560200
vn 0.258200 -0.940700 -0.219900
vn -0.318400 -0.293900 -0.901300
vn 0.448200 -0.606300 0.656900
vn 0.282000 -0.721300 0.632600
vn 0.445900 -0.498700 0.743300
vn 0.070900 -0.970100 -0.232100
vn 0.058300 -0.973300 -0.222000
vn 0.608900 -0.764700 -0.211000
vn 0.258400 -0.940700 -0.219800
vn -0.067000 0.908000 0.413600
vn 0.089300 0.821300 -0.563500
vn -0.423100 0.905300 -0.038300
vn -0.055500 0.643900 -0.763100
vn -0.088900 -0.295700 -0.951100
vn 0.253300 0.122700 -0.959600
vn 0.446100 -0.498900 0.743000
vn 0.962400 -0.252000 -0.100900
vn 0.258300 -0.940700 -0.219900
vn 0.210600 0.724500 0.656300
vn -0.845900 -0.178800 0.502500
vn -0.450600 0.686400 0.570800
vn 0.489400 -0.668300 -0.560200
vn 0.608800 -0.764700 -0.211100
vn 0.656900 -0.550700 0.515000
vn 0.195800 -0.877000 -0.438900
vn -0.983100 -0.162700 -0.084500
vn -0.116000 0.886400 0.448100
vn 0.540500 -0.564000 0.624300
vn 0.568200 0.612100 0.550100
vn 0.009900 0.779200 0.626700
vn 0.089800 -0.676700 0.730700
vn 0.636800 0.734700 -0.234000
vn -0.070700 0.937000 -0.342000
vn 0.575200 -0.243900 -0.780800
vn -0.058000 -0.276100 -0.959400
vn 0.023400 0.782800 0.621800
vn 0.211200 -0.672800 0.709000
vn -0.165900 0.923600 -0.345700
vn -0.113700 -0.296200 -0.948300
vn 0.037700 0.785000 0.618300
vn 0.336400 -0.639700 0.691100
vn -0.267000 0.920600 -0.284800
vn -0.233800 -0.273400 -0.933000
vn -0.348500 0.905600 -0.241700
vn -0.330200 -0.374400 -0.866500
vn -0.583500 -0.322400 -0.745400
vn -0.829800 0.558100 0.004800
vn -0.365700 0.929200 -0.053600
vn -0.171400 -0.199600 -0.964800
vn -0.690300 0.237700 0.683300
vn -0.034000 0.598300 0.800500
vn -0.207700 -0.761800 0.613700
vn 0.397000 -0.669700 0.627700
vn -0.374500 0.925300 -0.058700
vn -0.269700 -0.247300 -0.930600
vn 0.054400 0.650300 0.757700
vn 0.489900 -0.636000 0.596300
vn -0.398300 0.915300 -0.060300
vn -0.384500 -0.282300 -0.878900
vn 0.132900 0.685500 0.715800
vn 0.564600 -0.602600 0.564100
vn -0.496800 -0.327600 -0.803700
vn -0.055600 0.643800 -0.763200
vn 0.258300 -0.940600 -0.220200
vn 0.293500 -0.900800 -0.320000
vn 0.608900 -0.764700 -0.211100
vn 0.608900 -0.764600 -0.211300
vn -0.845900 -0.178900 0.502500
vn 0.599700 0.455000 0.658300
vn 0.962500 -0.251800 -0.100800
vn 0.489400 -0.668200 -0.560300
vn 0.022300 -0.999700 0.006700
usemtl Material
s 1
f 1/1/1 2/2/2 3/3/3
f 4/4/4 5/5/5 6/6/6
f 7/7/7 8/8/8 9/9/9
f 7/7/7 9/9/9 10/10/10
f 10/10/10 11/11/11 12/12/12
f 9/9/9 13/13/13 14/14/14
f 9/9/9 14/14/14 15/15/15
f 13/13/13 8/8/16 14/14/14
f 3/16/3 8/17/16 1/18/1
f 16/19/17 17/20/18 18/21/19
f 19/22/20 20/23/21 4/24/22
f 12/25/23 21/26/24 8/27/25
f 12/25/23 22/28/26 21/26/24
f 23/29/27 3/30/28 12/25/23
f 7/31/29 21/32/24 15/33/30
f 15/34/30 21/35/24 24/36/31
f 24/37/31 20/38/21 25/39/32
f 24/40/31 26/41/33 15/42/30
f 27/43/34 16/19/17 22/44/26
f 28/45/35 29/46/36 30/47/37
f 28/45/35 30/47/37 31/48/38
f 29/49/36 32/50/39 33/51/40
f 29/49/36 33/51/40 30/52/37
f 32/53/39 34/54/41 35/55/42
f 32/53/39 35/55/42 33/56/40
f 34/57/41 28/58/35 31/59/38
f 34/57/41 31/59/38 35/60/42
f 31/48/38 30/47/37 36/61/43
f 31/48/38 36/61/43 37/62/44
f 30/52/37 33/51/40 38/63/45
f 30/52/37 38/63/45 36/64/43
f 33/56/40 35/55/42 39/65/46
f 33/56/40 39/65/46 38/66/45
f 35/60/42 31/59/38 37/67/44
f 35/60/42 37/67/44 39/68/46
f 37/62/44 36/61/43 40/69/47
f 37/62/44 40/69/47 41/70/48
f 36/64/43 38/63/45 42/71/49
f 36/64/43 42/71/49 40/72/47
f 38/66/45 39/65/46 43/73/50
f 38/63/45 43/74/50 42/71/49
f 39/68/46 37/67/44 41/75/48
f 39/68/46 41/75/48 43/76/50
f 41/70/48 40/69/47 2/77/2
f 41/70/48 2/77/2 10/78/10
f 40/72/47 42/71/49 44/79/51
f 40/72/47 44/79/51 2/2/2
f 42/71/49 43/74/50 9/80/9
f 42/71/49 9/80/9 44/79/51
f 43/76/50 41/75/48 10/10/10
f 43/76/50 10/10/10 9/9/9
f 10/78/10 2/77/2 1/81/1
f 10/78/10 1/81/1 11/82/11
f 44/79/51 9/80/9 45/83/52
f 29/84/36 28/85/35 32/53/39
f 32/53/39 28/85/35 34/54/41
f 46/86/53 47/87/54 48/88/55
f 46/86/53 48/88/55 49/89/56
f 47/87/54 50/90/57 51/91/58
f 47/87/54 51/91/58 48/88/55
f 50/92/57 52/93/59 53/94/60
f 50/92/57 53/94/60 51/95/58
f 52/96/59 46/97/53 49/98/56
f 52/96/59 49/98/56 53/99/60
f 49/89/56 48/88/55 54/100/61
f 49/89/56 54/100/61 55/101/62
f 48/88/55 51/91/58 56/102/63
f 48/88/55 56/102/63 54/100/61
f 51/95/58 53/94/60 57/103/64
f 51/95/58 57/103/64 56/104/63
f 53/99/60 49/98/56 55/105/62
f 53/99/60 55/105/62 57/106/64
f 55/101/62 54/100/61 58/107/65
f 55/101/62 58/107/65 59/108/66
f 54/100/61 56/102/63 60/109/67
f 54/100/61 60/109/67 58/107/65
f 56/104/63 57/103/64 61/110/68
f 56/104/63 61/110/68 60/111/67
f 57/106/64 55/105/62 59/112/66
f 57/106/64 59/112/66 61/113/68
f 59/108/66 58/107/65 18/21/19
f 59/108/66 18/21/19 62/114/69
f 58/107/65 60/109/67 22/44/26
f 58/107/65 22/44/26 18/21/19
f 60/111/67 61/110/68 24/115/31
f 60/111/67 24/115/31 22/28/26
f 61/113/68 59/112/66 62/116/69
f 61/113/68 62/116/69 24/37/31
f 62/117/69 18/118/19 17/119/18
f 62/117/69 17/119/18 20/120/21
f 22/28/26 24/115/31 21/26/24
f 24/37/31 62/116/69 20/38/21
f 47/121/54 46/122/53 50/123/57
f 50/123/57 46/122/53 52/124/59
f 5/125/5 2/2/2 44/79/51
f 16/19/17 2/2/2 5/125/5
f 27/43/34 2/2/2 16/19/17
f 3/3/3 2/2/2 27/43/34
f 5/125/5 44/79/51 45/83/52
f 19/126/70 5/125/5 45/83/52
f 6/6/6 5/5/5 19/127/70
f 8/8/16 13/13/13 9/9/9
f 10/10/10 12/12/12 8/8/71
f 9/9/9 15/15/15 45/128/52
f 8/8/72 12/12/72 15/15/73
f 14/14/14 8/8/16 15/15/74
f 23/129/75 11/130/11 1/131/1
f 8/132/16 23/133/75 1/134/1
f 4/24/22 20/23/21 17/135/18
f 8/27/76 21/26/77 7/136/76
f 3/30/28 22/28/26 12/25/23
f 7/7/78 15/15/79 14/14/79
f 24/137/31 25/138/32 26/139/33
f 16/19/17 18/21/19 22/44/26
