# Blender v2.76 (sub 0) OBJ File: ''
# www.blender.org
mtllib doigts_pied_right.mtl
o R_TOES01_R_TOES01_WHITE_BONE
v -11.644417 -46.037884 -26.406809
v -11.574216 -46.889847 -26.595512
v -11.892187 -46.698860 -25.513466
v -12.466192 -47.063938 -23.559547
v -12.338283 -47.271061 -24.002201
v -12.528087 -46.997578 -23.342470
v -12.632337 -47.312729 -23.001999
v -12.604901 -47.704750 -23.048441
v -12.683104 -47.203384 -22.809492
v -13.130429 -47.870125 -21.263584
v -13.291409 -48.084709 -20.713242
v -13.299404 -48.007084 -20.673838
v -12.074945 -47.051868 -23.451500
v -11.501040 -46.686798 -25.405416
v -11.253270 -46.025818 -26.298758
v -11.947134 -47.259094 -23.894156
v -12.136940 -46.985512 -23.234419
v -12.241093 -47.300655 -22.894051
v -12.213753 -47.692783 -22.940395
v -12.291960 -47.191315 -22.701542
v -12.739283 -47.858059 -21.155533
v -12.895821 -47.963123 -20.614964
v -12.882792 -48.077705 -20.676912
v -11.182967 -46.877880 -26.487469
v -9.947430 -47.744904 -19.122612
v -9.885883 -48.001972 -19.279253
v -9.802572 -47.706207 -20.234324
v -9.597059 -47.447079 -22.049036
v -9.586586 -47.185268 -22.428112
v -9.879055 -47.256618 -20.190002
v -9.757069 -47.038441 -21.340937
v -9.354536 -46.724396 -24.670992
v -9.780617 -46.690357 -21.569027
v -9.725849 -46.585140 -22.094337
v -9.599761 -45.495174 -24.281864
v -10.211280 -47.283028 -22.512779
v -10.224458 -45.592926 -24.366631
v -9.979330 -46.822155 -24.755657
v -10.350545 -46.682892 -22.179104
v -10.221755 -47.544834 -22.133802
v -10.405312 -46.788113 -21.653694
v -10.381866 -47.136196 -21.425701
v -10.427366 -47.803970 -20.318989
v -10.503750 -47.354378 -20.274670
v -10.510677 -48.099731 -19.363916
v -10.572123 -47.842659 -19.207279
v -11.800083 -47.814415 -20.425926
v -12.206117 -47.986191 -19.479053
v -12.200754 -48.120518 -19.525320
v -11.843651 -47.745323 -20.174858
v -11.538260 -47.653603 -21.976374
v -11.555695 -47.177574 -21.908932
v -11.406385 -47.104088 -22.791344
v -11.585861 -47.105362 -21.736893
v -11.474712 -46.921825 -22.402966
v -11.513939 -46.873802 -22.176062
v -11.114152 -46.315041 -24.566563
v -10.972779 -45.578678 -25.451315
v -10.924377 -46.358505 -25.678827
v -11.914116 -46.878784 -22.244169
v -11.874990 -46.926811 -22.471069
v -11.373055 -45.583664 -25.519419
v -11.324655 -46.363491 -25.746931
v -11.514429 -46.320026 -24.634666
v -11.806660 -47.109077 -22.859348
v -11.938437 -47.658585 -22.044481
v -12.200260 -47.819397 -20.494034
v -12.397345 -48.120121 -19.617168
v -12.403376 -47.984779 -19.592064
v -12.243927 -47.750309 -20.242962
v -11.986036 -47.110352 -21.804899
v -11.955872 -47.182560 -21.977039
v -10.355109 -45.575008 -25.261520
v -10.306806 -46.354935 -25.489035
v -10.706983 -46.359921 -25.557142
v -10.755386 -45.579994 -25.329626
v -10.496580 -46.311474 -24.376770
v -10.896757 -46.316456 -24.444878
v -10.788713 -47.100422 -22.601450
v -11.188988 -47.105507 -22.669559
v -10.921185 -47.621269 -21.785185
v -11.321462 -47.626255 -21.853289
v -11.182409 -47.810848 -20.236038
v -11.582586 -47.815830 -20.304146
v -11.382772 -48.189735 -19.552832
v -11.770897 -48.216488 -19.168623
v -11.385893 -48.059605 -19.419394
v -11.776828 -48.081142 -19.143524
v -11.228383 -47.625816 -19.979425
v -11.628660 -47.630802 -20.047531
v -10.968187 -47.101795 -21.547003
v -11.368464 -47.106781 -21.615108
v -10.938023 -47.174004 -21.719143
v -11.338200 -47.178989 -21.787251
v -10.896269 -46.870129 -21.986267
v -11.296543 -46.875217 -22.054377
v -10.857041 -46.918255 -22.213177
v -11.257318 -46.923241 -22.281281
v -12.539708 -46.387138 -26.284887
v -12.471452 -47.091599 -26.427080
v -12.687674 -47.177422 -25.015265
v -13.130977 -47.374210 -23.498428
v -13.134386 -47.786400 -23.559235
v -13.302904 -47.293404 -23.011997
v -13.381557 -47.516766 -22.729691
v -13.221855 -47.936527 -23.338966
v -13.692312 -47.724594 -21.618757
v -13.322582 -47.820679 -22.959925
v -13.803032 -48.121258 -21.373573
v -13.810927 -48.043724 -21.334276
v -12.739830 -47.362144 -23.390379
v -12.296524 -47.165455 -24.907219
v -12.052745 -46.388680 -25.856476
v -12.743239 -47.774334 -23.451183
v -12.911760 -47.281330 -22.904047
v -12.990311 -47.504700 -22.621643
v -12.830711 -47.924458 -23.231016
v -13.301167 -47.712624 -21.510811
v -12.931338 -47.808605 -22.851976
v -13.407343 -47.999767 -21.275402
v -13.394318 -48.114246 -21.337345
v -11.984488 -47.093140 -25.998669
vt 0.668154 0.503939
vt 0.591265 0.503939
vt 0.630317 0.409592
vt 0.640149 0.224737
vt 0.613163 0.260664
vt 0.650367 0.206414
vt 0.630610 0.168997
vt 0.596029 0.165450
vt 0.643959 0.153849
vt 0.619389 0.000000
vt 0.558554 0.640185
vt 0.551140 0.585936
vt 0.558554 0.583914
vt 0.400252 0.276261
vt 0.409895 0.461344
vt 0.371973 0.555801
vt 0.427215 0.312220
vt 0.390048 0.257918
vt 0.409854 0.220454
vt 0.444432 0.216899
vt 0.396511 0.205296
vt 0.421232 0.051247
vt 0.418924 0.000000
vt 0.429988 0.003192
vt 0.219761 0.500576
vt 0.219761 0.712390
vt 0.212751 0.656512
vt 0.800791 0.510668
vt 0.836438 0.511500
vt 0.801780 0.752393
vt 0.432633 0.555832
vt 0.440309 0.555801
vt 0.430184 0.592477
vt 0.441665 0.592477
vt 0.838140 1.000000
vt 0.802574 0.995298
vt 0.837281 0.819313
vt 0.801637 0.818472
vt 0.837435 0.753228
vt 0.801300 0.773453
vt 0.836947 0.774284
vt 0.802583 0.798978
vt 0.838236 0.799821
vt 0.802581 0.477392
vt 0.838236 0.478229
vt 0.964219 0.339422
vt 0.928576 0.340157
vt 0.963425 0.243489
vt 0.927782 0.244225
vt 0.964109 0.093544
vt 0.928466 0.094282
vt 0.837079 0.580875
vt 0.801432 0.580043
vt 0.963750 0.504767
vt 0.928108 0.505504
vt 0.448863 0.555801
vt 0.928568 0.000738
vt 0.964219 0.000000
vt 0.963329 0.553190
vt 0.927980 0.560214
vt 0.153445 0.000000
vt 0.179622 0.006417
vt 0.182616 0.095826
vt 0.213761 0.257534
vt 0.202810 0.296919
vt 0.143533 0.104180
vt 0.158761 0.208193
vt 0.229484 0.500576
vt 0.136155 0.237034
vt 0.142631 0.284659
vt 0.114813 0.500576
vt 0.026055 0.297521
vt 0.114813 0.501588
vt 0.000000 0.501588
vt 0.086268 0.285239
vt 0.014962 0.258066
vt 0.092602 0.237509
vt 0.069874 0.208619
vt 0.045630 0.096020
vt 0.084789 0.104389
vt 0.048343 0.006431
vt 0.074531 0.000000
vt 0.129308 0.546643
vt 0.170241 0.716554
vt 0.114813 0.718207
vt 0.184736 0.544988
vt 0.130755 0.502221
vt 0.186181 0.500576
vt 0.520078 0.640880
vt 0.520077 0.583914
vt 0.539667 0.587269
vt 0.539667 0.644246
vt 0.057294 0.591093
vt 0.114643 0.684015
vt 0.059371 0.688685
vt 0.112557 0.586431
vt 0.059381 0.506250
vt 0.114643 0.501588
vt 0.001570 0.591727
vt 0.000938 0.501724
vt 0.057294 0.591591
vt 0.056663 0.501588
vt 0.055717 0.756199
vt 0.000000 0.756325
vt 0.057294 0.794971
vt 0.001579 0.795106
vt 0.186181 0.776285
vt 0.130746 0.777928
vt 0.403390 0.556150
vt 0.430184 0.555801
vt 0.403387 0.613117
vt 0.430183 0.612776
vt 0.499727 0.498636
vt 0.518371 0.588791
vt 0.505910 0.589312
vt 0.513512 0.517667
vt 0.462697 0.361999
vt 0.503855 0.352234
vt 0.481303 0.275054
vt 0.515337 0.364466
vt 0.508799 0.302043
vt 0.520077 0.319712
vt 0.488432 0.098935
vt 0.520077 0.000000
vt 0.448863 0.006081
vt 0.705152 0.752357
vt 0.669693 0.730887
vt 0.705356 0.731235
vt 0.669499 0.752011
vt 0.671745 0.484464
vt 0.707408 0.484813
vt 0.672162 0.449536
vt 0.707825 0.449883
vt 0.854252 0.488785
vt 0.889907 0.488482
vt 0.891340 0.585515
vt 0.855686 0.585817
vt 0.853446 0.314534
vt 0.889098 0.314223
vt 0.853402 0.230310
vt 0.889048 0.230009
vt 0.851789 0.090051
vt 0.887434 0.089749
vt 0.872908 0.000000
vt 0.891340 0.004913
vt 0.558554 0.604572
vt 0.559220 0.585130
vt 0.570843 0.583914
vt 0.570843 0.602878
vt 0.707825 0.968742
vt 0.668154 0.913978
vt 0.703817 0.914326
vt 0.689024 0.975365
vt 0.669221 0.786799
vt 0.704874 0.787153
vt 0.669382 0.770110
vt 0.705036 0.770456
vt 0.559632 0.484920
vt 0.591265 0.583914
vt 0.520077 0.577837
vt 0.552508 0.308683
vt 0.579992 0.281684
vt 0.591265 0.264005
vt 0.533905 0.221697
vt 0.575049 0.231464
vt 0.586530 0.219215
vt 0.570922 0.084971
vt 0.584703 0.065925
vt 0.575173 0.000000
vt 0.587063 0.002273
vt 0.964219 0.034932
vt 0.964344 0.000000
vt 1.000000 0.000025
vt 0.999883 0.034958
vt 0.891340 0.507918
vt 0.926987 0.507863
vt 0.927782 0.604903
vt 0.892135 0.604959
vt 0.891670 0.333661
vt 0.927325 0.333602
vt 0.892127 0.249971
vt 0.927782 0.249914
vt 0.891490 0.109169
vt 0.927136 0.109114
vt 0.899439 0.039127
vt 0.927167 0.000000
vt 0.283540 0.577035
vt 0.293387 0.607196
vt 0.281479 0.609396
vt 0.268782 0.570235
vt 0.970204 0.509915
vt 0.964311 0.467140
vt 0.999975 0.467167
vt 1.000000 0.539270
vt 0.964297 0.337283
vt 0.999961 0.337310
vt 0.964315 0.320586
vt 0.999971 0.320611
vt 0.964276 0.302488
vt 0.999940 0.302512
vt 0.964289 0.281362
vt 0.999953 0.281388
vt 0.339735 0.509384
vt 0.371973 0.608180
vt 0.300741 0.602548
vt 0.331550 0.333196
vt 0.358871 0.306024
vt 0.370038 0.288271
vt 0.314829 0.247128
vt 0.353625 0.255836
vt 0.365033 0.243513
vt 0.348619 0.109363
vt 0.371973 0.093471
vt 0.351919 0.000000
vt 0.363822 0.002200
vt 0.800790 0.447579
vt 0.737471 0.444420
vt 0.762475 0.318657
vt 0.782078 0.177547
vt 0.745845 0.173063
vt 0.800791 0.135145
vt 0.788581 0.104598
vt 0.738564 0.149351
vt 0.797433 0.000000
vt 0.186181 0.529220
vt 0.212751 0.688022
vt 0.200839 0.653398
vt 0.226958 0.653698
vt 0.219761 0.503258
vt 0.226958 0.500576
vt 0.693691 0.177880
vt 0.712267 0.319291
vt 0.668154 0.422058
vt 0.729985 0.173592
vt 0.675326 0.135271
vt 0.687756 0.104762
vt 0.737471 0.149873
vt 0.679664 0.000000
vt 0.645279 0.664963
vt 0.639253 0.540111
vt 0.645279 0.503939
vt 0.371973 0.582944
vt 0.392466 0.555801
vt 0.403387 0.703830
vt 0.403387 0.559444
vt 0.212751 0.500576
vt 0.737471 0.472468
vt 0.788500 0.447579
vt 0.742472 0.679583
vt 0.542116 0.583952
vt 0.549779 0.583914
vt 0.539667 0.620596
vt 0.551140 0.620596
vt 0.788500 0.866308
vt 0.752815 0.862669
vt 0.783978 0.845302
vt 0.748325 0.845524
vt 0.778128 0.679351
vt 0.745745 0.726300
vt 0.781398 0.726075
vt 0.746635 0.747955
vt 0.782299 0.747726
vt 0.731470 0.419340
vt 0.737471 0.446817
vt 0.674156 0.449536
vt 0.810986 0.181957
vt 0.846632 0.182118
vt 0.808380 0.205818
vt 0.844029 0.205987
vt 0.802715 0.351913
vt 0.838364 0.352084
vt 0.639253 0.627822
vt 0.603846 0.632126
vt 0.591265 0.534503
vt 0.639253 0.503939
vt 0.810856 0.150559
vt 0.846511 0.150717
vt 0.851789 0.477392
vt 0.800791 0.452119
vt 0.816274 0.006134
vt 0.851789 0.000000
vt 0.300741 0.000000
vt 0.268492 0.098738
vt 0.229484 0.005636
vt 0.287633 0.301968
vt 0.260311 0.274813
vt 0.298814 0.319706
vt 0.282387 0.352127
vt 0.243575 0.360831
vt 0.293798 0.364440
vt 0.300741 0.514387
vt 0.277379 0.498509
vn -0.457900 0.705500 -0.540900
vn -0.360600 -0.582500 -0.728500
vn -0.732600 -0.612900 -0.295900
vn -0.771000 0.603300 -0.203800
vn -0.606800 -0.654100 -0.451500
vn -0.641400 0.767200 -0.005200
vn -0.864700 0.470500 -0.175700
vn -0.576500 -0.735200 -0.356500
vn -0.592600 0.771300 -0.232100
vn -0.664200 -0.661400 -0.348300
vn -0.632300 -0.754900 0.174200
vn -0.727500 0.261600 0.634300
vn 0.734100 0.640900 0.224200
vn 0.770100 -0.614500 0.171100
vn 0.642800 0.731100 -0.228800
vn 0.762800 -0.645100 -0.044600
vn 0.536300 0.775600 0.333000
vn 0.797800 0.536900 0.274200
vn 0.715700 -0.698200 0.014600
vn 0.604400 0.789700 0.105200
vn 0.761500 -0.645100 0.062500
vn 0.383300 0.332000 0.861900
vn 0.514400 -0.783100 0.349600
vn 0.962100 -0.013700 0.272500
vn 0.767400 -0.418500 -0.485800
vn 0.016400 0.985400 -0.169200
vn 0.767400 -0.418500 -0.485700
vn -0.732600 -0.613000 -0.295900
vn 0.016500 0.985500 -0.169100
vn -0.360600 -0.582500 -0.728400
vn 0.770100 -0.614500 0.171000
vn -0.732600 -0.613000 -0.296000
vn 0.417800 0.318000 0.851100
vn 0.657200 -0.656300 0.370600
vn 0.833200 -0.551500 -0.040400
vn 0.788100 -0.590700 -0.173200
vn 0.977000 -0.186900 -0.102200
vn 0.530400 0.793500 0.298300
vn 0.673300 0.604700 0.425500
vn 0.722300 0.335500 -0.604800
vn 0.459000 0.729400 0.507300
vn 0.596700 0.742800 0.303500
vn 0.484800 0.838400 -0.248900
vn -0.813900 -0.467400 -0.345300
vn -0.631900 0.663700 -0.400400
vn -0.606300 0.127500 -0.784900
vn -0.849600 0.516400 0.107300
vn -0.501000 -0.792400 -0.348100
vn -0.771900 0.536900 0.340400
vn -0.807900 0.437200 0.395200
vn -0.415400 -0.871600 -0.260300
vn -0.802500 0.585000 0.117500
vn -0.502600 -0.837800 0.213200
vn -0.700200 0.143000 0.699400
vn -0.194800 0.528300 0.826400
vn 0.185000 -0.943200 -0.275900
vn 0.745600 -0.666100 0.022600
vn 0.238200 0.357100 0.903200
vn 0.342600 -0.755900 0.557900
vn 0.736400 0.436600 0.516800
vn 0.698800 -0.701600 -0.139500
vn 0.825900 0.502800 0.255300
vn 0.779300 -0.593400 -0.201400
vn 0.613200 0.783400 0.101200
vn 0.752900 0.629400 0.192700
vn 0.550400 0.759900 0.345800
vn 0.778300 -0.627800 0.009800
vn 0.612200 0.751100 -0.247100
vn 0.669800 -0.500100 -0.548900
vn -0.651900 0.745000 0.141200
vn -0.789600 0.609700 -0.069400
vn -0.514100 0.737100 -0.438700
vn -0.438300 -0.513900 -0.737500
vn -0.722400 -0.646500 -0.245500
vn -0.654400 -0.611100 -0.445300
vn -0.596100 -0.717700 -0.359900
vn -0.687500 -0.676100 -0.265100
vn -0.669800 -0.723600 0.166600
vn -0.790500 0.430700 0.435300
vn -0.719800 0.685700 0.108400
vn -0.630900 0.768000 -0.110300
vn -0.875800 0.481500 -0.034400
vn 0.612300 0.751100 -0.247100
vn 0.669700 -0.500100 -0.548900
vn 0.778200 -0.627900 0.009800
vn 0.775600 -0.600100 -0.195800
vn -0.652300 -0.618100 -0.438800
vn 0.702200 -0.699000 -0.135100
vn -0.600900 -0.715200 -0.356900
vn 0.779100 -0.625200 -0.046200
vn -0.699500 -0.644400 -0.308900
vn 0.507900 -0.861400 -0.003400
vn -0.424900 -0.692300 0.583300
vn 0.742900 0.175200 0.646100
vn -0.460900 0.333500 0.822400
vn 0.613100 0.631300 0.475000
vn -0.726100 0.656100 0.205700
vn 0.622900 0.778500 0.077300
vn -0.632100 0.762800 -0.136300
vn -0.875700 0.481700 -0.034400
vn 0.550300 0.760000 0.345700
vn -0.652000 0.745000 0.141100
vn 0.752900 0.629300 0.192700
vn -0.789000 0.610400 -0.069800
vn -0.356000 0.678000 -0.643100
vn -0.231700 -0.473900 -0.849600
vn -0.592500 -0.736400 -0.326600
vn -0.730100 0.659300 -0.180000
vn -0.602400 -0.593800 -0.533300
vn -0.672500 0.740100 -0.002600
vn -0.806100 0.590800 0.034200
vn -0.590100 -0.750300 -0.298100
vn -0.222200 0.867200 0.445600
vn 0.619600 -0.755600 0.212700
vn -0.662700 -0.712900 0.229200
vn -0.759700 0.101700 0.642200
vn 0.723900 0.619200 0.304200
vn 0.778200 -0.623100 0.078200
vn 0.638800 0.768000 -0.045400
vn 0.777500 -0.625400 -0.066600
vn 0.530900 0.768300 0.357600
vn 0.659600 0.590300 0.465200
vn 0.602200 -0.795000 0.073300
vn 0.544700 0.629100 0.554500
vn -0.650600 -0.746900 -0.137400
vn 0.394300 0.109900 0.912400
vn 0.506800 -0.739500 0.443000
vn -0.222200 0.867300 0.445500
vn 0.955700 -0.113100 0.271600
vn 0.848000 -0.434100 -0.304100
vn -0.045200 0.997600 0.053200
vn -0.044200 0.997600 0.053900
vn 0.778200 -0.623200 0.078200
usemtl Material
s 1
f 1/1/1 2/2/2 3/3/3
f 3/3/3 4/4/4 1/1/1
f 3/3/3 5/5/5 4/4/4
f 6/6/6 4/4/4 5/5/5
f 7/7/7 6/6/6 5/5/5
f 7/7/7 5/5/5 8/8/8
f 7/7/7 8/8/8 9/9/9
f 9/9/9 8/8/8 10/10/10
f 10/11/10 11/12/11 12/13/12
f 13/14/13 14/15/14 15/16/15
f 14/15/14 13/14/13 16/17/16
f 17/18/17 16/17/16 13/14/13
f 18/19/18 16/17/16 17/18/17
f 16/17/16 18/19/18 19/20/19
f 20/21/20 19/20/19 18/19/18
f 20/21/20 21/22/21 19/20/19
f 20/21/20 22/23/22 21/22/21
f 22/23/22 23/24/23 21/22/21
f 9/25/9 12/26/24 10/27/24
f 15/28/15 1/29/1 13/30/13
f 12/31/12 11/32/11 22/33/22
f 11/32/11 23/34/23 22/33/22
f 12/35/12 22/36/22 9/37/9
f 9/37/9 22/36/22 20/38/20
f 4/39/4 13/30/13 1/29/1
f 17/40/17 6/41/6 18/42/18
f 6/41/6 7/43/7 18/42/18
f 15/28/15 24/44/25 2/45/2
f 15/28/15 2/45/2 1/29/1
f 19/46/19 8/47/8 16/48/16
f 8/47/8 5/49/5 16/48/16
f 16/48/16 5/49/5 14/50/14
f 5/49/5 3/51/3 14/50/14
f 3/52/26 14/53/26 24/44/27
f 3/52/28 24/44/29 2/45/29
f 19/46/19 21/54/21 10/55/10
f 10/55/10 8/47/8 19/46/19
f 15/16/15 14/15/14 24/56/25
f 2/57/30 24/58/27 14/50/31
f 3/51/32 2/57/30 14/50/31
f 20/38/20 18/42/18 9/37/9
f 9/37/9 18/42/18 7/43/7
f 17/40/17 13/30/13 4/39/4
f 17/40/17 4/39/4 6/41/6
f 23/59/23 11/60/11 21/54/21
f 21/54/21 11/60/11 10/55/10
f 25/61/33 26/62/34 27/63/35
f 28/64/36 25/61/33 27/63/35
f 29/65/37 25/61/33 28/64/36
f 30/66/38 25/61/33 29/65/37
f 31/67/39 30/66/38 29/65/37
f 32/68/40 31/67/39 29/65/37
f 33/69/41 31/67/39 32/68/40
f 34/70/42 33/69/41 32/68/40
f 35/71/43 34/70/42 32/68/40
f 36/72/44 37/73/45 38/74/46
f 39/75/47 37/73/45 36/72/44
f 40/76/48 39/75/47 36/72/44
f 41/77/49 39/75/47 40/76/48
f 42/78/50 41/77/49 40/76/48
f 43/79/51 42/78/50 40/76/48
f 44/80/52 42/78/50 43/79/51
f 45/81/53 44/80/52 43/79/51
f 46/82/54 44/80/52 45/81/53
f 39/83/47 35/84/43 37/85/45
f 34/86/42 35/84/43 39/83/47
f 41/87/49 34/86/42 39/83/47
f 33/88/41 34/86/42 41/87/49
f 33/89/41 41/90/49 42/91/50
f 31/92/55 33/89/55 42/91/50
f 44/93/52 31/94/39 42/95/50
f 30/96/38 31/94/39 44/93/52
f 46/97/54 30/96/38 44/93/52
f 25/98/33 30/96/38 46/97/54
f 27/99/35 26/100/34 43/101/51
f 26/100/56 45/102/56 43/101/51
f 27/99/35 43/101/51 40/103/48
f 28/104/36 27/99/35 40/103/48
f 28/104/36 40/103/48 36/105/44
f 29/106/37 28/104/36 36/105/44
f 37/85/45 32/107/40 38/108/46
f 35/84/43 32/107/40 37/85/45
f 46/109/54 45/110/53 25/111/33
f 25/111/33 45/110/53 26/112/34
f 47/113/57 48/114/58 49/115/59
f 50/116/60 48/114/58 47/113/57
f 50/116/60 47/113/57 51/117/61
f 52/118/62 50/116/60 51/117/61
f 53/119/63 52/118/62 51/117/61
f 54/120/64 50/116/60 52/118/62
f 55/121/65 52/118/62 53/119/63
f 56/122/66 52/118/62 55/121/65
f 57/123/67 55/121/65 53/119/63
f 58/124/68 55/121/65 57/123/67
f 58/124/68 57/123/67 59/125/69
f 60/126/70 55/127/65 61/128/71
f 56/129/66 55/127/65 60/126/70
f 61/128/71 58/130/68 62/131/72
f 55/127/65 58/130/68 61/128/71
f 58/130/68 59/132/69 63/133/73
f 62/131/72 58/130/68 63/133/73
f 57/134/67 64/135/74 63/136/73
f 59/137/69 57/134/67 63/136/73
f 53/138/63 65/139/75 64/135/74
f 57/134/67 53/138/63 64/135/74
f 51/140/61 66/141/76 65/139/75
f 53/138/63 51/140/61 65/139/75
f 47/142/57 67/143/77 66/141/76
f 51/140/61 47/142/57 66/141/76
f 67/143/77 49/144/59 68/145/78
f 47/142/57 49/144/59 67/143/77
f 48/146/58 69/147/79 68/148/78
f 49/149/59 48/146/58 68/148/78
f 69/150/79 50/151/60 70/152/80
f 48/153/58 50/151/60 69/150/79
f 70/152/80 54/154/64 71/155/81
f 50/151/60 54/154/64 70/152/80
f 71/155/81 52/156/62 72/157/82
f 54/154/64 52/156/62 71/155/81
f 72/157/82 56/129/66 60/126/70
f 52/156/62 56/129/66 72/157/82
f 64/158/74 62/159/72 63/160/73
f 65/161/75 62/159/72 64/158/74
f 61/162/71 62/159/72 65/161/75
f 60/163/70 61/162/71 65/161/75
f 66/164/76 60/163/70 65/161/75
f 72/165/82 60/163/70 66/164/76
f 71/166/81 72/165/82 66/164/76
f 67/167/77 71/166/81 66/164/76
f 70/168/80 71/166/81 67/167/77
f 68/169/78 70/168/80 67/167/77
f 69/170/79 70/168/80 68/169/78
f 73/171/83 74/172/84 75/173/73
f 76/174/72 73/171/83 75/173/73
f 77/175/85 78/176/74 75/177/73
f 74/178/84 77/175/85 75/177/73
f 79/179/86 80/180/87 78/176/74
f 77/175/85 79/179/86 78/176/74
f 81/181/88 82/182/89 80/180/87
f 79/179/86 81/181/88 80/180/87
f 83/183/90 84/184/91 82/182/89
f 81/181/88 83/183/90 82/182/89
f 85/185/92 86/186/93 84/184/91
f 83/183/90 85/185/92 84/184/91
f 87/187/94 88/188/95 86/189/93
f 85/190/92 87/187/94 86/189/93
f 87/191/94 89/192/96 90/193/97
f 88/194/95 87/191/94 90/193/97
f 90/193/97 91/195/98 92/196/99
f 89/192/96 91/195/98 90/193/97
f 92/196/99 93/197/62 94/198/100
f 91/195/98 93/197/62 92/196/99
f 94/198/100 95/199/101 96/200/102
f 93/197/62 95/199/101 94/198/100
f 97/201/103 73/171/83 98/202/104
f 76/174/72 98/202/104 73/171/83
f 78/203/74 76/204/72 75/205/73
f 80/206/87 76/204/72 78/203/74
f 98/207/104 76/204/72 80/206/87
f 96/208/102 98/207/104 80/206/87
f 82/209/89 96/208/102 80/206/87
f 94/210/100 96/208/102 82/209/89
f 92/211/99 94/210/100 82/209/89
f 84/212/91 92/211/99 82/209/89
f 90/213/97 92/211/99 84/212/91
f 86/214/93 90/213/97 84/212/91
f 88/215/95 90/213/97 86/214/93
f 97/201/103 96/200/102 95/199/101
f 97/201/103 98/202/104 96/200/102
f 99/216/105 100/217/106 101/218/107
f 101/218/107 102/219/108 99/216/105
f 101/218/107 103/220/109 102/219/108
f 104/221/110 102/219/108 103/220/109
f 105/222/111 104/221/110 103/220/109
f 105/222/111 103/220/109 106/223/112
f 105/222/111 106/223/112 107/224/113
f 107/225/113 106/226/112 108/227/114
f 108/228/114 109/229/115 110/230/116
f 111/231/117 112/232/118 113/233/119
f 112/232/118 111/231/117 114/234/120
f 115/235/121 114/234/120 111/231/117
f 116/236/122 114/234/120 115/235/121
f 114/234/120 116/236/122 117/237/123
f 118/238/124 117/237/123 116/236/122
f 118/239/124 119/240/125 117/241/123
f 118/242/124 120/243/126 119/244/125
f 120/243/126 121/245/127 119/244/125
f 107/225/128 110/246/129 108/227/129
f 113/247/119 99/248/105 111/249/117
f 110/250/116 109/251/115 120/252/126
f 109/251/115 121/253/127 120/252/126
f 110/254/116 120/255/126 107/256/113
f 107/256/113 120/255/126 118/257/124
f 102/258/108 111/249/117 99/248/105
f 115/259/121 104/260/110 116/261/122
f 104/260/110 105/262/111 116/261/122
f 113/233/119 122/263/130 100/264/106
f 113/233/119 100/264/106 99/265/105
f 117/266/123 106/267/112 114/268/120
f 106/267/112 103/269/109 114/268/120
f 114/268/120 103/269/109 112/270/118
f 103/269/109 101/271/107 112/270/118
f 101/272/131 112/273/131 122/274/130
f 101/272/107 122/274/132 100/275/132
f 117/266/123 119/276/125 108/277/114
f 108/277/114 106/267/112 117/266/123
f 113/233/119 112/232/118 122/263/130
f 100/278/106 122/279/130 112/270/133
f 101/271/107 100/278/106 112/270/133
f 118/257/124 116/261/122 107/256/113
f 107/256/113 116/261/122 105/262/111
f 115/259/121 111/249/117 102/258/108
f 115/259/121 102/258/108 104/260/110
f 121/280/127 109/281/115 119/276/125
f 119/276/125 109/281/115 108/277/114
f 73/282/83 77/283/85 74/284/84
f 73/282/83 97/285/103 77/283/85
f 79/286/86 77/283/85 97/285/103
f 95/287/101 79/286/86 97/285/103
f 95/287/101 93/288/62 79/286/86
f 93/288/62 81/289/88 79/286/86
f 91/290/98 81/289/88 93/288/62
f 89/291/96 81/289/88 91/290/98
f 89/291/96 83/292/90 81/289/88
f 89/291/96 87/187/94 83/292/90
f 87/187/94 85/190/92 83/292/90
