# Blender v2.76 (sub 0) OBJ File: ''
# www.blender.org
mtllib doigts_pied_left.mtl
o L_TOES01_L_TOES01_WHITE_BONE
v -3.772653 -46.520275 -25.723022
v -4.137290 -46.726273 -26.787451
v -4.094955 -45.871834 -26.601652
v -3.083185 -46.857559 -23.801712
v -3.224521 -47.070606 -24.237417
v -3.013055 -46.788300 -23.588041
v -2.877743 -47.098179 -23.253754
v -2.890285 -47.491077 -23.299164
v -2.821971 -46.986492 -23.063997
v -2.266673 -47.631180 -21.543964
v -2.061663 -47.759911 -20.963871
v -2.068160 -47.837856 -21.002901
v -4.480163 -45.876846 -26.473564
v -4.157860 -46.525284 -25.594934
v -3.468391 -46.862572 -23.673626
v -3.609725 -47.075718 -24.109335
v -3.398362 -46.793312 -23.459951
v -3.263053 -47.103188 -23.125765
v -3.275491 -47.496189 -23.171082
v -3.207181 -46.991497 -22.936008
v -2.651880 -47.636189 -21.415878
v -2.463216 -47.733662 -20.884216
v -2.474374 -47.848774 -20.945541
v -4.522495 -46.731384 -26.659369
v -5.540921 -47.612476 -20.344313
v -5.395664 -47.903210 -19.395140
v -5.337479 -47.643509 -19.241589
v -5.851012 -47.364685 -22.145718
v -5.892509 -47.104019 -22.523453
v -5.482183 -47.159912 -20.303482
v -5.672716 -46.948608 -21.446350
v -6.259815 -46.656330 -24.750864
v -5.676376 -46.600086 -21.674952
v -5.762726 -46.497971 -22.196621
v -6.049201 -45.417080 -24.373499
v -5.636626 -46.726639 -24.867737
v -5.426015 -45.487385 -24.490473
v -5.269220 -47.174328 -22.640327
v -5.139540 -46.568279 -22.313593
v -5.227826 -47.434994 -22.262691
v -5.053187 -46.670395 -21.791826
v -5.049530 -47.018913 -21.563322
v -4.917732 -47.682785 -20.461185
v -4.858894 -47.230221 -20.420357
v -4.772375 -47.973518 -19.512016
v -4.714290 -47.713818 -19.358463
v -3.093588 -47.920208 -19.760366
v -3.091655 -47.785717 -19.714287
v -3.553223 -47.633026 -20.638769
v -3.499846 -47.561802 -20.390202
v -3.901449 -47.485630 -22.173471
v -3.901494 -47.009224 -22.106478
v -4.099185 -46.943367 -22.979935
v -3.865699 -46.935558 -21.936140
v -4.018898 -46.757839 -22.595390
v -3.970274 -46.707882 -22.370754
v -4.516844 -46.169933 -24.736832
v -4.735864 -45.441498 -25.612282
v -4.761620 -46.222958 -25.837879
v -3.622933 -46.745312 -22.684046
v -3.574209 -46.695351 -22.459412
v -4.339898 -45.428970 -25.700937
v -4.365654 -46.210430 -25.926535
v -4.120878 -46.157410 -24.825485
v -3.703116 -46.930843 -23.068491
v -3.505384 -47.473103 -22.262129
v -3.157258 -47.620499 -20.727425
v -2.902102 -47.911278 -19.862228
v -2.900838 -47.775772 -19.837315
v -3.103781 -47.549274 -20.478859
v -3.469631 -46.923035 -22.024698
v -3.505528 -46.996696 -22.195133
v -4.972279 -46.233788 -25.705149
v -5.368244 -46.246315 -25.616493
v -5.342490 -45.464756 -25.390890
v -4.946525 -45.452229 -25.479546
v -4.727503 -46.180763 -24.604099
v -5.123468 -46.193291 -24.515444
v -4.309741 -46.954201 -22.847105
v -4.705709 -46.966625 -22.758446
v -4.112605 -47.467697 -22.039341
v -4.508670 -47.480228 -21.950684
v -3.763780 -47.643860 -20.505939
v -4.159845 -47.656387 -20.417282
v -3.499851 -48.034569 -19.382090
v -3.908069 -48.025333 -19.745747
v -3.498586 -47.899063 -19.357174
v -3.903793 -47.895039 -19.612497
v -3.712810 -47.456692 -20.251829
v -4.108875 -47.469223 -20.163172
v -4.076255 -46.946392 -21.803310
v -4.472321 -46.958920 -21.714653
v -4.112153 -47.020054 -21.973745
v -4.508118 -47.032581 -21.885092
v -4.180833 -46.718708 -22.238026
v -4.576900 -46.731136 -22.149363
v -4.229557 -46.768669 -22.462658
v -4.625523 -46.781193 -22.374004
v -2.932280 -46.962852 -25.267040
v -3.224467 -46.888210 -26.665735
v -3.180088 -46.181274 -26.526447
v -2.403042 -47.138252 -23.775305
v -2.384764 -47.549965 -23.836670
v -2.209980 -47.049416 -23.298292
v -2.107238 -47.268791 -23.020668
v -2.279544 -47.695854 -23.621376
v -1.730687 -47.461498 -21.927473
v -2.164595 -47.575260 -23.247898
v -1.583755 -47.774792 -21.649845
v -1.590251 -47.852642 -21.688770
v -3.643778 -46.203728 -26.073502
v -3.317485 -46.967964 -25.138958
v -2.788350 -47.143265 -23.647215
v -2.769971 -47.554974 -23.708582
v -2.595290 -47.054424 -23.170303
v -2.492445 -47.273800 -22.892582
v -2.664753 -47.700859 -23.493387
v -2.115995 -47.466606 -21.799488
v -2.549905 -47.580269 -23.119909
v -1.985308 -47.748543 -21.570192
v -1.996468 -47.863552 -21.631512
v -3.688156 -46.910664 -26.212788
vt 0.629112 0.409596
vt 0.668162 0.503945
vt 0.591272 0.503945
vt 0.619282 0.224739
vt 0.646268 0.260667
vt 0.609063 0.206414
vt 0.628821 0.168999
vt 0.663402 0.165452
vt 0.615473 0.153851
vt 0.640045 0.000000
vt 0.558563 0.640191
vt 0.551148 0.638171
vt 0.558563 0.583919
vt 0.448868 0.555801
vt 0.410944 0.461345
vt 0.420584 0.276259
vt 0.393620 0.312220
vt 0.430786 0.257917
vt 0.410980 0.220454
vt 0.376401 0.216901
vt 0.424322 0.205295
vt 0.399598 0.051247
vt 0.401904 0.000000
vt 0.390841 0.003192
vt 0.212746 0.556462
vt 0.219756 0.500584
vt 0.219756 0.712399
vt 0.801791 0.724998
vt 0.836441 0.965895
vt 0.800793 0.966727
vt 0.441669 0.592486
vt 0.431544 0.555801
vt 0.439219 0.555841
vt 0.430188 0.592485
vt 0.837284 0.658080
vt 0.802576 0.482094
vt 0.838143 0.477392
vt 0.801639 0.658921
vt 0.837438 0.724166
vt 0.802586 0.678415
vt 0.836958 0.703106
vt 0.801302 0.703941
vt 0.838239 0.677572
vt 0.838239 0.999165
vt 0.802592 1.000000
vt 0.963436 0.316729
vt 0.928584 0.220061
vt 0.964227 0.220796
vt 0.927793 0.315994
vt 0.964123 0.466674
vt 0.928480 0.465938
vt 0.801435 0.897351
vt 0.837082 0.896520
vt 0.928112 0.054713
vt 0.963755 0.055449
vt 0.371978 0.555801
vt 0.964227 0.560216
vt 0.928584 0.559482
vt 0.927974 0.000000
vt 0.963332 0.007026
vt 0.161666 0.095827
vt 0.164657 0.006418
vt 0.190834 0.000000
vt 0.130527 0.257540
vt 0.141480 0.296925
vt 0.200751 0.104182
vt 0.185527 0.208195
vt 0.114813 0.500584
vt 0.208134 0.237038
vt 0.201660 0.284664
vt 0.229487 0.500584
vt 0.114813 0.501587
vt 0.000000 0.501587
vt 0.088754 0.297518
vt 0.028541 0.285239
vt 0.099847 0.258065
vt 0.022206 0.237509
vt 0.044934 0.208618
vt 0.069175 0.096020
vt 0.030015 0.104387
vt 0.066461 0.006431
vt 0.040272 0.000000
vt 0.114813 0.560305
vt 0.170242 0.561961
vt 0.129303 0.731872
vt 0.184732 0.733528
vt 0.130748 0.776293
vt 0.186176 0.777940
vt 0.520083 0.587274
vt 0.539674 0.583919
vt 0.539674 0.640886
vt 0.520085 0.644242
vt 0.059392 0.501587
vt 0.114656 0.506261
vt 0.057302 0.599181
vt 0.112574 0.603845
vt 0.059393 0.684023
vt 0.114656 0.688689
vt 0.057302 0.705101
vt 0.056674 0.795104
vt 0.000949 0.794971
vt 0.001586 0.704969
vt 0.055717 0.540491
vt 0.000000 0.540368
vt 0.057302 0.501721
vt 0.001577 0.501587
vt 0.130748 0.500584
vt 0.186176 0.502231
vt 0.403392 0.555801
vt 0.430188 0.613117
vt 0.403393 0.612768
vt 0.430188 0.556141
vt 0.505918 0.000000
vt 0.518381 0.000519
vt 0.499733 0.090675
vt 0.513518 0.071643
vt 0.462702 0.227313
vt 0.503860 0.237079
vt 0.481308 0.314259
vt 0.515343 0.224846
vt 0.508805 0.287268
vt 0.520083 0.269601
vt 0.488438 0.490378
vt 0.520083 0.589314
vt 0.448868 0.583233
vt 0.705365 0.693675
vt 0.669710 0.694020
vt 0.705169 0.672551
vt 0.669506 0.672899
vt 0.707416 0.940099
vt 0.671762 0.940445
vt 0.707834 0.975028
vt 0.672179 0.975374
vt 0.891351 0.000301
vt 0.889916 0.097334
vt 0.854270 0.097033
vt 0.855705 0.000000
vt 0.889105 0.271594
vt 0.853452 0.271283
vt 0.889062 0.355811
vt 0.853407 0.355508
vt 0.887438 0.496068
vt 0.851792 0.495767
vt 0.891351 0.580908
vt 0.872910 0.585819
vt 0.570853 0.604576
vt 0.559232 0.603352
vt 0.570853 0.585604
vt 0.703826 0.510583
vt 0.668162 0.510930
vt 0.707834 0.456166
vt 0.689040 0.449540
vt 0.704891 0.637754
vt 0.669229 0.638110
vt 0.705044 0.654453
vt 0.669390 0.654799
vt 0.520083 0.006078
vt 0.591272 0.000000
vt 0.559638 0.098995
vt 0.552513 0.275232
vt 0.579998 0.302231
vt 0.591272 0.319913
vt 0.533912 0.362221
vt 0.575054 0.352451
vt 0.586537 0.364702
vt 0.570928 0.498945
vt 0.584709 0.517992
vt 0.575179 0.583919
vt 0.587069 0.581644
vt 1.000000 0.539249
vt 0.964344 0.539274
vt 0.964227 0.504340
vt 0.999883 0.504315
vt 0.927793 0.000056
vt 0.926998 0.097097
vt 0.891351 0.097041
vt 0.892146 0.000000
vt 0.927336 0.271358
vt 0.891688 0.271301
vt 0.927793 0.355048
vt 0.892137 0.354990
vt 0.927155 0.495849
vt 0.891500 0.495792
vt 0.927177 0.604963
vt 0.899449 0.565834
vt 0.281487 0.000000
vt 0.293395 0.002200
vt 0.283544 0.032359
vt 0.268787 0.039158
vt 0.999975 0.072103
vt 0.964310 0.072130
vt 0.970203 0.029355
vt 1.000000 0.000000
vt 0.999961 0.201961
vt 0.964296 0.201988
vt 0.999971 0.218661
vt 0.964315 0.218686
vt 0.999940 0.236759
vt 0.964276 0.236783
vt 0.999954 0.257884
vt 0.964297 0.257909
vt 0.300745 0.005632
vt 0.371978 0.000000
vt 0.339739 0.098796
vt 0.331553 0.274985
vt 0.358874 0.302158
vt 0.370042 0.319910
vt 0.314832 0.361054
vt 0.353629 0.352345
vt 0.365037 0.364669
vt 0.348623 0.498820
vt 0.371978 0.514711
vt 0.351922 0.608182
vt 0.363825 0.605982
vt 0.762478 0.128922
vt 0.737474 0.003161
vt 0.800793 0.000000
vt 0.782081 0.270035
vt 0.745846 0.274518
vt 0.800793 0.312438
vt 0.788583 0.342983
vt 0.738565 0.298230
vt 0.797435 0.447585
vt 0.200834 0.535208
vt 0.212746 0.500584
vt 0.186176 0.659389
vt 0.226955 0.653707
vt 0.219756 0.651025
vt 0.226955 0.500584
vt 0.668162 0.027482
vt 0.712273 0.130250
vt 0.693693 0.271661
vt 0.729988 0.275949
vt 0.675327 0.314270
vt 0.687756 0.344781
vt 0.737473 0.299668
vt 0.679662 0.449540
vt 0.645284 0.664970
vt 0.639259 0.628799
vt 0.645284 0.503945
vt 0.392471 0.703830
vt 0.371978 0.676688
vt 0.403392 0.700187
vt 0.212746 0.688030
vt 0.742474 0.634310
vt 0.788503 0.866315
vt 0.737474 0.841427
vt 0.551148 0.620601
vt 0.541035 0.583919
vt 0.548699 0.583957
vt 0.539674 0.620601
vt 0.783990 0.468588
vt 0.752817 0.451223
vt 0.788503 0.447585
vt 0.748328 0.468368
vt 0.778139 0.634540
vt 0.746646 0.565935
vt 0.781409 0.587814
vt 0.745747 0.587593
vt 0.782302 0.566167
vt 0.737474 0.002722
vt 0.731477 0.030203
vt 0.674158 0.000000
vt 0.808379 0.271573
vt 0.846632 0.295274
vt 0.810985 0.295435
vt 0.844028 0.271404
vt 0.802711 0.125477
vt 0.838361 0.125306
vt 0.591272 0.601565
vt 0.603852 0.503945
vt 0.639259 0.508251
vt 0.639259 0.632133
vt 0.846511 0.326674
vt 0.810855 0.326833
vt 0.800793 0.025274
vt 0.851792 0.000000
vt 0.851792 0.477392
vt 0.816277 0.471258
vt 0.229487 0.603763
vt 0.268495 0.510660
vt 0.300745 0.609397
vt 0.287638 0.307426
vt 0.260315 0.334582
vt 0.298817 0.289690
vt 0.282391 0.257268
vt 0.243579 0.248564
vt 0.293801 0.244955
vt 0.300745 0.095007
vt 0.277383 0.110885
vn 0.742600 -0.580500 -0.334000
vn 0.347900 -0.566900 -0.746700
vn 0.398000 0.724300 -0.562900
vn 0.732300 0.636200 -0.242600
vn 0.610900 -0.627300 -0.483000
vn 0.606000 0.794600 -0.037400
vn 0.833000 0.507800 -0.219400
vn 0.589100 -0.709600 -0.386600
vn 0.545400 0.796400 -0.261400
vn 0.673800 -0.632000 -0.382800
vn 0.747100 0.294000 0.596200
vn 0.673400 -0.725800 0.140500
vn -0.685200 0.701800 -0.194600
vn -0.732500 -0.647600 0.209800
vn -0.748800 0.608700 0.262200
vn -0.735100 -0.678000 -0.005900
vn -0.552000 0.751600 0.361000
vn -0.805400 0.501700 0.315600
vn -0.682700 -0.729000 0.050700
vn -0.632300 0.762500 0.137200
vn -0.728200 -0.677900 0.100900
vn -0.352500 0.315800 0.880900
vn -0.460800 -0.804500 0.374800
vn -0.945200 -0.055700 0.321700
vn 0.545300 0.796400 -0.261500
vn -0.772300 -0.452400 -0.446000
vn -0.068300 0.983600 -0.167100
vn -0.068500 0.983600 -0.166900
vn -0.732500 -0.647600 0.209900
vn 0.347800 -0.566900 -0.746700
vn 0.742600 -0.580500 -0.334100
vn -0.684000 -0.726000 -0.071500
vn -0.534300 -0.805400 0.256500
vn -0.387000 0.300300 0.871800
vn -0.769300 -0.624900 -0.133000
vn -0.971900 -0.229500 -0.051900
vn -0.548700 0.769800 0.326200
vn -0.504800 0.620800 0.599800
vn -0.766500 0.302700 -0.566400
vn -0.385400 0.710000 0.589400
vn -0.612400 0.716200 0.334700
vn -0.533400 0.816000 -0.222600
vn 0.558800 0.153100 -0.815000
vn 0.580600 0.690300 -0.431700
vn 0.814800 -0.431500 -0.387200
vn 0.830500 0.553400 0.064000
vn 0.516700 -0.770000 -0.374300
vn 0.764100 0.570700 0.300800
vn 0.903200 0.396700 0.163900
vn 0.608800 -0.748100 -0.264100
vn 0.781100 0.619700 0.076600
vn 0.549200 -0.814700 0.186200
vn 0.728400 0.174400 0.662600
vn 0.213800 0.537400 0.815800
vn -0.504800 0.620900 0.599700
vn -0.157400 -0.950700 -0.267100
vn -0.280100 -0.769500 0.574000
vn -0.206500 0.347500 0.914700
vn -0.713400 -0.698200 0.060300
vn -0.727300 0.404300 0.554600
vn -0.673500 -0.731800 -0.104100
vn -0.832900 0.466300 0.298100
vn -0.761900 -0.627200 -0.161600
vn -0.641000 0.755900 0.133500
vn -0.768700 0.596100 0.231900
vn -0.564900 0.735300 0.374500
vn -0.748400 -0.661400 0.049200
vn -0.656600 0.723200 -0.214300
vn -0.674600 -0.529700 -0.514200
vn 0.756800 0.644400 -0.109700
vn 0.625000 0.773100 0.108200
vn 0.457900 0.758500 -0.463800
vn 0.421800 -0.494900 -0.759700
vn 0.736400 -0.614400 -0.283100
vn 0.656700 -0.582300 -0.479200
vn 0.607800 -0.691200 -0.390900
vn 0.701900 -0.645600 -0.301000
vn 0.708900 -0.693100 0.131000
vn 0.792100 0.465900 0.394500
vn 0.693600 0.716800 0.071900
vn 0.590100 0.794800 -0.141900
vn 0.851000 0.519100 -0.079000
vn 0.421800 -0.495000 -0.759700
vn -0.748400 -0.661400 0.049300
vn 0.655300 -0.589300 -0.472600
vn -0.757500 -0.633900 -0.156200
vn 0.612500 -0.688600 -0.388200
vn -0.676800 -0.729400 -0.099600
vn 0.710500 -0.613200 -0.345300
vn -0.752300 -0.658800 -0.006700
vn 0.484400 -0.672200 0.559900
vn -0.469100 -0.882900 0.021900
vn 0.487600 0.354300 0.798000
vn -0.715600 0.143100 0.683700
vn 0.706100 0.687700 0.168800
vn -0.614900 0.604300 0.506700
vn 0.590100 0.789700 -0.167800
vn -0.651700 0.750400 0.110200
vn 0.850700 0.519700 -0.079000
vn -0.832900 0.466300 0.298000
vn 0.625000 0.773100 0.108100
vn -0.564700 0.735500 0.374400
vn 0.756800 0.644400 -0.109800
vn -0.768500 0.596500 0.231300
vn 0.606700 -0.710000 -0.357500
vn 0.208200 -0.464200 -0.860900
vn 0.292200 0.692200 -0.659900
vn 0.690200 0.690400 -0.216700
vn 0.599600 -0.567500 -0.564300
vn 0.638400 0.768900 -0.036400
vn 0.780100 0.625600 -0.006700
vn 0.606300 -0.724000 -0.329000
vn 0.206500 0.876600 0.434600
vn -0.574000 -0.781800 0.243600
vn 0.786600 0.135800 0.602400
vn 0.704400 -0.682800 0.194000
vn -0.673500 0.739100 -0.011500
vn -0.745000 -0.656700 0.117500
vn -0.733800 0.587100 0.341900
vn -0.751600 -0.659000 -0.027100
vn -0.545100 0.744600 0.385400
vn -0.659900 0.561400 0.499300
vn -0.562100 -0.820600 0.103400
vn -0.542600 0.605200 0.582600
vn 0.674900 -0.717700 -0.171600
vn -0.351200 0.093500 0.931600
vn -0.450300 -0.760600 0.467700
vn -0.934600 -0.154400 0.320400
vn 0.206600 0.876700 0.434300
vn -0.842600 -0.471300 -0.260500
vn -0.842700 -0.471300 -0.260400
vn 0.004000 0.998600 0.051900
vn 0.003100 0.998600 0.052700
vn -0.842700 -0.471200 -0.260500
usemtl Material
s 1
f 1/1/1 2/2/2 3/3/3
f 3/3/3 4/4/4 1/1/1
f 4/4/4 5/5/5 1/1/1
f 5/5/5 4/4/4 6/6/6
f 5/5/5 6/6/6 7/7/7
f 8/8/8 5/5/5 7/7/7
f 9/9/9 8/8/8 7/7/7
f 10/10/10 8/8/8 9/9/9
f 11/11/11 12/12/12 10/13/10
f 13/14/13 14/15/14 15/16/15
f 16/17/16 15/16/15 14/15/14
f 15/16/15 16/17/16 17/18/17
f 17/18/17 16/17/16 18/19/18
f 19/20/19 18/19/18 16/17/16
f 18/19/18 19/20/19 20/21/20
f 19/20/19 21/22/21 20/21/20
f 21/22/21 22/23/22 20/21/20
f 21/22/21 23/24/23 22/23/22
f 10/25/24 11/26/24 9/27/25
f 15/28/15 3/29/3 13/30/13
f 22/31/22 12/32/12 11/33/11
f 22/31/22 23/34/23 12/32/12
f 9/35/9 22/36/22 11/37/11
f 20/38/20 22/36/22 9/35/9
f 3/29/3 15/28/15 4/39/4
f 18/40/18 6/41/6 17/42/17
f 18/40/18 7/43/7 6/41/6
f 2/44/2 24/45/26 13/30/13
f 3/29/3 2/44/2 13/30/13
f 16/46/16 8/47/8 19/48/19
f 16/46/16 5/49/5 8/47/8
f 14/50/14 5/49/5 16/46/16
f 14/50/14 1/51/1 5/49/5
f 24/45/26 14/52/27 1/53/27
f 2/44/28 24/45/28 1/53/1
f 10/54/10 21/55/21 19/48/19
f 19/48/19 8/47/8 10/54/10
f 24/56/26 14/15/14 13/14/13
f 14/50/29 24/57/26 2/58/30
f 14/50/29 2/58/30 1/51/31
f 9/35/9 18/40/18 20/38/20
f 7/43/7 18/40/18 9/35/9
f 4/39/4 15/28/15 17/42/17
f 6/41/6 4/39/4 17/42/17
f 21/55/21 12/59/12 23/60/23
f 10/54/10 12/59/12 21/55/21
f 25/61/32 26/62/33 27/63/34
f 25/61/32 27/63/34 28/64/35
f 28/64/35 27/63/34 29/65/36
f 29/65/36 27/63/34 30/66/37
f 29/65/36 30/66/37 31/67/38
f 29/65/36 31/67/38 32/68/39
f 32/68/39 31/67/38 33/69/40
f 32/68/39 33/69/40 34/70/41
f 32/68/39 34/70/41 35/71/42
f 36/72/43 37/73/44 38/74/45
f 38/74/45 37/73/44 39/75/46
f 38/74/45 39/75/46 40/76/47
f 40/76/47 39/75/46 41/77/48
f 40/76/47 41/77/48 42/78/49
f 40/76/47 42/78/49 43/79/50
f 43/79/50 42/78/49 44/80/51
f 43/79/50 44/80/51 45/81/52
f 45/81/52 44/80/51 46/82/53
f 37/83/44 35/84/42 39/85/46
f 39/85/46 35/84/42 34/86/41
f 39/85/46 34/86/41 41/87/48
f 41/87/48 34/86/41 33/88/40
f 42/89/49 41/90/48 33/91/40
f 42/89/54 33/91/54 31/92/55
f 42/93/49 31/94/38 44/95/51
f 44/95/51 31/94/38 30/96/37
f 44/95/51 30/96/37 46/97/53
f 46/97/53 30/96/37 27/98/34
f 43/99/50 45/100/52 26/101/33
f 43/99/56 26/101/56 25/102/32
f 40/103/47 43/99/50 25/102/32
f 40/103/47 25/102/32 28/104/35
f 38/105/45 40/103/47 28/104/35
f 38/105/45 28/104/35 29/106/36
f 36/107/43 32/108/39 37/83/44
f 37/83/44 32/108/39 35/84/42
f 27/109/34 45/110/52 46/111/53
f 26/112/33 45/110/52 27/109/34
f 47/113/57 48/114/58 49/115/59
f 49/115/59 48/114/58 50/116/60
f 51/117/61 49/115/59 50/116/60
f 51/117/61 50/116/60 52/118/62
f 51/117/61 52/118/62 53/119/63
f 52/118/62 50/116/60 54/120/64
f 53/119/63 52/118/62 55/121/65
f 55/121/65 52/118/62 56/122/66
f 53/119/63 55/121/65 57/123/67
f 57/123/67 55/121/65 58/124/68
f 59/125/69 57/123/67 58/124/68
f 60/126/70 55/127/65 61/128/71
f 61/128/71 55/127/65 56/129/66
f 62/130/72 58/131/68 60/126/70
f 60/126/70 58/131/68 55/127/65
f 63/132/73 59/133/69 58/131/68
f 63/132/73 58/131/68 62/130/72
f 63/134/73 64/135/74 57/136/67
f 63/134/73 57/136/67 59/137/69
f 64/135/74 65/138/75 53/139/63
f 64/135/74 53/139/63 57/136/67
f 65/138/75 66/140/76 51/141/61
f 65/138/75 51/141/61 53/139/63
f 66/140/76 67/142/77 49/143/59
f 66/140/76 49/143/59 51/141/61
f 68/144/78 47/145/57 67/142/77
f 67/142/77 47/145/57 49/143/59
f 68/146/78 69/147/79 48/13/58
f 68/146/78 48/13/58 47/148/57
f 70/149/80 50/150/60 69/151/79
f 69/151/79 50/150/60 48/152/58
f 71/153/81 54/154/64 70/149/80
f 70/149/80 54/154/64 50/150/60
f 72/155/82 52/156/62 71/153/81
f 71/153/81 52/156/62 54/154/64
f 61/128/71 56/129/66 72/155/82
f 72/155/82 56/129/66 52/156/62
f 63/157/73 62/158/72 64/159/74
f 64/159/74 62/158/72 65/160/75
f 65/160/75 62/158/72 60/161/70
f 65/160/75 60/161/70 61/162/71
f 65/160/75 61/162/71 66/163/76
f 66/163/76 61/162/71 72/164/82
f 66/163/76 72/164/82 71/165/81
f 66/163/76 71/165/81 67/166/77
f 67/166/77 71/165/81 70/167/80
f 67/166/77 70/167/80 68/168/78
f 68/168/78 70/167/80 69/169/79
f 73/170/83 74/171/69 75/172/68
f 73/170/83 75/172/68 76/173/72
f 73/174/83 77/175/74 78/176/84
f 73/174/83 78/176/84 74/177/69
f 77/175/74 79/178/85 80/179/86
f 77/175/74 80/179/86 78/176/84
f 79/178/85 81/180/87 82/181/88
f 79/178/85 82/181/88 80/179/86
f 81/180/87 83/182/89 84/183/90
f 81/180/87 84/183/90 82/181/88
f 83/182/89 85/184/91 86/185/92
f 83/182/89 86/185/92 84/183/90
f 85/186/91 87/187/93 88/188/94
f 85/186/91 88/188/94 86/189/92
f 89/190/95 90/191/96 88/192/94
f 89/190/95 88/192/94 87/193/93
f 91/194/97 92/195/98 89/190/95
f 89/190/95 92/195/98 90/191/96
f 93/196/99 94/197/100 91/194/97
f 91/194/97 94/197/100 92/195/98
f 95/198/101 96/199/102 93/196/99
f 93/196/99 96/199/102 94/197/100
f 97/200/103 75/172/68 98/201/104
f 75/172/68 97/200/103 76/173/72
f 73/202/83 76/203/72 77/204/74
f 77/204/74 76/203/72 79/205/85
f 79/205/85 76/203/72 97/206/103
f 79/205/85 97/206/103 95/207/101
f 79/205/85 95/207/101 81/208/87
f 81/208/87 95/207/101 93/209/99
f 81/208/87 93/209/99 91/210/97
f 81/208/87 91/210/97 83/211/89
f 83/211/89 91/210/97 89/212/95
f 83/211/89 89/212/95 85/213/91
f 85/213/91 89/212/95 87/214/93
f 96/199/102 95/198/101 98/201/104
f 95/198/101 97/200/103 98/201/104
f 99/215/105 100/216/106 101/217/107
f 101/217/107 102/218/108 99/215/105
f 102/218/108 103/219/109 99/215/105
f 103/219/109 102/218/108 104/220/110
f 103/219/109 104/220/110 105/221/111
f 106/222/112 103/219/109 105/221/111
f 107/223/113 106/222/112 105/221/111
f 108/224/114 106/225/112 107/226/113
f 109/227/115 110/228/116 108/229/114
f 111/230/117 112/231/118 113/232/119
f 114/233/120 113/232/119 112/231/118
f 113/232/119 114/233/120 115/234/121
f 115/234/121 114/233/120 116/235/122
f 117/236/123 116/235/122 114/233/120
f 116/235/122 117/236/123 118/237/124
f 117/238/123 119/239/125 118/240/124
f 119/109/125 120/241/126 118/242/124
f 119/109/125 121/243/127 120/241/126
f 108/224/128 109/244/128 107/226/129
f 113/245/119 101/246/107 111/247/117
f 120/248/126 110/249/116 109/250/115
f 120/248/126 121/251/127 110/249/116
f 107/252/113 120/253/126 109/254/115
f 118/255/124 120/253/126 107/252/113
f 101/246/107 113/245/119 102/256/108
f 116/257/122 104/258/110 115/259/121
f 116/257/122 105/260/111 104/258/110
f 100/261/106 122/262/130 111/230/117
f 101/263/107 100/261/106 111/230/117
f 114/264/120 106/265/112 117/266/123
f 114/264/120 103/267/109 106/265/112
f 112/268/118 103/267/109 114/264/120
f 112/268/118 99/269/105 103/267/109
f 122/270/131 112/271/132 99/272/132
f 100/273/133 122/270/133 99/272/105
f 108/274/114 119/275/125 117/266/123
f 117/266/123 106/265/112 108/274/114
f 122/262/130 112/231/118 111/230/117
f 112/268/118 122/276/134 100/277/106
f 112/268/118 100/277/106 99/269/105
f 107/252/113 116/257/122 118/255/124
f 105/260/111 116/257/122 107/252/113
f 102/256/108 113/245/119 115/259/121
f 104/258/110 102/256/108 115/259/121
f 119/275/125 110/278/116 121/279/127
f 108/274/114 110/278/116 119/275/125
f 74/280/69 78/281/84 75/282/68
f 78/281/84 98/283/104 75/282/68
f 98/283/104 78/281/84 80/284/86
f 98/283/104 80/284/86 96/285/102
f 80/284/86 94/286/100 96/285/102
f 80/284/86 82/287/88 94/286/100
f 94/286/100 82/287/88 92/288/98
f 92/288/98 82/287/88 90/289/96
f 82/287/88 84/290/90 90/289/96
f 84/290/90 88/188/94 90/289/96
f 84/290/90 86/189/92 88/188/94
