# Blender v2.76 (sub 0) OBJ File: ''
# www.blender.org
mtllib femure_left.mtl
o LFEMUR01_LFEMUR01_WHITE_BONE
v -7.232154 -24.589333 -26.057390
v -7.284829 -23.245022 -26.952744
v -7.282503 -24.528000 -27.955971
v -6.395341 -23.225458 -26.975700
v -6.393014 -24.508436 -27.978928
v -6.342665 -24.569769 -26.080347
v -7.229827 -25.872311 -27.060616
v -6.340338 -25.852747 -27.083572
v -7.178259 -25.955053 -25.133055
v -6.288770 -25.935490 -25.156012
v -7.180647 -24.681581 -24.140299
v -6.291158 -24.662018 -24.163256
v -7.233054 -23.337751 -25.025669
v -6.343566 -23.318188 -25.048626
v -6.142780 -24.565372 -26.085506
v -6.183134 -23.541201 -26.776262
v -6.181264 -24.515673 -27.534281
v -5.093760 -23.517241 -26.804377
v -5.091890 -24.491713 -27.562397
v -5.053406 -24.541412 -26.113621
v -6.140764 -25.559338 -26.854483
v -5.051390 -25.535378 -26.882599
v -6.101329 -25.629967 -25.386709
v -5.011955 -25.606007 -25.414825
v -6.102808 -24.636961 -24.597763
v -5.013434 -24.613001 -24.625879
v -4.853520 -24.537016 -26.118780
v -4.906197 -23.192705 -27.014133
v -4.903870 -24.475683 -28.017361
v -3.996719 -23.172701 -27.037605
v -3.994393 -24.455679 -28.040833
v -3.944044 -24.517012 -26.142254
v -4.851194 -25.819994 -27.122005
v -3.941717 -25.799990 -27.145479
v -4.799626 -25.902737 -25.194445
v -3.890149 -25.882732 -25.217916
v -4.802013 -24.629265 -24.201689
v -3.892537 -24.609261 -24.225163
v -4.854422 -23.285435 -25.087059
v -3.944944 -23.265430 -25.110531
v -5.031404 -24.369284 -25.114428
v -2.199117 -5.611968 -22.284872
v -2.480719 -5.604243 -21.946434
v -5.282401 -24.390854 -24.778221
v -3.202253 -5.501201 -21.902060
v -6.024754 -24.248304 -24.731386
v -3.482608 -5.411384 -22.220707
v -6.324951 -24.178429 -25.060474
v -3.417700 -5.344222 -22.750023
v -6.231547 -24.088709 -25.629532
v -2.868852 -5.370204 -23.216702
v -5.693022 -24.123938 -26.116409
v -2.314996 -5.518317 -22.818071
v -5.128037 -24.264250 -25.667627
v -4.547939 -2.934848 -20.680803
v -4.432797 -3.487594 -20.179691
v -3.941003 -2.886623 -20.384319
v -4.140461 -4.196109 -20.311775
v -3.377065 -3.266548 -20.567980
v -3.862290 -4.399611 -20.949982
v -3.350983 -3.787734 -21.164625
v -3.868446 -4.302046 -21.105366
v -3.492013 -3.836895 -21.243322
v -3.135511 -5.627398 -21.749681
v -2.507685 -4.910617 -22.012484
v -4.179531 -2.493785 -21.150206
v -3.730201 -2.666950 -21.721445
v -3.589182 -3.385864 -21.910055
v -3.673816 -3.531974 -21.824677
v -2.782911 -4.381412 -22.921051
v -4.828945 -2.854595 -21.420530
v -4.708381 -3.209961 -22.091856
v -4.257841 -3.758068 -22.160381
v -4.173303 -3.802979 -22.024601
v -3.611908 -4.823669 -23.240545
v -5.000125 -3.458465 -20.814034
v -4.954895 -4.159286 -21.209518
v -4.419356 -4.370746 -21.574596
v -4.291295 -4.278015 -21.573576
v -3.815727 -5.595405 -22.491020
v -2.155001 -6.639922 -23.777716
v -2.382389 -7.315818 -21.921276
v -1.108406 -5.801936 -22.443501
v -3.122700 -5.871494 -21.461325
v -2.225027 -4.803751 -21.824646
v -2.295586 -7.557090 -21.865112
v -0.886814 -5.867480 -22.442600
v -2.085239 -6.753417 -23.885202
v -1.699119 -4.830436 -24.343855
v -2.664419 -4.088859 -23.120476
v -1.584492 -4.808685 -24.536177
v -3.355208 -5.756812 -24.944847
v -3.801156 -4.762805 -23.543001
v -3.371533 -5.813003 -25.237553
v -3.722150 -7.271842 -23.395456
v -4.070071 -5.841747 -22.476011
v -3.779353 -7.518489 -23.495926
vt 0.713989 0.364117
vt 0.783441 0.409219
vt 0.712386 0.438411
vt 0.987502 0.221239
vt 0.940448 0.212941
vt 0.940448 0.152724
vt 0.987502 0.161022
vt 0.508622 0.415778
vt 0.531802 0.353052
vt 0.577482 0.414118
vt 0.642934 0.393309
vt 0.619753 0.415778
vt 0.600662 0.351392
vt 0.642934 0.353052
vt 0.643468 0.317724
vt 0.554981 0.288866
vt 0.597253 0.290526
vt 0.713989 0.288866
vt 0.916813 0.291099
vt 0.971989 0.288866
vt 0.971989 0.351860
vt 0.916813 0.354093
vt 0.486708 0.290609
vt 0.783441 0.333577
vt 1.000000 0.527168
vt 0.960083 0.524949
vt 0.960083 0.459821
vt 1.000000 0.462039
vt 0.463293 0.353010
vt 0.945254 0.078688
vt 0.889844 0.078159
vt 0.889844 0.000000
vt 0.945254 0.000530
vt 0.797659 0.054898
vt 0.828849 0.099029
vt 0.766364 0.107982
vt 0.520946 0.636920
vt 0.463293 0.626814
vt 0.463293 0.581123
vt 0.520946 0.591230
vt 0.761905 0.155105
vt 0.742501 0.202856
vt 0.709664 0.155619
vt 0.734021 0.063879
vt 0.657994 0.152724
vt 0.689315 0.203514
vt 0.637646 0.200618
vt 0.764792 0.009718
vt 0.721872 0.251882
vt 0.670203 0.248986
vt 0.828849 0.000000
vt 0.350268 0.624932
vt 0.282701 0.627759
vt 0.282701 0.578411
vt 0.350268 0.575584
vt 0.775501 0.251882
vt 0.520946 0.631150
vt 0.520946 0.581123
vt 0.569864 0.633627
vt 0.573900 0.545591
vt 0.641762 0.546239
vt 0.573900 0.605931
vt 0.569864 0.583600
vt 0.641762 0.606580
vt 0.573786 0.075251
vt 0.643238 0.120353
vt 0.572183 0.149545
vt 0.777771 0.593991
vt 0.729658 0.585506
vt 0.729659 0.525289
vt 0.777771 0.533774
vt 0.328082 0.415794
vt 0.351211 0.353060
vt 0.396941 0.414111
vt 0.502730 0.104443
vt 0.440163 0.415794
vt 0.420070 0.351377
vt 0.463293 0.353060
vt 0.503264 0.028858
vt 0.374338 0.288866
vt 0.417561 0.290549
vt 0.573785 0.000000
vt 0.913675 0.379037
vt 0.970092 0.376754
vt 0.970092 0.439749
vt 0.913675 0.442032
vt 0.306066 0.290632
vt 0.643238 0.044710
vt 0.948969 0.078688
vt 0.989783 0.080956
vt 0.989783 0.146084
vt 0.948969 0.143816
vt 0.282701 0.353040
vt 0.403022 0.415794
vt 0.459678 0.416335
vt 0.459678 0.494494
vt 0.403022 0.493952
vt 0.091280 0.769050
vt 0.090757 0.002350
vt 0.114202 0.000000
vt 0.112651 0.767595
vt 0.159274 0.001208
vt 0.159274 0.767442
vt 0.783441 0.997821
vt 0.784393 0.288866
vt 0.811669 0.289989
vt 0.811669 1.000000
vt 0.016601 0.574999
vt 0.056761 0.000820
vt 0.090757 0.000000
vt 0.053644 0.574049
vt 0.282701 0.000793
vt 0.282701 0.776883
vt 0.237265 0.776577
vt 0.237098 0.000000
vt 0.159274 0.674994
vt 0.162841 0.005611
vt 0.203566 0.000000
vt 0.202947 0.669143
vt 0.237098 0.003346
vt 0.237098 0.673415
vt 0.036355 0.610267
vt 0.012003 0.605403
vt 0.000000 0.584042
vt 0.882259 0.242384
vt 0.907061 0.283225
vt 0.878124 0.260065
vt 0.934652 0.283225
vt 0.957596 0.267064
vt 0.090757 0.587244
vt 0.956498 0.237818
vt 0.069891 0.604567
vt 0.913163 0.231620
vt 0.681720 0.551800
vt 0.652280 0.575937
vt 0.642934 0.544853
vt 0.919149 0.596381
vt 0.902347 0.567837
vt 0.976894 0.568810
vt 0.967115 0.596381
vt 0.904434 0.544351
vt 0.953747 0.543973
vt 0.811669 0.562736
vt 0.822961 0.564384
vt 0.837257 0.587422
vt 0.831966 0.593291
vt 0.928538 0.080004
vt 0.948969 0.145491
vt 0.889844 0.145491
vt 0.891584 0.078688
vt 0.889844 0.130596
vt 0.828849 0.009675
vt 0.690457 0.525289
vt 0.452037 0.573027
vt 0.415671 0.584974
vt 0.387529 0.535781
vt 0.433523 0.540305
vt 0.815672 0.611120
vt 0.887912 0.593420
vt 0.901317 0.611120
vt 0.880570 0.587392
vt 0.960083 0.514361
vt 0.895635 0.520555
vt 0.919082 0.463730
vt 0.575496 0.535482
vt 0.641762 0.415778
vt 0.641762 0.545591
vt 0.729658 0.544502
vt 0.416938 0.504134
vt 0.452037 0.518553
vt 0.734021 0.107982
vt 0.776149 0.122813
vt 0.776149 0.147893
vt 0.734079 0.144579
vt 0.892251 0.564328
vt 0.902347 0.562383
vt 0.964138 0.064411
vt 0.945254 0.000000
vt 0.992923 0.000209
vt 0.992923 0.064270
vt 0.643238 0.107593
vt 0.734021 0.000000
vt 0.699498 0.119725
vt 0.706309 0.575709
vt 0.814086 0.473106
vt 0.854924 0.459821
vt 0.854317 0.509927
vt 0.811669 0.506405
vt 0.895635 0.472352
vt 0.894612 0.505217
vt 0.856285 0.550239
vt 0.855907 0.543973
vt 0.463764 0.524818
vt 0.565424 0.511158
vt 0.563652 0.552936
vt 0.463293 0.550228
vt 0.734021 0.132337
vt 0.724289 0.596127
vt 0.647367 0.596127
vt 0.895635 0.528938
vt 0.856110 0.543973
vt 0.565424 0.581123
vt 0.464314 0.568089
vt 0.940448 0.231620
vt 0.878124 0.158592
vt 0.365049 0.224128
vt 0.380931 0.152724
vt 0.478437 0.203641
vt 0.913675 0.459821
vt 0.811853 0.439746
vt 0.811669 0.381236
vt 0.913675 0.376754
vt 0.642934 0.459593
vt 0.757222 0.438411
vt 0.757222 0.525289
vt 0.643181 0.514723
vt 0.392881 0.000000
vt 0.405896 0.082954
vt 0.282701 0.058464
vt 0.435651 0.288866
vt 0.916813 0.376754
vt 0.815146 0.370086
vt 0.811669 0.308811
vt 0.916813 0.288866
vt 0.776438 0.156050
vt 0.878124 0.152724
vt 0.878124 0.248353
vt 0.775501 0.215768
vt 0.331937 0.152723
vt 0.311871 0.288866
vt 0.594470 0.286073
vt 0.491713 0.286073
vt 0.478437 0.233101
vt 0.572653 0.210591
vt 0.318805 0.575584
vt 0.282701 0.504134
vt 0.387529 0.504327
vt 0.387529 0.575182
vt 0.468601 0.152724
vt 0.282701 0.203520
vt 0.478837 0.198120
vt 0.572323 0.161970
vt 0.463293 0.447588
vt 0.575496 0.415778
vt 0.575496 0.511158
vt 0.463981 0.506717
vt 0.502730 0.055266
vt 0.388172 0.499582
vt 0.403022 0.504134
vt 0.581760 0.152724
vt 0.381929 0.418960
vt 0.627460 0.222414
vt 0.391401 0.415794
vt 0.637646 0.220574
vn -0.999400 -0.022000 0.025800
vn -0.640600 0.701800 -0.311500
vn -0.617100 0.017100 -0.786700
vn 0.592200 0.729000 -0.343300
vn 0.574300 0.043300 -0.817500
vn 0.999400 0.022000 -0.025800
vn -0.612500 -0.698500 -0.370100
vn 0.622700 -0.671300 -0.402000
vn -0.592500 -0.727700 0.345600
vn 0.640900 -0.700500 0.313800
vn -0.574700 -0.044700 0.817100
vn 0.617500 -0.018500 0.786400
vn -0.622600 0.669300 0.405400
vn 0.612700 0.696500 0.373500
vn -0.826300 0.476800 0.299900
vn -0.579600 0.813800 0.042700
vn -0.617900 0.020200 -0.786000
vn 0.544800 0.838500 0.013600
vn 0.575100 0.046400 -0.816800
vn 0.818900 0.512900 0.257500
vn -0.612300 -0.695700 -0.375500
vn 0.622100 -0.668600 -0.407400
vn -0.592900 -0.729800 0.340400
vn 0.641100 -0.702700 0.308500
vn -0.539100 0.332400 0.773900
vn 0.563200 0.356600 0.745400
vn 0.652800 -0.754300 0.069800
vn 0.848700 0.460800 0.259600
vn 0.431700 0.478900 0.764400
vn 0.243500 -0.789700 0.563100
vn -0.212900 0.552100 0.806200
vn -0.393700 -0.646200 0.653800
vn -0.641500 0.692000 0.331000
vn -0.828900 -0.541200 0.141500
vn -0.571300 0.777300 -0.263400
vn -0.767800 -0.454100 -0.452000
vn 0.070900 0.698000 -0.712600
vn -0.106000 -0.461400 -0.880800
vn 0.739500 0.582300 -0.337700
vn 0.578800 -0.645800 -0.498000
vn -0.560100 0.647700 0.516400
vn -0.335300 0.043800 0.941100
vn 0.209500 0.641800 0.737700
vn 0.037900 -0.644800 0.763400
vn 0.846200 0.185400 0.499500
vn 0.427500 -0.898900 0.095800
vn 0.921700 -0.370300 -0.115500
vn 0.496700 -0.864900 0.072500
vn 0.891600 -0.421800 -0.164700
vn 0.435000 -0.899700 -0.035600
vn 0.816300 -0.526400 -0.237900
vn -0.040800 0.995800 0.081700
vn 0.478000 0.737500 -0.477100
vn 0.713200 -0.041300 -0.699800
vn 0.743800 -0.106100 -0.659900
vn 0.710700 -0.171300 -0.682300
vn -0.754400 0.635800 -0.163000
vn -0.549800 0.257800 -0.794500
vn 0.025000 -0.373000 -0.927500
vn 0.133900 -0.366200 -0.920800
vn 0.105800 -0.424800 -0.899100
vn -0.932000 0.076900 0.354200
vn -0.813400 -0.581500 -0.016800
vn -0.138300 -0.882100 -0.450300
vn -0.114100 -0.899400 -0.422000
vn 0.013900 -0.903800 -0.427800
vn -0.714200 0.184700 0.675200
vn -0.915700 -0.175800 -0.361300
vn -0.958700 0.038400 -0.281700
vn -0.845400 0.346100 0.406800
vn -0.438300 0.740300 0.509900
vn -0.096900 -0.900500 0.424000
vn 0.957100 -0.015500 0.289300
vn 0.457400 -0.803600 -0.380800
vn -0.617000 -0.449700 0.645800
vn -0.247700 0.715400 0.653400
vn 0.611000 0.469900 -0.637100
vn 0.343000 0.036100 0.938700
vn -0.676200 0.470600 0.566800
vn -0.346900 -0.022200 -0.937700
vn 0.517700 -0.204900 0.830600
vn -0.260200 0.377900 0.888600
vn -0.405800 -0.902000 0.147500
usemtl Material
s 1
f 1/1/1 2/2/2 3/3/3
f 2/4/2 4/5/4 5/6/5
f 2/4/2 5/6/5 3/7/3
f 4/8/4 6/9/6 5/10/5
f 1/1/1 3/3/3 7/11/7
f 3/12/3 5/10/5 8/13/8
f 3/12/3 8/13/8 7/14/7
f 5/10/5 6/9/6 8/13/8
f 1/1/1 7/11/7 9/15/9
f 7/14/7 8/13/8 10/16/10
f 7/14/7 10/16/10 9/17/9
f 8/13/8 6/9/6 10/16/10
f 1/1/1 9/15/9 11/18/11
f 9/19/9 10/20/10 12/21/12
f 9/19/9 12/21/12 11/22/11
f 10/16/10 6/9/6 12/23/12
f 1/1/1 11/18/11 13/24/13
f 11/25/11 12/26/12 14/27/14
f 11/25/11 14/27/14 13/28/13
f 12/23/12 6/9/6 14/29/14
f 1/1/1 13/24/13 2/2/2
f 13/30/13 14/31/14 4/32/4
f 13/30/13 4/32/4 2/33/2
f 14/29/14 6/9/6 4/8/4
f 15/34/15 16/35/16 17/36/17
f 16/37/16 18/38/18 19/39/19
f 16/37/16 19/39/19 17/40/17
f 18/41/18 20/42/20 19/43/19
f 15/34/15 17/36/17 21/44/21
f 17/45/17 19/43/19 22/46/22
f 17/45/17 22/46/22 21/47/21
f 19/43/19 20/42/20 22/46/22
f 15/34/15 21/44/21 23/48/23
f 21/47/21 22/46/22 24/49/24
f 21/47/21 24/49/24 23/50/23
f 22/46/22 20/42/20 24/49/24
f 15/34/15 23/48/23 25/51/25
f 23/52/23 24/53/24 26/54/26
f 23/52/23 26/54/26 25/55/25
f 24/49/24 20/42/20 26/56/26
f 16/57/16 15/58/15 18/59/18
f 25/60/25 26/61/26 15/62/15
f 18/59/18 15/58/15 20/63/20
f 26/61/26 20/64/20 15/62/15
f 27/65/1 28/66/2 29/67/3
f 28/68/2 30/69/4 31/70/5
f 28/68/2 31/70/5 29/71/3
f 30/72/4 32/73/6 31/74/5
f 27/65/1 29/67/3 33/75/7
f 29/76/3 31/74/5 34/77/8
f 29/76/3 34/77/8 33/78/7
f 31/74/5 32/73/6 34/77/8
f 27/65/1 33/75/7 35/79/9
f 33/78/7 34/77/8 36/80/10
f 33/78/7 36/80/10 35/81/9
f 34/77/8 32/73/6 36/80/10
f 27/65/1 35/79/9 37/82/11
f 35/83/9 36/84/10 38/85/12
f 35/83/9 38/85/12 37/86/11
f 36/80/10 32/73/6 38/87/12
f 27/65/1 37/82/11 39/88/13
f 37/89/11 38/90/12 40/91/14
f 37/89/11 40/91/14 39/92/13
f 38/87/12 32/73/6 40/93/14
f 27/65/1 39/88/13 28/66/2
f 39/94/13 40/95/14 30/96/4
f 39/94/13 30/96/4 28/97/2
f 40/93/14 32/73/6 30/72/4
f 41/98/27 42/99/28 43/100/29
f 41/98/27 43/100/29 44/101/30
f 44/101/30 43/100/29 45/102/31
f 44/101/30 45/102/31 46/103/32
f 46/104/32 45/105/31 47/106/33
f 46/104/32 47/106/33 48/107/34
f 48/108/34 47/109/33 49/110/35
f 48/108/34 49/110/35 50/111/36
f 50/112/36 49/113/35 51/114/37
f 50/112/36 51/114/37 52/115/38
f 52/116/38 51/117/37 53/118/39
f 52/116/38 53/118/39 54/119/40
f 54/119/40 53/118/39 42/120/28
f 54/119/40 42/120/28 41/121/27
f 41/122/27 44/123/30 46/124/32
f 42/125/28 45/126/31 43/127/29
f 41/122/27 46/124/32 48/108/34
f 42/125/28 47/128/33 45/126/31
f 41/122/27 48/108/34 50/111/36
f 42/125/28 49/129/35 47/128/33
f 41/122/27 50/111/36 52/130/38
f 42/125/28 51/131/37 49/129/35
f 41/122/27 52/130/38 54/132/40
f 42/125/28 53/133/39 51/131/37
f 55/134/41 56/135/42 57/136/43
f 56/137/42 58/138/44 59/139/45
f 56/137/42 59/139/45 57/140/43
f 58/138/44 60/141/46 61/142/47
f 58/138/44 61/142/47 59/139/45
f 60/143/46 62/144/48 63/145/49
f 60/143/46 63/145/49 61/146/47
f 62/147/48 64/148/50 65/149/51
f 62/147/48 65/149/51 63/150/49
f 64/32/50 55/151/41 65/152/51
f 55/134/41 57/136/43 66/153/52
f 57/154/43 59/155/45 67/156/53
f 57/154/43 67/156/53 66/157/52
f 59/158/45 61/146/47 68/159/54
f 59/158/45 68/159/54 67/160/53
f 61/146/47 63/145/49 69/161/55
f 61/146/47 69/161/55 68/159/54
f 63/27/49 65/162/51 70/163/56
f 63/27/49 70/163/56 69/164/55
f 65/165/51 55/166/41 70/167/56
f 55/134/41 66/153/52 71/168/57
f 66/157/52 67/156/53 72/169/58
f 66/157/52 72/169/58 71/170/57
f 67/171/53 68/172/54 73/173/59
f 67/171/53 73/173/59 72/174/58
f 68/159/54 69/161/55 74/175/60
f 68/159/54 74/175/60 73/176/59
f 69/177/55 70/178/56 75/179/61
f 69/177/55 75/179/61 74/180/60
f 70/181/56 55/182/41 75/183/61
f 55/134/41 71/168/57 76/184/62
f 71/185/57 72/186/58 77/187/63
f 71/185/57 77/187/63 76/188/62
f 72/186/58 73/189/59 78/190/64
f 72/186/58 78/190/64 77/187/63
f 73/176/59 74/175/60 79/191/65
f 73/176/59 79/191/65 78/192/64
f 74/193/60 75/194/61 80/195/66
f 74/193/60 80/195/66 79/196/65
f 75/183/61 55/182/41 80/197/66
f 55/134/41 76/184/62 56/135/42
f 76/184/62 77/198/63 58/199/44
f 76/184/62 58/199/44 56/135/42
f 77/187/63 78/190/64 60/200/46
f 77/187/63 60/200/46 58/201/44
f 78/192/64 79/191/65 62/144/48
f 78/192/64 62/144/48 60/143/46
f 79/196/65 80/195/66 64/202/50
f 79/196/65 64/202/50 62/203/48
f 80/6/66 55/204/41 64/205/50
f 81/206/67 82/207/68 83/208/69
f 82/209/68 84/210/70 85/211/71
f 82/209/68 85/211/71 83/212/69
f 84/213/70 86/214/72 87/215/73
f 84/213/70 87/215/73 85/216/71
f 86/217/72 88/218/74 87/219/73
f 81/206/67 83/208/69 89/220/75
f 83/221/69 85/222/71 90/223/76
f 83/221/69 90/223/76 89/224/75
f 85/225/71 87/226/73 91/227/77
f 85/225/71 91/227/77 90/228/76
f 87/219/73 88/218/74 91/229/77
f 81/206/67 89/220/75 92/230/78
f 89/231/75 90/232/76 93/233/79
f 89/231/75 93/233/79 92/234/78
f 90/235/76 91/236/77 94/237/80
f 90/235/76 94/237/80 93/238/79
f 91/229/77 88/218/74 94/239/80
f 81/206/67 92/230/78 95/240/81
f 92/234/78 93/233/79 96/241/82
f 92/234/78 96/241/82 95/242/81
f 93/243/79 94/244/80 97/245/83
f 93/243/79 97/245/83 96/246/82
f 94/239/80 88/218/74 97/247/83
f 84/236/70 82/248/68 86/249/72
f 96/241/82 97/250/83 95/242/81
f 82/248/68 81/251/67 86/249/72
f 95/242/81 97/250/83 81/252/67
f 86/249/72 81/251/67 88/253/74
f 97/250/83 88/254/74 81/252/67
