# Blender v2.76 (sub 0) OBJ File: ''
# www.blender.org
mtllib femure_right.mtl
o RFEMUR01_RFEMUR01_WHITE_BONE
v -12.873484 -3.126987 -20.486395
v -12.395460 -3.641105 -20.624128
v -12.614057 -3.045807 -21.220566
v -12.430391 -4.333698 -21.017063
v -12.773539 -3.397346 -21.884184
v -12.974232 -4.568900 -21.354286
v -13.202700 -3.954808 -21.929523
v -13.106022 -4.481882 -21.346558
v -13.277863 -4.013224 -21.790104
v -13.559650 -5.820194 -22.230030
v -13.825001 -5.098258 -22.979361
v -13.264371 -2.703109 -20.926208
v -13.725262 -2.885330 -21.493460
v -13.823568 -3.610485 -21.655910
v -13.768612 -3.762539 -21.594597
v -14.656149 -4.652072 -22.625088
v -13.466333 -3.094673 -20.168457
v -14.021691 -3.489707 -20.312757
v -14.034843 -4.022724 -20.888885
v -13.907040 -4.054523 -21.004017
v -14.881049 -5.172297 -21.702652
v -12.917920 -3.674220 -19.960699
v -13.205459 -4.385499 -20.077337
v -13.506747 -4.611739 -20.701069
v -13.513110 -4.504187 -20.855967
v -14.219140 -5.871181 -21.463634
v -15.237482 -6.927669 -23.440071
v -13.637794 -7.487502 -23.189505
v -14.170481 -5.972770 -24.704731
v -13.285311 -6.043460 -22.258167
v -13.695944 -4.969959 -23.297140
v -13.544752 -7.721824 -23.273386
v -14.166218 -6.019969 -24.967512
v -15.307907 -7.043758 -23.553932
v -15.821002 -5.141044 -23.979385
v -14.836947 -4.367065 -22.796804
v -15.985471 -5.136394 -24.145000
v -16.258808 -6.165622 -22.043943
v -15.146856 -5.098925 -21.471647
v -16.446507 -6.250648 -22.022961
v -14.885740 -7.589857 -21.618563
v -14.176347 -6.114615 -21.176043
v -14.938443 -7.854174 -21.559761
v -10.362423 -24.277224 -24.956753
v -13.826248 -5.658870 -21.954710
v -14.095579 -5.760778 -21.621876
v -10.591715 -24.368738 -24.614479
v -14.842992 -5.906120 -21.628828
v -11.338921 -24.524065 -24.621910
v -15.121483 -5.906188 -21.951849
v -11.637607 -24.514584 -24.943930
v -15.037477 -5.808135 -22.490200
v -11.564339 -24.405813 -25.501513
v -14.521947 -5.636504 -22.916430
v -11.029747 -24.251308 -25.979155
v -13.951439 -5.585895 -22.478640
v -10.468491 -24.211870 -25.521624
v -12.738989 -24.710453 -25.915266
v -12.791664 -23.366142 -26.810619
v -12.789545 -24.639133 -27.813358
v -11.882187 -23.346140 -26.834091
v -11.880068 -24.619131 -27.836830
v -11.829512 -24.690451 -25.938738
v -12.736870 -25.983444 -26.918005
v -11.827393 -25.963442 -26.941477
v -12.685301 -26.066189 -24.990444
v -11.775824 -26.046186 -25.013916
v -12.687482 -24.802702 -23.998175
v -11.778005 -24.782700 -24.021646
v -12.739889 -23.458872 -24.883543
v -11.830412 -23.438869 -24.907015
v -11.649614 -24.686493 -25.943380
v -11.690383 -23.642349 -26.633163
v -11.688513 -24.616823 -27.391184
v -10.581020 -23.617950 -26.661797
v -10.579151 -24.592424 -27.419815
v -10.540253 -24.662094 -25.972012
v -11.647599 -25.680458 -26.712357
v -10.538237 -25.656059 -26.740990
v -11.608372 -25.741100 -25.244099
v -10.499008 -25.716702 -25.272730
v -11.609643 -24.758081 -24.455639
v -10.500280 -24.733683 -24.484270
v -10.350361 -24.657917 -25.976913
v -10.403037 -23.313606 -26.872267
v -10.400917 -24.586597 -27.875006
v -9.493560 -23.293602 -26.895739
v -9.491441 -24.566593 -27.898479
v -9.440885 -24.637913 -26.000385
v -10.348242 -25.930908 -26.979652
v -9.438765 -25.910904 -27.003124
v -10.297295 -25.983694 -25.050632
v -9.387817 -25.963690 -25.074106
v -10.298855 -24.750166 -24.059822
v -9.389378 -24.730162 -24.083296
v -10.351262 -23.406336 -24.945190
v -9.441785 -23.386332 -24.968664
vt 0.317868 0.729777
vt 0.343993 0.699462
vt 0.364040 0.740786
vt 0.885111 0.586664
vt 0.842147 0.589241
vt 0.845447 0.525333
vt 0.885850 0.544058
vt 0.803583 0.582266
vt 0.805438 0.540074
vt 0.848424 0.633409
vt 0.848232 0.641454
vt 0.813481 0.660554
vt 0.803257 0.658613
vt 0.804005 0.474175
vt 0.903702 0.472530
vt 0.904594 0.525333
vt 0.803257 0.506594
vt 0.611243 0.345093
vt 0.707496 0.196357
vt 0.648277 0.344647
vt 0.324064 0.763951
vt 0.436316 0.756875
vt 0.432733 0.789543
vt 0.376543 0.787602
vt 0.892366 0.734856
vt 0.960028 0.736690
vt 0.919378 0.755274
vt 0.436316 0.823782
vt 0.399549 0.821704
vt 0.823849 0.689405
vt 0.817036 0.696332
vt 0.990669 0.633409
vt 0.996431 0.716476
vt 0.947564 0.716476
vt 0.962159 0.634190
vt 0.707496 0.351617
vt 0.279658 0.737275
vt 0.960028 0.805468
vt 0.920099 0.799634
vt 0.804196 0.720313
vt 0.873028 0.696314
vt 0.889144 0.720313
vt 0.865914 0.689415
vt 0.734763 0.793065
vt 0.710822 0.720854
vt 0.775352 0.725805
vt 0.775352 0.796878
vt 0.707497 0.352280
vt 0.773796 0.196357
vt 0.773796 0.357631
vt 0.291351 0.696857
vt 0.701175 0.722251
vt 0.710822 0.757324
vt 0.637543 0.757894
vt 0.653143 0.720854
vt 0.686497 0.788182
vt 0.638927 0.788182
vt 0.881058 0.660120
vt 0.892366 0.657440
vt 0.962641 0.436189
vt 0.962641 0.521721
vt 0.904594 0.521616
vt 0.926814 0.437243
vt 0.570663 0.688304
vt 0.630682 0.534046
vt 0.630682 0.701270
vt 0.885850 0.617698
vt 0.841801 0.633409
vt 0.364040 0.675063
vt 0.803257 0.613150
vt 0.803626 0.451249
vt 0.904594 0.436189
vt 0.433158 0.534979
vt 0.433158 0.645548
vt 0.376543 0.555396
vt 0.391329 0.287853
vt 0.472528 0.261222
vt 0.444488 0.372024
vt 0.647457 0.484626
vt 0.652370 0.394312
vt 0.702058 0.372024
vt 0.432264 0.645548
vt 0.432264 0.756875
vt 0.376543 0.750534
vt 0.458885 0.539530
vt 0.570663 0.534046
vt 0.570663 0.655394
vt 0.458601 0.614743
vt 0.279658 0.070465
vt 0.374053 0.107075
vt 0.313245 0.196357
vt 0.322937 0.372024
vt 0.556771 0.753104
vt 0.459871 0.739157
vt 0.458601 0.670782
vt 0.556771 0.655394
vt 0.905433 0.343292
vt 0.905433 0.433852
vt 0.803257 0.436189
vt 0.838986 0.343331
vt 0.448035 0.196357
vt 0.279658 0.261497
vt 0.905596 0.237634
vt 0.803257 0.210865
vt 0.804905 0.131390
vt 0.905596 0.122873
vt 0.803257 0.041827
vt 0.905884 0.000000
vt 0.905884 0.122873
vt 0.804997 0.119258
vt 0.494833 0.075007
vt 0.374174 0.196357
vt 0.904927 0.343292
vt 0.803257 0.337184
vt 0.803784 0.262233
vt 0.904927 0.237634
vt 0.638185 0.620831
vt 0.750981 0.609548
vt 0.750982 0.720854
vt 0.637543 0.691935
vt 0.388464 0.000000
vt 0.637543 0.495748
vt 0.637543 0.503389
vt 0.757050 0.495748
vt 0.742687 0.502985
vt 0.754119 0.487088
vt 0.747139 0.605637
vt 0.756352 0.495747
vt 0.757050 0.609548
vt 0.776995 0.910253
vt 0.776197 0.001843
vt 0.803257 0.000000
vt 0.803257 0.909091
vt 0.158405 0.000682
vt 0.158405 0.988561
vt 0.112135 0.989808
vt 0.112052 0.001437
vt 0.090592 0.987667
vt 0.089395 0.000000
vt 0.158405 0.868862
vt 0.162419 0.003873
vt 0.195595 0.000000
vt 0.192507 0.864118
vt 0.234949 0.007273
vt 0.234950 0.872465
vt 0.234950 1.000000
vt 0.235004 0.000416
vt 0.279658 0.000000
vt 0.279658 0.999990
vt 0.054345 0.043248
vt 0.089395 0.804114
vt 0.055422 0.804488
vt 0.018243 0.043516
vt 0.000000 0.033782
vt 0.009484 0.007530
vt 0.824383 0.787060
vt 0.882121 0.756474
vt 0.851869 0.787060
vt 0.033145 0.000000
vt 0.877432 0.734584
vt 0.066696 0.006317
vt 0.847334 0.720313
vt 0.089395 0.026628
vt 0.805021 0.727288
vt 0.803257 0.764871
vt 0.390060 0.454286
vt 0.412448 0.534979
vt 0.343928 0.533370
vt 0.988356 0.602443
vt 0.941047 0.613341
vt 0.941047 0.536231
vt 0.988356 0.525333
vt 0.776197 0.040100
vt 0.706393 0.096698
vt 0.705319 0.000000
vt 0.321539 0.452677
vt 0.302046 0.534979
vt 0.279658 0.454286
vt 0.635515 0.056597
vt 0.368040 0.372024
vt 0.326159 0.373633
vt 0.636052 0.154883
vt 0.435973 0.373742
vt 0.960443 0.320928
vt 0.904927 0.317906
vt 0.960443 0.240656
vt 0.706393 0.194533
vt 0.458601 0.454015
vt 1.000000 0.818555
vt 0.960028 0.821947
vt 0.960028 0.738248
vt 1.000000 0.734856
vt 0.776197 0.138445
vt 0.885850 0.526311
vt 0.941047 0.525333
vt 0.941047 0.625801
vt 0.885850 0.626779
vt 0.507027 0.260221
vt 0.488369 0.198002
vt 0.540600 0.198963
vt 0.516365 0.811985
vt 0.458601 0.825100
vt 0.458601 0.766219
vt 0.516365 0.753104
vt 0.376543 0.547162
vt 0.344350 0.604068
vt 0.313021 0.534979
vt 0.560199 0.261372
vt 0.591645 0.196357
vt 0.611243 0.258766
vt 0.279658 0.591837
vt 0.525808 0.323168
vt 0.576853 0.320562
vt 0.311896 0.661665
vt 0.472528 0.323168
vt 0.973303 0.126692
vt 0.973303 0.189460
vt 0.905596 0.185641
vt 0.376543 0.675063
vt 0.279658 0.833145
vt 0.279658 0.768052
vt 0.328420 0.829043
vt 0.630682 0.778833
vt 0.563353 0.780027
vt 0.328420 0.763951
vt 0.563353 0.702464
vt 0.569003 0.453353
vt 0.591391 0.534046
vt 0.522870 0.532437
vt 0.953193 0.077110
vt 0.905884 0.088009
vt 0.905884 0.010899
vt 0.953193 0.000000
vt 0.635515 0.040101
vt 0.565711 0.096698
vt 0.564637 0.000000
vt 0.500482 0.451744
vt 0.480989 0.534046
vt 0.458601 0.453353
vt 0.494833 0.056597
vt 0.548029 0.372024
vt 0.506148 0.373633
vt 0.496981 0.154705
vt 0.614916 0.372809
vt 0.960940 0.425221
vt 0.905433 0.422083
vt 0.960940 0.346430
vt 0.565711 0.194533
vt 0.637543 0.453082
vt 0.993165 0.083699
vt 0.953193 0.087091
vt 0.953193 0.003392
vt 0.993165 0.000000
vt 0.635515 0.138445
vt 0.892367 0.634387
vt 0.947564 0.633409
vt 0.947564 0.733877
vn 0.552400 0.679200 0.483300
vn 0.944800 0.119500 0.305000
vn 0.736300 0.648900 -0.191600
vn 0.832900 -0.550200 -0.059000
vn 0.495900 0.271100 -0.825000
vn 0.152800 -0.879200 -0.451400
vn -0.055500 -0.361900 -0.930600
vn 0.126000 -0.899500 -0.418300
vn -0.116900 -0.357700 -0.926500
vn 0.015100 -0.902900 -0.429700
vn -0.108000 -0.463800 -0.879300
vn 0.014100 0.995700 0.091300
vn -0.520900 0.712000 -0.470900
vn -0.738300 -0.018100 -0.674200
vn -0.796900 0.028600 -0.603400
vn -0.770900 -0.205400 -0.602900
vn -0.206300 0.637000 0.742800
vn -0.826700 0.166300 0.537500
vn -0.917400 -0.391800 -0.070000
vn -0.914500 -0.390700 -0.104900
vn -0.821400 -0.523400 -0.226600
vn 0.363000 0.076600 0.928600
vn 0.015900 -0.631800 0.775000
vn -0.384800 -0.916300 0.111400
vn -0.485600 -0.871600 0.067200
vn -0.421400 -0.906800 -0.006700
vn 0.754300 0.215000 0.620300
vn -0.459800 -0.222800 0.859600
vn -0.285000 0.013000 0.958400
vn 0.315000 0.294900 0.902100
vn 0.358700 0.816500 0.452300
vn 0.462000 -0.878800 0.119500
vn 0.285800 0.013300 -0.958200
vn -0.437900 -0.823200 -0.361300
vn 0.679400 -0.420600 0.601300
vn 0.552300 0.754800 0.354000
vn -0.677900 0.436000 -0.591900
vn 0.937900 0.093500 -0.334200
vn 0.407100 0.711200 0.573200
vn -0.933000 -0.079500 0.351100
vn 0.881900 -0.065800 -0.466900
vn 0.856400 0.366700 0.363400
vn 0.197800 -0.893300 0.403500
vn 0.862200 -0.500800 0.076300
vn 0.638600 0.713100 0.289100
vn 0.225200 0.561600 0.796200
vn 0.491500 -0.623500 0.608000
vn -0.422300 0.433400 0.796200
vn -0.180500 -0.787600 0.589200
vn -0.851700 0.435100 0.292000
vn -0.623900 -0.773500 0.111700
vn -0.780100 0.552800 -0.292900
vn -0.564200 -0.680000 -0.468400
vn -0.142100 0.697100 -0.702700
vn 0.071900 -0.458300 -0.885900
vn 0.495600 0.819300 -0.288400
vn 0.765500 -0.434300 -0.474700
vn -0.999400 -0.022000 0.025800
vn -0.640900 0.702200 -0.310100
vn -0.616900 0.018600 -0.786900
vn 0.592500 0.729400 -0.342000
vn 0.574100 0.044800 -0.817600
vn 0.999400 0.022000 -0.025800
vn -0.612500 -0.698500 -0.370100
vn 0.622700 -0.671300 -0.402000
vn -0.592800 -0.728100 0.344200
vn 0.641200 -0.700900 0.312400
vn -0.574500 -0.046200 0.817200
vn 0.617300 -0.020000 0.786500
vn -0.622600 0.669300 0.405400
vn 0.612700 0.696500 0.373500
vn -0.827400 0.473800 0.301400
vn -0.579100 0.813900 0.046600
vn -0.618600 0.023900 -0.785300
vn 0.544500 0.838600 0.017600
vn 0.575600 0.050100 -0.816200
vn 0.820300 0.510000 0.258900
vn -0.611100 -0.696100 -0.376900
vn 0.620900 -0.669000 -0.408700
vn -0.593800 -0.728900 0.340900
vn 0.642000 -0.701700 0.309000
vn -0.538900 0.330700 0.774700
vn 0.563100 0.354900 0.746300
vn -0.611100 -0.702200 -0.365200
vn 0.621700 -0.675100 -0.397000
vn -0.594900 -0.725900 0.345300
vn 0.643200 -0.698700 0.313300
vn -0.573600 -0.050600 0.817500
vn 0.616700 -0.024400 0.786800
usemtl Material
s 1
f 1/1/1 2/2/2 3/3/3
f 2/4/2 4/5/4 5/6/5
f 2/4/2 5/6/5 3/7/3
f 4/5/4 6/8/6 7/9/7
f 4/5/4 7/9/7 5/6/5
f 6/10/6 8/11/8 9/12/9
f 6/10/6 9/12/9 7/13/7
f 8/14/8 10/15/10 11/16/11
f 8/14/8 11/16/11 9/17/9
f 10/18/10 1/19/1 11/20/11
f 1/1/1 3/3/3 12/21/12
f 3/22/3 5/23/5 13/24/13
f 3/25/3 13/26/13 12/27/12
f 5/23/5 7/28/7 14/29/14
f 5/23/5 14/29/14 13/24/13
f 7/13/7 9/12/9 15/30/15
f 7/13/7 15/30/15 14/31/14
f 9/32/9 11/33/11 16/34/16
f 9/32/9 16/34/16 15/35/15
f 11/20/11 1/19/1 16/36/16
f 1/1/1 12/21/12 17/37/17
f 12/27/12 13/26/13 18/38/18
f 12/27/12 18/38/18 17/39/17
f 13/40/13 14/31/14 19/41/19
f 13/40/13 19/41/19 18/42/18
f 14/31/14 15/30/15 20/43/20
f 14/31/14 20/43/20 19/41/19
f 15/44/15 16/45/16 21/46/21
f 15/44/15 21/46/21 20/47/20
f 16/48/16 1/49/1 21/50/21
f 1/1/1 17/37/17 22/51/22
f 17/52/17 18/53/18 23/54/23
f 17/52/17 23/54/23 22/55/22
f 18/53/18 19/56/19 24/57/24
f 18/53/18 24/57/24 23/54/23
f 19/41/19 20/43/20 25/58/25
f 19/41/19 25/58/25 24/59/24
f 20/60/20 21/61/21 26/62/26
f 20/60/20 26/62/26 25/63/25
f 21/64/21 1/65/1 26/66/26
f 1/1/1 22/51/22 2/2/2
f 22/67/22 23/68/23 4/5/4
f 22/51/22 4/69/4 2/2/2
f 23/68/23 24/70/24 6/8/6
f 23/68/23 6/8/6 4/5/4
f 24/59/24 25/58/25 8/11/8
f 24/59/24 8/11/8 6/10/6
f 25/71/25 26/72/26 10/15/10
f 25/71/25 10/15/10 8/14/8
f 26/73/26 1/74/1 10/75/10
f 27/76/27 28/77/28 29/78/29
f 28/79/28 30/80/30 31/81/31
f 28/82/28 31/83/31 29/84/29
f 30/85/30 32/86/32 33/87/33
f 30/85/30 33/87/33 31/88/31
f 32/89/32 34/90/34 33/91/33
f 27/76/27 29/78/29 35/92/35
f 29/93/29 31/94/31 36/95/36
f 29/93/29 36/95/36 35/96/35
f 31/97/31 33/98/33 37/99/37
f 31/97/31 37/99/37 36/100/36
f 33/91/33 34/90/34 37/101/37
f 27/76/27 35/92/35 38/102/38
f 35/103/35 36/104/36 39/105/39
f 35/103/35 39/105/39 38/106/38
f 36/107/36 37/108/37 40/109/40
f 36/107/36 40/109/40 39/110/39
f 37/101/37 34/90/34 40/111/40
f 27/76/27 38/102/38 41/112/41
f 38/113/38 39/114/39 42/115/42
f 38/113/38 42/115/42 41/116/41
f 39/117/39 40/118/40 43/119/43
f 39/117/39 43/119/43 42/120/42
f 40/111/40 34/90/34 43/121/43
f 30/80/30 28/79/28 32/122/32
f 42/123/42 43/124/43 41/125/41
f 28/79/28 27/126/27 32/122/32
f 41/125/41 43/124/43 27/127/27
f 32/122/32 27/126/27 34/128/34
f 43/124/43 34/129/34 27/127/27
f 44/130/44 45/131/45 46/132/46
f 44/130/44 46/132/46 47/133/47
f 47/134/47 46/135/46 48/136/48
f 47/134/47 48/136/48 49/137/49
f 49/137/49 48/136/48 50/138/50
f 49/137/49 50/138/50 51/139/51
f 51/140/51 50/141/50 52/142/52
f 51/140/51 52/142/52 53/143/53
f 53/143/53 52/142/52 54/144/54
f 53/143/53 54/144/54 55/145/55
f 55/146/55 54/147/54 56/148/56
f 55/146/55 56/148/56 57/149/57
f 57/150/57 56/151/56 45/152/45
f 57/150/57 45/152/45 44/153/44
f 44/153/44 47/154/47 49/155/49
f 45/156/45 48/157/48 46/158/46
f 44/153/44 49/155/49 51/159/51
f 45/156/45 50/160/50 48/157/48
f 44/153/44 51/159/51 53/161/53
f 45/156/45 52/162/52 50/160/50
f 44/153/44 53/161/53 55/163/55
f 45/156/45 54/164/54 52/162/52
f 44/153/44 55/163/55 57/150/57
f 45/156/45 56/165/56 54/164/54
f 58/166/58 59/167/59 60/168/60
f 59/169/59 61/170/61 62/171/62
f 59/169/59 62/171/62 60/172/60
f 61/173/61 63/174/63 62/175/62
f 58/166/58 60/168/60 64/176/64
f 60/168/60 62/177/62 65/178/65
f 60/168/60 65/178/65 64/176/64
f 62/175/62 63/174/63 65/179/65
f 58/166/58 64/176/64 66/180/66
f 64/176/64 65/178/65 67/181/67
f 64/176/64 67/181/67 66/180/66
f 65/179/65 63/174/63 67/182/67
f 58/166/58 66/180/66 68/183/68
f 66/184/66 67/185/67 69/116/69
f 66/184/66 69/116/69 68/186/68
f 67/182/67 63/174/63 69/187/69
f 58/166/58 68/183/68 70/188/70
f 68/189/68 69/190/69 71/191/71
f 68/189/68 71/191/71 70/192/70
f 69/187/69 63/174/63 71/193/71
f 58/166/58 70/188/70 59/167/59
f 70/194/70 71/195/71 61/196/61
f 70/194/70 61/196/61 59/197/59
f 71/193/71 63/174/63 61/173/61
f 72/198/72 73/199/73 74/200/74
f 73/201/73 75/202/75 76/203/76
f 73/201/73 76/203/76 74/204/74
f 75/205/75 77/206/77 76/207/76
f 72/198/72 74/200/74 78/208/78
f 74/200/74 76/209/76 79/210/79
f 74/200/74 79/210/79 78/208/78
f 76/207/76 77/206/77 79/211/79
f 72/198/72 78/208/78 80/212/80
f 78/208/78 79/210/79 81/213/81
f 78/208/78 81/213/81 80/212/80
f 79/211/79 77/206/77 81/214/81
f 72/198/72 80/212/80 82/215/82
f 80/106/80 81/216/81 83/217/83
f 80/106/80 83/217/83 82/218/82
f 81/214/81 77/206/77 83/219/83
f 73/220/73 72/221/72 75/222/75
f 82/223/82 83/224/83 72/66/72
f 75/222/75 72/221/72 77/225/77
f 83/224/83 77/226/77 72/66/72
f 84/227/58 85/228/59 86/229/60
f 85/230/59 87/231/61 88/232/62
f 85/230/59 88/232/62 86/233/60
f 87/234/61 89/235/63 88/236/62
f 84/227/58 86/229/60 90/237/84
f 86/229/60 88/238/62 91/239/85
f 86/229/60 91/239/85 90/237/84
f 88/236/62 89/235/63 91/240/85
f 84/227/58 90/237/84 92/241/86
f 90/237/84 91/239/85 93/242/87
f 90/237/84 93/242/87 92/241/86
f 91/240/85 89/235/63 93/243/87
f 84/227/58 92/241/86 94/244/88
f 92/245/86 93/246/87 95/97/89
f 92/245/86 95/97/89 94/247/88
f 93/243/87 89/235/63 95/248/89
f 84/227/58 94/244/88 96/249/70
f 94/250/88 95/251/89 97/252/71
f 94/250/88 97/252/71 96/253/70
f 95/248/89 89/235/63 97/254/71
f 84/227/58 96/249/70 85/228/59
f 96/255/70 97/256/71 87/257/61
f 96/255/70 87/257/61 85/25/59
f 97/254/71 89/235/63 87/234/61
