# Blender v2.76 (sub 0) OBJ File: ''
# www.blender.org
mtllib genou_right.mtl
o RKNEE01_RKNEE01_WHITE_BONE
v -10.947077 -24.821329 -22.874056
v -9.518627 -25.240499 -23.323196
v -10.057356 -23.478624 -22.923485
v -10.956015 -24.776476 -23.182127
v -11.846682 -23.488495 -22.865871
v -12.407405 -25.245554 -23.215780
v -10.970659 -26.322685 -23.516531
vt 0.276589 0.504847
vt 0.500000 0.209893
vt 0.500000 0.830656
vt 1.000000 0.790107
vt 0.775826 0.502226
vt 1.000000 0.169343
vt 0.189903 1.000000
vt 0.689903 0.000000
vt 0.000000 0.487651
vt 0.500000 0.512349
vt 0.191495 0.000000
vt 0.691496 0.999998
vn 0.035800 -0.212800 0.976400
vn 0.943500 -0.286200 -0.167400
vn 0.587000 0.805300 0.083400
vn -0.035600 0.212400 -0.976500
vn -0.585300 0.801800 0.120300
vn -0.952500 -0.289000 -0.095800
vn -0.009400 -0.958800 -0.284000
usemtl WHITE_BONE
s 1
f 1/1/1 2/2/2 3/3/3
f 2/4/2 4/5/4 3/6/3
f 1/1/1 3/3/3 5/7/5
f 3/6/3 4/5/4 5/8/5
f 1/1/1 5/7/5 6/9/6
f 5/8/5 4/5/4 6/10/6
f 1/1/1 6/9/6 7/11/7
f 6/10/6 4/5/4 7/12/7
f 1/1/1 7/11/7 2/2/2
f 7/12/7 4/5/4 2/4/2
