# Blender v2.76 (sub 0) OBJ File: ''
# www.blender.org
mtllib genou_left.mtl
o LKNEE01_LKNEE01_WHITE_BONE
v -5.550179 -24.702625 -23.013344
v -4.141717 -25.122236 -23.461967
v -4.690441 -23.360580 -23.061998
v -5.559116 -24.657772 -23.321415
v -6.439789 -23.369572 -23.005417
v -7.000513 -25.126631 -23.355326
v -5.583755 -26.204201 -23.655561
vt 0.277176 0.493126
vt 0.500000 0.775000
vt 0.187613 1.000000
vt 1.000000 0.224997
vt 0.780453 0.510732
vt 0.687612 0.000000
vt 0.000000 0.524174
vt 0.500000 0.475827
vt 0.191522 0.000000
vt 0.691522 0.999998
vt 0.500000 0.154589
vt 1.000000 0.845410
vn 0.037100 -0.212400 0.976500
vn 0.944000 -0.284000 -0.167800
vn 0.582500 0.808600 0.083400
vn -0.035600 0.212400 -0.976500
vn -0.584200 0.802700 0.120300
vn -0.953200 -0.286900 -0.095800
vn -0.012300 -0.958800 -0.283800
usemtl Material
s 1
f 1/1/1 2/2/2 3/3/3
f 2/4/2 4/5/4 3/6/3
f 1/1/1 3/3/3 5/7/5
f 3/6/3 4/5/4 5/8/5
f 1/1/1 5/7/5 6/9/6
f 5/8/5 4/5/4 6/10/6
f 1/1/1 6/9/6 7/11/7
f 6/10/6 4/5/4 7/12/7
f 1/1/1 7/11/7 2/2/2
f 7/12/7 4/5/4 2/4/2
