# Blender v2.76 (sub 0) OBJ File: ''
# www.blender.org
mtllib mandibule.mtl
o MANDIBLE01_MANDIBLE01_WHITE_BONE
v -8.235721 23.216087 -17.610731
v -8.383072 23.055458 -17.253956
v -8.261280 23.101723 -17.535427
v -8.350758 23.425819 -17.237001
v -8.164991 23.513199 -17.718517
v -8.368621 23.257004 -17.685312
v -8.389560 23.277504 -17.703794
v -8.419008 23.409393 -17.957050
v -9.377349 24.569519 -16.483368
v -9.370317 24.355003 -16.393726
v -8.942410 24.368309 -16.484705
v -8.970175 24.593330 -16.593313
v -9.364655 23.969879 -16.502548
v -8.957006 23.983223 -16.602997
v -9.365389 23.855812 -16.628201
v -8.967465 23.868462 -16.718403
v -9.359529 23.585709 -16.631340
v -8.961544 23.607857 -16.711073
v -9.349232 23.288422 -16.485680
v -8.941521 23.311264 -16.575655
v -9.345794 22.916893 -16.669100
v -8.936273 22.946114 -16.683504
v -9.370921 23.241844 -16.978081
v -9.022907 23.262894 -17.056524
v -9.378800 23.746323 -16.853441
v -9.011395 23.759270 -16.962841
v -8.589946 24.418198 -16.742153
v -8.646949 24.631599 -16.830505
v -8.644188 24.041237 -16.838957
v -8.674697 23.916534 -16.964321
v -8.610710 23.657211 -16.958488
v -8.628825 23.350288 -16.832558
v -8.633035 22.983955 -16.920179
v -8.778355 23.287498 -17.252199
v -8.758007 23.815018 -17.177286
v -8.342252 24.474525 -17.176750
v -8.554399 24.692574 -17.220650
v -8.365438 24.096321 -17.234388
v -8.415132 23.969727 -17.329281
v -8.384225 23.709679 -17.322594
v -8.567894 23.347672 -17.575443
v -8.527082 23.865150 -17.491549
v -8.117520 24.574219 -17.688766
v -8.173718 24.786186 -17.747162
v -8.084432 24.187256 -17.748337
v -8.132784 24.058266 -17.793304
v -8.126925 23.788155 -17.796444
v -8.379477 23.938789 -17.912609
v -7.815786 24.680946 -18.312677
v -7.860649 24.890732 -18.321407
v -7.857742 24.280884 -18.340816
v -7.925278 24.150009 -18.355316
v -8.177682 24.017021 -18.405010
v -7.771749 24.778099 -18.849705
v -7.833903 24.963387 -18.773920
v -7.835518 24.390472 -18.937050
v -7.912304 24.248436 -18.931808
v -8.162683 24.092575 -18.922565
v -7.243343 24.796120 -20.846340
v -7.002408 24.799469 -20.812592
v -7.768787 23.697166 -19.683283
v -8.034647 23.702766 -19.705917
v -7.821797 24.222816 -18.924355
v -7.412923 25.229904 -19.235407
v -7.518939 26.765434 -19.041592
v -7.068021 26.661140 -19.829895
v -6.911250 27.303276 -20.574375
v -8.001189 23.610451 -18.181940
v -7.910080 23.938988 -18.500683
v -7.609267 25.218063 -19.215679
v -7.121543 27.318634 -20.567986
v -7.760143 26.762558 -19.085327
v -10.460016 23.053368 -17.478680
v -10.321959 23.012810 -17.203915
v -10.494423 23.166397 -17.552437
v -10.369597 23.381416 -17.184898
v -10.583602 23.460007 -17.656096
v -10.367472 23.213043 -17.633724
v -10.348434 23.234413 -17.653238
v -10.337906 23.367188 -17.907528
v -9.781928 24.349846 -16.463039
v -9.349730 24.355461 -16.394258
v -9.356761 24.569977 -16.483900
v -9.769715 24.575745 -16.572678
v -9.756546 23.965637 -16.582359
v -9.344068 23.970337 -16.503080
v -9.747017 23.851311 -16.698284
v -9.344801 23.856270 -16.628731
v -9.741096 23.590706 -16.690952
v -9.338942 23.586166 -16.631870
v -9.741061 23.293678 -16.555019
v -9.328644 23.288879 -16.486210
v -9.735813 22.928528 -16.662868
v -9.325206 22.917351 -16.669632
v -9.682528 23.248383 -17.039501
v -9.330344 23.242737 -16.979128
v -9.710994 23.743881 -16.944786
v -9.338223 23.747215 -16.854488
v -10.149050 24.383911 -16.701916
v -10.106110 24.599510 -16.792847
v -10.083361 24.009583 -16.801813
v -10.053905 23.886200 -16.928726
v -10.106050 23.624321 -16.919895
v -10.067998 23.318634 -16.795414
v -10.052219 22.952736 -16.883553
v -9.937689 23.262001 -17.222279
v -9.977306 23.788200 -17.145817
v -10.421057 24.428802 -17.123100
v -10.221241 24.655907 -17.177631
v -10.384277 24.051918 -17.182285
v -10.334028 23.927521 -17.279757
v -10.353093 23.666374 -17.271780
v -10.166975 23.312492 -17.534174
v -10.226106 23.827782 -17.447699
v -10.676050 24.517944 -17.622734
v -10.632305 24.732109 -17.683708
v -10.695131 24.129837 -17.680958
v -10.643541 24.003044 -17.728504
v -10.637681 23.732933 -17.731646
v -10.398316 23.894386 -17.860504
v -11.013948 24.610603 -18.230137
v -10.978857 24.822144 -18.240931
v -10.955961 24.212738 -18.260857
v -10.883578 24.084946 -18.278965
v -10.628473 23.963112 -18.341757
v -11.089842 24.705116 -18.764069
v -11.032064 24.893044 -18.691380
v -11.013691 24.320572 -18.855026
v -10.930570 24.182045 -18.853910
v -10.673441 24.037354 -18.857765
v -11.088280 23.624153 -19.597610
v -11.959558 24.690437 -20.684652
v -11.720770 24.697639 -20.730783
v -10.824444 23.641411 -19.633915
v -11.487581 25.140289 -19.130245
v -11.019360 24.152489 -18.841831
v -11.925230 26.554314 -19.704536
v -11.439286 26.679207 -18.940413
v -12.148239 27.188087 -20.439215
v -10.775195 23.549438 -18.110346
v -10.896964 23.873291 -18.423594
v -11.290152 25.137100 -19.120680
v -11.938774 27.212677 -20.443659
v -11.200766 26.686882 -18.996529
vt 0.498306 0.678898
vt 0.515092 0.732888
vt 0.493862 0.696398
vt 0.552925 0.701919
vt 0.517587 0.640507
vt 0.768535 0.905041
vt 0.737699 0.896837
vt 0.724453 0.859382
vt 0.773105 0.905324
vt 0.803221 0.928856
vt 0.550971 0.991824
vt 0.520853 0.998013
vt 0.514390 0.937835
vt 0.546968 0.933494
vt 0.475477 1.000000
vt 0.469839 0.942146
vt 0.679163 0.795019
vt 0.656793 0.793735
vt 0.647097 0.755549
vt 0.668557 0.755192
vt 0.466492 0.843974
vt 0.466073 0.879824
vt 0.412202 0.878213
vt 0.412312 0.843235
vt 0.469839 0.924864
vt 0.414388 0.922885
vt 0.464187 0.967473
vt 0.410885 0.967473
vt 0.756602 0.706872
vt 0.803221 0.744115
vt 0.779802 0.787125
vt 0.723549 0.751355
vt 0.908529 0.679895
vt 0.839953 0.684697
vt 0.837420 0.637444
vt 0.904151 0.637382
vt 0.722200 0.706872
vt 0.717800 0.655426
vt 0.519748 0.880783
vt 0.550971 0.881266
vt 0.716938 0.732877
vt 0.651087 0.707387
vt 0.696469 0.680975
vt 0.627914 0.709201
vt 0.359054 0.866246
vt 0.366701 0.830868
vt 0.365874 0.911527
vt 0.604502 0.810763
vt 0.558866 0.830868
vt 0.539411 0.785348
vt 0.583305 0.762742
vt 0.774437 0.829215
vt 0.716938 0.803392
vt 0.834426 0.590985
vt 0.904605 0.594062
vt 0.716938 0.600108
vt 0.534210 0.830868
vt 0.185332 0.850366
vt 0.185332 0.894754
vt 0.151498 0.878454
vt 0.619480 0.648927
vt 0.661753 0.621425
vt 0.598957 0.654884
vt 0.602344 0.725939
vt 0.573637 0.674212
vt 0.783899 0.879786
vt 0.835828 0.537415
vt 0.905287 0.541532
vt 0.721270 0.553017
vt 0.095106 0.924533
vt 0.056234 0.912167
vt 0.065700 0.857126
vt 0.095106 0.850366
vt 0.580915 0.577420
vt 0.624644 0.553553
vt 0.564561 0.587674
vt 0.537565 0.608850
vt 0.838907 0.481705
vt 0.908529 0.489609
vt 0.722468 0.463739
vt 0.640831 0.535647
vt 0.577760 0.469971
vt 0.598040 0.455579
vt 0.536077 0.503120
vt 0.522374 0.517517
vt 0.724741 0.376531
vt 0.843149 0.413762
vt 0.123584 0.856216
vt 0.151498 0.850366
vt 0.151498 0.917031
vt 0.124525 0.912857
vt 0.494008 0.442405
vt 0.539536 0.413626
vt 0.481018 0.460055
vt 0.610173 0.844187
vt 0.610173 0.959557
vt 0.559060 0.948662
vt 0.550971 0.830868
vt 0.699317 0.906656
vt 0.701182 0.850984
vt 0.710379 0.932786
vt 0.710379 0.830868
vt 0.973803 0.960820
vt 0.944041 0.972055
vt 0.941122 0.732986
vt 0.973803 0.719693
vt 0.478472 0.456033
vt 0.359054 0.430782
vt 0.547369 0.317905
vt 0.716938 0.217737
vt 0.362329 0.189501
vt 0.633565 0.126322
vt 0.629974 0.000000
vt 0.484989 0.581450
vt 0.488567 0.521242
vt 0.232960 0.930394
vt 0.222921 0.852867
vt 0.232960 0.850366
vt 0.934371 0.575917
vt 0.960622 0.719693
vt 0.908529 0.573357
vt 0.963639 0.696976
vt 0.972361 0.716093
vt 1.000000 0.000000
vt 1.000000 0.344013
vt 0.979587 0.002037
vt 0.980318 0.350322
vt 0.942435 0.377646
vt 0.972361 0.376531
vt 0.130216 0.129691
vt 0.151526 0.092968
vt 0.134926 0.147998
vt 0.189721 0.125459
vt 0.154505 0.187731
vt 0.810830 0.777459
vt 0.824843 0.742283
vt 0.854503 0.731631
vt 0.858939 0.730980
vt 0.888747 0.706872
vt 0.000000 0.905043
vt 0.053442 0.897634
vt 0.056234 0.929510
vt 0.005959 0.938913
vt 0.005673 0.858025
vt 0.056234 0.850366
vt 0.289373 0.081736
vt 0.302964 0.050025
vt 0.325060 0.048448
vt 0.310499 0.081708
vt 0.615783 0.926689
vt 0.665611 0.918539
vt 0.665861 0.954391
vt 0.616326 0.961662
vt 0.610173 0.882261
vt 0.661006 0.873583
vt 0.612842 0.837611
vt 0.665861 0.830868
vt 0.863879 0.840244
vt 0.888747 0.881279
vt 0.845585 0.922726
vt 0.810135 0.879726
vt 0.837604 0.054830
vt 0.840402 0.022414
vt 0.908907 0.023731
vt 0.123584 0.850366
vt 0.123584 0.919471
vt 0.095106 0.854575
vt 0.717896 0.034779
vt 0.722596 0.000000
vt 0.210465 0.850366
vt 0.210465 0.909801
vt 0.185332 0.905191
vt 0.185661 0.850504
vt 0.290732 0.125988
vt 0.359054 0.105175
vt 0.335933 0.152947
vt 0.268130 0.124942
vt 0.241303 0.105424
vt 0.263602 0.058713
vt 0.221308 0.066122
vt 0.244755 0.021578
vt 0.177043 0.042052
vt 0.198730 0.000000
vt 0.858417 0.800675
vt 0.803221 0.830598
vt 0.834570 0.096048
vt 0.904257 0.051524
vt 0.904653 0.089029
vt 0.716938 0.081822
vt 0.300417 0.211678
vt 0.351037 0.176442
vt 0.699317 0.876754
vt 0.665861 0.895680
vt 0.668430 0.830868
vt 0.257831 0.182755
vt 0.237959 0.177668
vt 0.211734 0.156153
vt 0.868289 0.752909
vt 0.836046 0.148547
vt 0.905442 0.141934
vt 0.721560 0.137306
vt 0.699317 0.966078
vt 0.280631 0.300673
vt 0.263158 0.280010
vt 0.322568 0.222789
vt 0.218501 0.253660
vt 0.202578 0.243852
vt 0.174964 0.220959
vt 0.839390 0.211030
vt 0.908907 0.199168
vt 0.722891 0.225235
vt 0.215762 0.363556
vt 0.236999 0.380101
vt 0.173803 0.328967
vt 0.160611 0.315120
vt 0.725414 0.316128
vt 0.843910 0.285320
vt 0.179429 0.423829
vt 0.205645 0.429505
vt 0.134125 0.394539
vt 0.121642 0.377387
vt 0.731618 0.376531
vt 0.852178 0.353410
vt 0.903307 0.706872
vt 0.895955 0.788652
vt 0.895170 0.732984
vt 0.903307 0.808806
vt 0.908529 0.961926
vt 0.911046 0.719693
vt 0.941122 0.731967
vt 0.941122 0.976116
vt 0.185901 0.518725
vt 0.000000 0.406507
vt 0.118038 0.379549
vt 0.273782 0.717273
vt 0.001885 0.649212
vt 0.359054 0.628619
vt 0.272847 0.850366
vt 0.122213 0.247967
vt 0.126782 0.310963
vt 0.222921 0.930462
vt 0.210465 0.930461
vt 0.215909 0.850366
vt 0.908907 0.149186
vt 0.952359 0.000000
vt 0.933908 0.145138
vt 0.244600 0.873186
vt 0.232960 0.868970
vt 0.244600 0.850366
vt 0.895170 0.706872
vt 0.895170 0.852908
vt 0.888747 0.831433
vt 0.979587 0.000000
vt 0.952359 0.344035
vt 0.958593 0.005205
vt 0.979587 0.342437
vt 0.919827 0.345866
vt 0.952359 0.344920
vn 0.923900 -0.008100 0.382600
vn 0.477200 -0.876400 0.064800
vn 0.725400 -0.667700 0.167400
vn 0.879300 0.065000 0.471800
vn 0.931200 -0.033300 0.362900
vn -0.468700 -0.794200 -0.386800
vn -0.274500 -0.863800 -0.422400
vn -0.914300 -0.130200 -0.383400
vn -0.056800 0.988700 0.138700
vn 0.214500 0.052300 0.975300
vn 0.403200 0.065500 0.912800
vn -0.017000 0.995700 0.091000
vn 0.218400 -0.495100 0.840900
vn 0.405500 -0.485800 0.774300
vn 0.205900 -0.410500 0.888300
vn 0.450100 -0.338700 0.826300
vn 0.184500 0.226500 0.956400
vn 0.391700 0.217900 0.893900
vn 0.168800 0.031600 0.985100
vn 0.409400 0.081500 0.908700
vn 0.028200 -0.984800 0.171600
vn 0.273200 -0.896500 0.348800
vn -0.206300 -0.294500 -0.933100
vn -0.379300 -0.360100 -0.852300
vn -0.278900 0.317700 -0.906300
vn -0.474900 0.290400 -0.830700
vn 0.718800 0.096500 0.688500
vn -0.006600 0.979000 0.203800
vn 0.671900 -0.450200 0.588100
vn 0.743100 -0.250100 0.620700
vn 0.714400 0.210300 0.667300
vn 0.703700 0.059800 0.708000
vn 0.379800 -0.906900 0.182300
vn -0.657500 -0.374200 -0.654000
vn -0.756500 0.204700 -0.621200
vn 0.842400 0.287900 0.455400
vn -0.344700 0.932300 -0.109600
vn 0.816000 -0.367400 0.446200
vn 0.835000 -0.249300 0.490500
vn 0.850100 0.166800 0.499500
vn -0.808600 -0.361700 -0.464000
vn -0.875700 0.164300 -0.454000
vn 0.860500 0.206600 0.465600
vn -0.093300 0.985300 0.143400
vn 0.905200 -0.221300 0.362700
vn 0.897800 -0.221600 0.380600
vn 0.919400 -0.007500 0.393300
vn -0.916600 0.242900 -0.317500
vn 0.960700 0.046600 0.273600
vn 0.131000 0.960600 0.245100
vn 0.946000 -0.281900 0.159800
vn 0.949200 -0.254500 0.185300
vn -0.921700 0.353700 -0.159100
vn 0.651200 0.249600 -0.716700
vn 0.079700 0.982400 -0.169100
vn 0.998800 0.026300 -0.041400
vn 0.922100 0.365900 -0.125600
vn -0.936600 0.349500 0.023900
vn 0.922100 0.365900 -0.125500
vn 0.128600 -0.421800 -0.897500
vn 0.758100 -0.348800 -0.551100
vn 0.756800 -0.622900 -0.198300
vn 0.042100 -0.735600 -0.676100
vn 0.848000 0.158100 0.505900
vn 0.716200 -0.061900 0.695100
vn 0.410700 -0.135300 0.901700
vn 0.921100 -0.155800 0.356700
vn 0.529400 0.061200 -0.846200
vn 0.963600 -0.121700 0.237900
vn 0.977500 -0.090600 0.190700
vn 0.091100 0.089500 0.991800
vn -0.062100 0.070300 0.995600
vn 0.998800 0.026200 -0.041300
vn -0.013300 0.096000 -0.995300
vn -0.176400 -0.099900 0.979200
vn -0.685800 -0.698700 0.203800
vn -0.434300 -0.896400 0.088300
vn -0.901700 -0.048200 0.429700
vn -0.855800 0.026800 0.516500
vn -0.908900 -0.073800 0.410400
vn 0.482200 -0.773400 -0.411400
vn 0.290200 -0.851400 -0.437000
vn 0.898200 -0.090400 -0.430200
vn -0.358100 0.048700 0.932400
vn -0.166100 0.044000 0.985100
vn 0.020400 0.990400 0.136700
vn -0.022100 0.995600 0.091100
vn -0.343300 -0.502300 0.793600
vn -0.152800 -0.503200 0.850500
vn -0.391500 -0.357200 0.848000
vn -0.141500 -0.418100 0.897300
vn -0.354300 0.201500 0.913200
vn -0.144700 0.219300 0.964900
vn -0.365200 0.064500 0.928700
vn -0.119000 0.025300 0.992600
vn -0.215200 -0.907200 0.361400
vn 0.023900 -0.984900 0.171700
vn 0.350300 -0.344000 -0.871200
vn 0.170700 -0.286200 -0.942800
vn 0.418300 0.310100 -0.853800
vn 0.217600 0.328600 -0.919100
vn -0.685900 0.065600 0.724800
vn -0.025900 0.978600 0.204300
vn -0.620300 -0.478600 0.621500
vn -0.698400 -0.281800 0.657900
vn -0.687600 0.179500 0.703500
vn -0.668200 0.029700 0.743400
vn -0.329600 -0.922500 0.200600
vn 0.638700 -0.345700 -0.687400
vn 0.713700 0.237000 -0.659100
vn -0.829700 0.251100 0.498600
vn 0.297300 0.946400 -0.126200
vn -0.775000 -0.402400 0.487300
vn -0.796900 -0.285200 0.532600
vn -0.829700 0.129800 0.542800
vn 0.798700 -0.326400 -0.505500
vn 0.843100 0.202100 -0.498300
vn -0.843600 0.169100 0.509600
vn 0.057200 0.988600 0.139500
vn -0.874700 -0.260500 0.408600
vn -0.866400 -0.260400 0.426100
vn -0.896700 -0.047400 0.440100
vn 0.887500 0.282600 -0.364000
vn -0.946500 0.004600 0.322800
vn -0.160200 0.954200 0.252700
vn -0.923200 -0.323000 0.208000
vn -0.926200 -0.295800 0.233700
vn 0.895900 0.393600 -0.206000
vn -0.697700 0.219900 -0.681800
vn -0.131400 0.977700 -0.163600
vn -0.999800 -0.017600 0.010200
vn -0.942600 0.324900 -0.077400
vn 0.920300 0.390400 -0.024000
vn -0.942600 0.324900 -0.077500
vn -0.737900 -0.655700 -0.159700
vn -0.769400 -0.382400 -0.511700
vn -0.156000 -0.428100 -0.890200
vn -0.044500 -0.737500 -0.673800
vn -0.676000 -0.092500 0.731000
vn -0.826900 0.121300 0.549200
vn -0.893800 -0.195800 0.403600
vn -0.357300 -0.152200 0.921500
vn -0.574500 0.037000 -0.817700
vn -0.943800 -0.163600 0.287100
vn -0.961400 -0.133200 0.240700
vn -0.043700 0.086500 0.995300
vn -0.826900 0.121300 0.549100
vn 0.110200 0.074100 0.991100
vn -0.999800 -0.017700 0.010200
vn -0.042200 0.095400 -0.994500
vn 0.230800 -0.090900 0.968700
usemtl WHITE_BONE
s 1
f 1/1/1 2/2/2 3/3/3
f 1/1/1 4/4/4 2/2/2
f 5/5/5 4/4/4 1/1/1
f 6/6/6 3/7/3 2/8/2
f 7/9/7 6/6/6 2/8/2
f 7/9/7 2/8/2 8/10/8
f 9/11/9 10/12/10 11/13/11
f 9/11/9 11/13/11 12/14/12
f 10/12/10 13/15/13 14/16/14
f 10/12/10 14/16/14 11/13/11
f 13/17/13 15/18/15 16/19/16
f 13/17/13 16/19/16 14/20/14
f 15/21/15 17/22/17 18/23/18
f 15/21/15 18/23/18 16/24/16
f 17/22/17 19/25/19 20/26/20
f 17/22/17 20/26/20 18/23/18
f 19/25/19 21/27/21 22/28/22
f 19/25/19 22/28/22 20/26/20
f 21/29/21 23/30/23 24/31/24
f 21/29/21 24/31/24 22/32/22
f 23/33/23 25/34/25 26/35/26
f 23/33/23 26/35/26 24/36/24
f 25/34/25 9/37/9 12/38/12
f 25/34/25 12/38/12 26/35/26
f 12/14/12 11/13/11 27/39/27
f 12/14/12 27/39/27 28/40/28
f 11/41/11 14/20/14 29/42/29
f 11/41/11 29/42/29 27/43/27
f 14/20/14 16/19/16 30/44/30
f 14/20/14 30/44/30 29/42/29
f 16/24/16 18/23/18 31/45/31
f 16/24/16 31/45/31 30/46/30
f 18/23/18 20/26/20 32/47/32
f 18/23/18 32/47/32 31/45/31
f 20/48/20 22/49/22 33/50/33
f 20/48/20 33/50/33 32/51/32
f 22/32/22 24/31/24 34/52/34
f 22/32/22 34/52/34 33/53/33
f 24/36/24 26/35/26 35/54/35
f 24/36/24 35/54/35 34/55/34
f 26/35/26 12/38/12 28/56/28
f 26/35/26 28/56/28 35/54/35
f 28/40/28 27/39/27 36/57/36
f 28/58/28 36/59/36 37/60/37
f 27/43/27 29/42/29 38/61/38
f 27/43/27 38/61/38 36/62/36
f 29/42/29 30/44/30 39/63/39
f 29/42/29 39/63/39 38/61/38
f 30/44/30 31/64/31 40/65/40
f 30/44/30 40/65/40 39/63/39
f 31/64/31 32/51/32 4/4/4
f 31/64/31 4/4/4 40/65/40
f 32/51/32 33/50/33 2/2/2
f 32/51/32 2/2/2 4/4/4
f 33/53/33 34/52/34 41/66/41
f 33/53/33 41/66/41 2/8/2
f 34/55/34 35/54/35 42/67/42
f 34/55/34 42/67/42 41/68/41
f 35/54/35 28/56/28 37/69/37
f 35/54/35 37/69/37 42/67/42
f 37/70/37 36/71/36 43/72/43
f 37/70/37 43/72/43 44/73/44
f 36/62/36 38/61/38 45/74/45
f 36/62/36 45/74/45 43/75/43
f 38/61/38 39/63/39 46/76/46
f 38/61/38 46/76/46 45/74/45
f 39/63/39 40/65/40 47/77/47
f 39/63/39 47/77/47 46/76/46
f 40/65/40 4/4/4 5/5/5
f 40/65/40 5/5/5 47/77/47
f 2/8/2 41/66/41 8/10/8
f 41/68/41 42/67/42 48/78/48
f 41/68/41 48/78/48 8/79/8
f 42/67/42 37/69/37 44/80/44
f 42/67/42 44/80/44 48/78/48
f 44/81/44 43/75/43 49/82/49
f 44/81/44 49/82/49 50/83/50
f 43/75/43 45/74/45 51/84/51
f 43/75/43 51/84/51 49/82/49
f 45/74/45 46/76/46 52/85/52
f 45/74/45 52/85/52 51/84/51
f 48/78/48 44/80/44 50/86/50
f 48/78/48 50/86/50 53/87/53
f 50/88/50 49/89/49 54/90/54
f 50/88/50 54/90/54 55/91/55
f 49/82/49 51/84/51 56/92/56
f 49/82/49 56/92/56 54/93/54
f 51/84/51 52/85/52 57/94/57
f 51/84/51 57/94/57 56/92/56
f 53/95/53 50/96/50 55/97/55
f 53/95/53 55/97/55 58/98/58
f 54/99/54 56/100/56 55/101/55
f 56/100/56 57/102/59 55/101/55
f 59/103/60 60/104/61 61/105/62
f 59/103/60 61/105/62 62/106/63
f 63/107/64 61/108/62 64/109/65
f 65/110/66 60/111/61 66/112/67
f 67/113/68 66/112/67 60/111/61
f 64/109/65 61/108/62 60/111/61
f 65/110/66 64/109/65 60/111/61
f 3/3/3 68/114/69 1/1/1
f 1/1/1 68/114/69 5/5/5
f 5/5/5 68/114/69 69/115/70
f 3/3/3 61/108/62 68/114/69
f 68/114/69 61/108/62 69/115/70
f 69/115/70 61/108/62 63/107/64
f 52/85/52 69/115/70 63/107/64
f 52/116/52 63/117/64 57/118/57
f 47/77/47 5/5/5 69/115/70
f 52/85/52 47/77/47 69/115/70
f 52/85/52 46/76/46 47/77/47
f 70/119/71 63/120/64 64/121/65
f 56/122/72 57/123/72 63/120/64
f 56/122/73 63/120/64 70/119/71
f 67/124/68 60/125/61 71/126/74
f 60/125/61 59/127/60 71/126/74
f 65/128/66 70/119/71 64/121/65
f 70/119/71 65/128/66 72/129/75
f 73/130/76 74/131/77 75/132/78
f 74/131/77 76/133/79 75/132/78
f 75/132/78 76/133/79 77/134/80
f 74/135/77 73/136/76 78/137/81
f 74/135/77 78/137/81 79/138/82
f 80/139/83 74/135/77 79/138/82
f 81/140/84 82/141/85 83/142/86
f 84/143/87 81/140/84 83/142/86
f 85/144/88 86/145/89 82/141/85
f 81/140/84 85/144/88 82/141/85
f 87/146/90 88/147/91 86/148/89
f 85/149/88 87/146/90 86/148/89
f 89/150/92 90/151/93 88/152/91
f 87/153/90 89/150/92 88/152/91
f 91/154/94 92/155/95 90/151/93
f 89/150/92 91/154/94 90/151/93
f 93/156/96 94/157/97 92/155/95
f 91/154/94 93/156/96 92/155/95
f 95/158/98 96/159/99 94/160/97
f 93/161/96 95/158/98 94/160/97
f 97/162/100 98/163/101 96/164/99
f 95/165/98 97/166/100 96/167/99
f 84/168/87 83/169/86 98/163/101
f 97/162/100 84/168/87 98/163/101
f 99/170/102 81/171/84 84/172/87
f 100/173/103 99/170/102 84/172/87
f 101/174/104 85/149/88 81/175/84
f 99/176/102 101/174/104 81/175/84
f 102/177/105 87/146/90 85/149/88
f 101/174/104 102/177/105 85/149/88
f 103/178/106 89/179/92 87/146/90
f 102/177/105 103/178/106 87/146/90
f 104/180/107 91/181/94 89/179/92
f 103/178/106 104/180/107 89/179/92
f 105/182/108 93/183/96 91/181/94
f 104/180/107 105/182/108 91/181/94
f 106/184/109 95/158/98 93/161/96
f 105/185/108 106/184/109 93/161/96
f 107/186/110 97/162/100 95/187/98
f 106/188/109 107/186/110 95/187/98
f 100/189/103 84/168/87 97/162/100
f 107/186/110 100/189/103 97/162/100
f 108/190/111 99/176/102 100/191/103
f 109/192/112 108/193/111 100/194/103
f 110/195/113 101/174/104 99/176/102
f 108/190/111 110/195/113 99/176/102
f 111/196/114 102/177/105 101/174/104
f 110/195/113 111/196/114 101/174/104
f 112/197/115 103/178/106 102/177/105
f 111/196/114 112/197/115 102/177/105
f 76/133/79 104/180/107 103/178/106
f 112/197/115 76/133/79 103/178/106
f 74/131/77 105/182/108 104/180/107
f 76/133/79 74/131/77 104/180/107
f 113/198/116 106/184/109 105/185/108
f 74/135/77 113/198/116 105/185/108
f 114/199/117 107/186/110 106/188/109
f 113/200/116 114/199/117 106/188/109
f 109/201/112 100/189/103 107/186/110
f 114/199/117 109/201/112 107/186/110
f 115/202/118 108/193/111 109/192/112
f 116/203/119 115/204/118 109/205/112
f 117/206/120 110/195/113 108/190/111
f 115/204/118 117/206/120 108/190/111
f 118/207/121 111/196/114 110/195/113
f 117/206/120 118/207/121 110/195/113
f 119/208/122 112/197/115 111/196/114
f 118/207/121 119/208/122 111/196/114
f 77/134/80 76/133/79 112/197/115
f 119/208/122 77/134/80 112/197/115
f 80/139/83 113/198/116 74/135/77
f 120/209/123 114/199/117 113/200/116
f 80/210/83 120/209/123 113/200/116
f 116/211/119 109/201/112 114/199/117
f 120/209/123 116/211/119 114/199/117
f 121/212/124 115/204/118 116/203/119
f 122/213/125 121/212/124 116/203/119
f 123/214/126 117/206/120 115/204/118
f 121/212/124 123/214/126 115/204/118
f 124/215/127 118/207/121 117/206/120
f 123/214/126 124/215/127 117/206/120
f 122/216/125 116/211/119 120/209/123
f 125/217/128 122/216/125 120/209/123
f 126/218/129 121/212/124 122/213/125
f 127/219/130 126/218/129 122/213/125
f 128/220/131 123/214/126 121/212/124
f 126/218/129 128/220/131 121/212/124
f 129/221/132 124/215/127 123/214/126
f 128/220/131 129/221/132 123/214/126
f 127/222/130 122/216/125 125/217/128
f 130/223/133 127/222/130 125/217/128
f 127/224/130 128/225/131 126/226/129
f 127/224/130 129/227/134 128/225/131
f 131/228/135 132/229/136 133/230/137
f 134/231/138 131/228/135 133/230/137
f 135/232/139 131/233/135 136/234/140
f 137/235/141 132/236/136 138/237/142
f 132/236/136 137/235/141 139/238/143
f 132/236/136 131/233/135 135/232/139
f 132/236/136 135/232/139 138/237/142
f 75/132/78 140/239/144 73/130/76
f 77/134/80 140/239/144 75/132/78
f 141/240/145 140/239/144 77/134/80
f 140/239/144 131/233/135 73/130/76
f 141/240/145 131/233/135 140/239/144
f 136/234/140 131/233/135 141/240/145
f 136/234/140 141/240/145 124/215/127
f 129/241/132 136/242/140 124/243/127
f 141/240/145 77/134/80 119/208/122
f 141/240/145 119/208/122 124/215/127
f 119/208/122 118/207/121 124/215/127
f 135/244/139 136/245/140 142/246/146
f 136/247/147 129/248/148 128/249/148
f 142/250/146 136/251/140 128/252/149
f 143/253/150 132/254/136 139/255/143
f 143/253/150 133/256/137 132/254/136
f 138/257/142 135/244/139 142/246/146
f 144/258/151 138/257/142 142/246/146
