# Blender v2.76 (sub 0) OBJ File: ''
# www.blender.org
mtllib tibia_left.mtl
o LLOW_LEG01.001_LLOW_LEG01.001_WHITE_BONE.001
v -3.952129 -26.086346 -26.924522
v -5.027315 -28.519928 -26.267910
v -5.338772 -28.497820 -26.856886
v -4.641263 -26.080887 -27.332291
v -3.845620 -26.134586 -25.886024
v -5.127217 -26.205658 -24.971973
v -5.249875 -28.550938 -25.725708
v -6.499281 -28.584171 -25.575260
v -5.839907 -28.576832 -25.445099
v -6.811697 -26.225588 -25.280209
v -6.723283 -28.560051 -26.166187
v -7.220894 -26.197481 -26.034023
v -6.559437 -28.528894 -26.738554
v -7.166078 -26.144634 -27.098368
v -6.938834 -26.121469 -27.477425
v -5.911160 -28.501678 -27.021465
v -5.879966 -40.704556 -29.377392
v -6.308606 -40.721619 -29.209457
v -6.484941 -40.743732 -28.830315
v -6.374183 -40.762356 -28.400530
v -5.907249 -40.761051 -28.226330
v -5.393910 -40.737961 -28.484081
v -5.275156 -40.718540 -28.832462
v -5.413137 -40.703346 -29.203394
v -5.996952 -41.796944 -30.150118
v -6.614094 -41.832993 -29.672470
v -6.870607 -41.865162 -29.120899
v -6.709496 -41.892151 -28.495770
v -6.030310 -41.890396 -28.242422
v -5.283595 -41.856659 -28.617401
v -5.113349 -41.824280 -29.212114
v -6.191696 -42.894508 -28.477594
v -5.402155 -42.873512 -28.572609
v -6.659204 -42.857277 -29.443727
v -4.872416 -42.371731 -28.996555
v -5.505805 -42.443649 -30.276157
v -5.730455 -42.685043 -30.195807
v -6.372571 -42.826145 -29.961205
v -7.054667 -42.677628 -29.540134
v -7.240377 -42.761322 -29.243322
v -6.924453 -43.102211 -28.725792
v -7.145837 -42.409290 -29.098927
v -6.879477 -42.688892 -28.530544
v -6.767342 -42.492004 -29.709179
v -6.962679 -43.311058 -29.113289
v -6.875921 -43.328800 -28.938103
v -4.281340 -42.994434 -29.122620
v -4.271134 -43.139149 -28.850536
v -4.276066 -43.948166 -29.727203
v -4.284229 -43.461544 -29.628754
v -4.286097 -43.112450 -29.407495
v -4.258216 -43.507854 -28.664215
v -4.263894 -44.441975 -29.676378
v -4.246048 -44.001556 -28.613485
v -4.250875 -44.810585 -29.489956
v -4.237883 -44.488186 -28.711834
v -4.386091 -44.958393 -29.214212
v -4.235915 -44.837280 -28.933096
v -4.825715 -44.014309 -28.598526
v -4.817550 -44.500938 -28.696873
v -4.815582 -44.850029 -28.918135
v -4.572306 -44.955288 -29.188629
v -4.830542 -44.823334 -29.474995
v -4.843560 -44.454727 -29.661417
v -4.855733 -43.960918 -29.712242
v -4.525511 -44.961460 -29.210613
v -4.863895 -43.474293 -29.613792
v -4.837883 -43.520603 -28.649254
v -4.865764 -43.125198 -29.392534
v -4.850801 -43.151897 -28.835575
v -4.861007 -43.007183 -29.107660
v -4.656149 -42.171654 -28.828287
v -4.493377 -42.164749 -28.900732
v -4.429534 -42.155334 -29.066944
v -4.502215 -42.148918 -29.229733
v -4.668651 -42.149261 -29.293583
v -4.831527 -42.156162 -29.221233
v -4.895370 -42.165577 -29.055023
v -4.624691 -38.734180 -29.188709
v -4.787567 -38.741081 -29.116362
v -4.851307 -38.750496 -28.950054
v -4.458157 -38.733833 -29.124863
v -4.385575 -38.740250 -28.962072
v -4.778728 -38.756912 -28.787361
v -4.612190 -38.756569 -28.723415
v -4.449414 -38.749672 -28.795761
v -4.096496 -29.504303 -27.169451
v -3.886996 -29.477726 -27.260033
v -3.805614 -29.422863 -27.467794
v -3.899933 -29.371767 -27.671017
v -4.114793 -29.354517 -27.750744
v -4.324292 -29.381096 -27.660164
v -4.311452 -29.487062 -27.249077
v -4.405772 -29.436058 -27.452404
v -3.354162 -27.672750 -26.949724
v -3.532108 -27.419205 -27.239307
v -3.930093 -27.322382 -27.348946
v -4.314984 -27.438953 -27.214518
v -3.500457 -27.934525 -26.649822
v -3.885348 -28.051092 -26.515396
v -4.283336 -27.954266 -26.625132
v -4.461281 -27.700718 -26.914715
v -3.606074 -27.988253 -26.294634
v -3.745786 -27.854370 -26.391098
v -3.815625 -27.521608 -26.634706
v -3.774899 -27.185038 -26.882803
v -3.647343 -27.041779 -26.990105
v -3.507734 -27.175657 -26.893736
v -3.437898 -27.508320 -26.650124
v -3.478621 -27.844898 -26.401928
vt 0.498840 0.920225
vt 0.445147 0.800493
vt 0.488183 0.795754
vt 0.536920 0.918211
vt 0.938601 0.328982
vt 0.840216 0.205185
vt 0.938601 0.188494
vt 0.825892 0.136083
vt 0.795425 0.142633
vt 0.840216 0.000000
vt 0.187290 0.000000
vt 0.271330 0.135789
vt 0.231905 0.134274
vt 0.288499 0.003704
vt 0.000000 0.133270
vt 0.002918 0.000000
vt 0.039888 0.135156
vt 0.054074 0.001768
vt 0.077675 0.138974
vt 0.124898 0.007560
vt 0.149659 0.010704
vt 0.288499 0.007333
vt 0.336925 0.133432
vt 0.289592 0.134048
vt 0.426625 0.000000
vt 0.368021 0.131029
vt 0.975660 0.178995
vt 0.906710 0.188494
vt 1.000000 0.139335
vt 0.840216 0.120515
vt 0.853703 0.025951
vt 1.000000 0.011304
vt 0.973709 0.000000
vt 0.902351 0.000634
vt 0.382776 0.822801
vt 0.351973 0.823294
vt 0.128491 0.826660
vt 0.103611 0.823782
vt 0.074716 0.822137
vt 0.251382 0.829829
vt 0.225122 0.828194
vt 0.188594 0.135614
vt 0.840216 0.824869
vt 0.163431 0.139081
vt 0.187166 0.829458
vt 0.434550 0.113588
vt 0.454704 0.109977
vt 0.480790 0.106840
vt 0.407111 0.820663
vt 0.393953 0.888750
vt 0.343516 0.888403
vt 0.149659 0.889121
vt 0.113463 0.884933
vt 0.071437 0.882537
vt 0.274978 0.892577
vt 0.236781 0.890208
vt 0.181568 0.892038
vt 0.426625 0.050989
vt 0.461598 0.044905
vt 0.536920 0.038405
vt 0.246030 0.947423
vt 0.193748 0.947312
vt 0.125200 0.943055
vt 0.059762 0.940494
vt 0.149659 0.923920
vt 0.436655 0.016955
vt 0.527841 0.000000
vt 0.426625 0.924429
vt 0.410360 0.937553
vt 0.364495 0.944782
vt 0.850365 0.431902
vt 0.947393 0.418289
vt 0.945775 0.431902
vt 0.840216 0.394125
vt 0.911723 0.743440
vt 0.907377 0.726920
vt 0.928009 0.693679
vt 0.882994 0.644914
vt 0.903741 0.656026
vt 0.862602 0.676894
vt 0.292539 0.937596
vt 0.295140 0.916993
vt 0.334099 0.925257
vt 0.928008 0.758125
vt 0.917765 0.686932
vt 0.917765 0.644154
vt 0.888609 0.689547
vt 0.307250 0.883399
vt 0.146397 0.924473
vt 0.907377 0.726089
vt 0.862602 0.733357
vt 0.865732 0.695103
vt 0.288032 0.936533
vt 0.288499 0.961019
vt 0.281982 0.975451
vt 0.920586 0.688633
vt 0.940804 0.644154
vt 0.940804 0.676257
vt 0.917765 0.670739
vt 0.905518 0.328982
vt 0.929853 0.353146
vt 0.858034 0.352444
vt 0.918613 0.329031
vt 0.908963 0.693679
vt 0.940315 0.501973
vt 0.912297 0.492705
vt 0.940315 0.476364
vt 0.952328 0.380269
vt 0.912297 0.519707
vt 0.840216 0.519707
vt 0.885011 0.431902
vt 0.907377 0.693679
vt 0.107667 0.912769
vt 0.580937 0.888426
vt 0.599871 0.893809
vt 0.551559 0.946237
vt 0.553044 0.918697
vt 0.563796 0.897537
vt 0.615521 0.912246
vt 0.559743 0.972780
vt 0.623698 0.938784
vt 0.575401 0.991212
vt 0.622220 0.966325
vt 0.592052 0.996069
vt 0.611470 0.987485
vt 0.862603 0.765608
vt 0.881423 0.757508
vt 0.899900 0.765608
vt 0.751010 0.048559
vt 0.753550 0.021038
vt 0.790739 0.023202
vt 0.795425 0.002164
vt 0.758236 0.000000
vt 0.880047 0.747127
vt 0.899899 0.733357
vt 0.739592 0.998259
vt 0.703420 1.000000
vt 0.744001 0.979288
vt 0.707830 0.981029
vt 0.745105 0.952455
vt 0.708934 0.954195
vt 0.859937 0.755715
vt 0.840216 0.740355
vt 0.859937 0.724710
vt 0.862602 0.628643
vt 0.862603 0.597632
vt 0.886527 0.639996
vt 0.886528 0.586282
vt 0.919210 0.644154
vt 0.919210 0.582132
vt 0.631739 0.000000
vt 0.696132 0.004450
vt 0.643361 0.020762
vt 0.680544 0.023334
vt 0.661227 0.029303
vt 0.788199 0.050724
vt 0.766579 0.148193
vt 0.788482 0.077353
vt 0.778431 0.148402
vt 0.583449 0.840061
vt 0.573866 0.841404
vt 0.562138 0.842260
vt 0.720308 0.850209
vt 0.742600 0.924952
vt 0.711684 0.851008
vt 0.706429 0.926693
vt 0.699759 0.851198
vt 0.646363 0.074859
vt 0.657311 0.075982
vt 0.751293 0.075188
vt 0.840216 0.584305
vt 0.862602 0.519707
vt 0.862006 0.585634
vt 0.715459 0.661949
vt 0.703535 0.662139
vt 0.634653 0.263423
vt 0.623698 0.262300
vt 0.724090 0.661149
vt 0.536920 0.654969
vt 0.548646 0.654114
vt 0.645663 0.263816
vt 0.862602 0.724710
vt 0.758006 0.335606
vt 0.767281 0.336628
vt 0.558235 0.652770
vt 0.779132 0.336836
vt 0.768199 0.859047
vt 0.577390 0.134488
vt 0.565027 0.133821
vt 0.549912 0.132519
vt 0.731383 0.133742
vt 0.720198 0.133780
vt 0.704905 0.135017
vt 0.756166 0.858725
vt 0.668050 0.779681
vt 0.653908 0.781565
vt 0.639851 0.782515
vt 0.589258 0.035408
vt 0.565227 0.023485
vt 0.745105 0.022340
vt 0.723478 0.018565
vt 0.696132 0.024797
vt 0.608348 0.046211
vt 0.783398 0.860309
vt 0.795425 0.951260
vt 0.768159 0.944951
vt 0.745105 0.948237
vt 0.696132 0.868033
vt 0.674313 0.880898
vt 0.652509 0.892074
vt 0.877135 0.525492
vt 0.923494 0.519707
vt 0.915572 0.526830
vt 0.909985 0.548068
vt 0.935909 0.431902
vt 0.927531 0.453697
vt 0.912297 0.468908
vt 0.862602 0.544164
vt 0.909989 0.570973
vt 0.864512 0.567499
vt 0.915587 0.582132
vt 0.881746 0.581827
vt 0.731985 0.000000
vt 0.575507 0.000000
vt 0.585385 0.007036
vt 0.605345 0.023222
vt 0.623698 0.039077
vt 0.935909 0.475470
vt 0.919469 0.476364
vt 0.929088 0.530868
vt 0.929088 0.553777
vt 0.923499 0.575012
vt 0.430703 0.929763
vn 0.776000 -0.410400 -0.479000
vn 0.971400 -0.235400 0.029600
vn 0.604300 -0.128700 -0.786300
vn 0.275700 -0.578500 -0.767700
vn 0.763100 -0.578400 0.288200
vn 0.293600 -0.293600 0.909700
vn 0.724600 -0.211400 0.656000
vn -0.618000 -0.179600 0.765400
vn 0.095700 -0.219600 0.970900
vn -0.527300 -0.504100 0.684000
vn -0.991700 -0.113800 0.059000
vn -0.954100 -0.236200 0.183900
vn -0.778000 -0.097400 -0.620700
vn -0.884600 -0.352200 -0.305600
vn -0.457500 -0.269100 -0.847500
vn 0.015500 0.001400 -0.999900
vn 0.020800 -0.998600 -0.048500
vn 0.763100 -0.578500 0.288200
vn 0.020700 -0.998600 -0.048500
vn -0.884700 -0.352200 -0.305500
vn -0.031900 0.383000 -0.923200
vn -0.659600 0.302000 -0.688200
vn -0.980500 0.179900 -0.078600
vn -0.730700 -0.003400 0.682600
vn 0.075700 -0.118200 0.990100
vn 0.751500 -0.073800 0.655600
vn 0.997800 0.066700 -0.001100
vn 0.710000 0.241700 -0.661400
vn 0.270500 0.183200 -0.945100
vn -0.120500 0.267800 -0.955900
vn -0.718600 0.285900 -0.634000
vn -0.977000 0.211600 0.026100
vn -0.820600 0.038100 0.570200
vn 0.022500 -0.079200 0.996600
vn 0.728400 0.063600 0.682200
vn 0.924400 0.297500 -0.238900
vn -0.346600 -0.751400 0.561400
vn 0.455000 -0.730200 0.509600
vn -0.325400 -0.864500 -0.383000
vn -0.346600 -0.751400 0.561500
vn 0.974700 -0.194000 0.111200
vn 0.444000 -0.122100 -0.887700
vn 0.065600 -0.627400 -0.775900
vn -0.718600 0.285900 -0.633900
vn -0.303200 -0.654000 -0.693100
vn -0.295500 -0.445500 -0.845100
vn -0.916200 0.398800 -0.037700
vn -0.388900 -0.524400 0.757500
vn -0.867700 0.490600 -0.079500
vn -0.916300 0.398800 -0.037700
vn -0.559300 -0.098400 0.823100
vn -0.681900 0.009300 -0.731400
vn -0.598000 0.786900 -0.152200
vn -0.682000 0.009500 -0.731300
vn -0.312200 -0.907300 -0.281600
vn -0.295600 -0.445400 -0.845100
vn -0.388800 -0.524500 0.757500
vn -0.880600 -0.120600 0.458200
vn -0.559300 -0.098500 0.823100
vn -0.867800 0.490500 -0.079500
vn -0.908800 -0.355100 0.218900
vn -0.084300 -0.025500 0.996100
vn -0.049100 -0.984300 0.169400
vn -0.325300 -0.864600 -0.383000
vn 0.657200 -0.670700 -0.343900
vn -0.681900 0.009400 -0.731400
vn -0.746700 -0.605900 -0.274300
vn -0.862000 0.445800 0.241400
vn -0.836600 0.408400 -0.365200
vn -0.867800 0.490600 -0.079500
vn -0.815500 0.219500 -0.535500
vn 0.987900 0.153800 -0.019900
vn 0.974300 0.146200 0.171400
vn 0.704500 0.058400 -0.707300
vn 0.684400 0.171100 -0.708700
vn 0.969300 0.151500 -0.193600
vn 0.739600 0.101800 0.665400
vn 0.708000 -0.179400 -0.683100
vn 0.742600 -0.011300 0.669700
vn 0.671800 -0.605000 -0.427400
vn 0.748600 -0.263700 0.608400
vn 0.379400 -0.923800 -0.050600
vn 0.904700 -0.394900 0.159800
vn 0.685400 -0.726300 -0.053200
vn 0.671800 -0.605100 -0.427300
vn 0.999400 0.022300 -0.025800
vn 0.904800 -0.394800 0.159800
vn 0.999400 0.022000 -0.025900
vn 0.708000 -0.179300 -0.683100
vn 0.748600 -0.263600 0.608400
vn 0.704600 0.058300 -0.707200
vn 0.684500 0.171000 -0.708700
vn 0.999400 0.021800 -0.025900
vn 0.739500 0.101800 0.665400
vn 0.999400 0.022000 -0.025800
vn -0.387100 -0.044700 0.921000
vn -0.644100 -0.291700 0.707200
vn 0.748600 -0.263500 0.608400
vn -0.616600 -0.650700 0.443200
vn 0.011600 -0.999900 -0.005600
vn 0.671800 -0.605100 -0.427400
vn -0.634600 -0.620300 -0.461000
vn -0.681900 -0.224500 -0.696200
vn 0.704600 0.058400 -0.707200
vn -0.433500 0.047800 -0.899900
vn -0.387900 -0.921100 -0.033700
vn -0.226300 0.197900 -0.953700
vn -0.260200 0.100300 0.960300
vn -0.999400 0.010400 -0.033600
vn -0.999200 -0.039000 -0.004000
vn -0.999100 -0.035000 0.025200
vn 0.742600 -0.011400 0.669700
vn -0.176200 0.101200 0.979100
vn 0.733600 0.102400 0.671800
vn 0.987900 0.153700 -0.019900
vn 0.995600 0.093300 -0.012500
vn 0.696900 0.153700 -0.700500
vn -0.040100 0.174900 -0.983800
vn -0.743500 0.112100 -0.659300
vn -0.978200 0.060900 0.198600
vn -0.031800 0.091900 -0.995300
vn -0.720100 0.085300 -0.688600
vn -0.999500 0.029600 0.012700
vn 0.681600 0.035500 -0.730800
vn 0.997700 -0.042400 -0.052400
vn -0.698400 -0.047300 0.714200
vn 0.022600 -0.099800 0.994800
vn 0.730500 -0.094000 0.676400
vn 0.021800 -0.292800 0.955900
vn 0.726200 -0.287400 0.624500
vn 0.985700 -0.143600 -0.088000
vn 0.908000 0.010600 -0.418800
vn 0.662600 0.056100 -0.746900
vn -0.033000 0.174000 -0.984200
vn -0.720300 0.147700 -0.677700
vn -0.695300 -0.172800 0.697600
vn -0.999900 0.005100 0.014700
vn 0.991300 0.001800 -0.131600
vn 0.658700 0.303300 -0.688600
vn -0.094700 0.568100 -0.817500
vn -0.725100 0.586300 -0.361200
vn 0.778900 -0.537500 0.323100
vn -0.033400 -0.667900 0.743500
vn -0.633500 0.025800 0.773300
vn -0.905200 0.328800 0.269200
vn 0.405700 -0.503900 0.762500
vn -0.250600 0.440000 0.862300
vn -0.241800 0.571900 0.783900
vn -0.323700 0.699300 0.637300
vn 0.172700 0.984600 0.025800
vn 0.660500 0.680800 0.316700
vn 0.649900 0.463100 0.602700
vn 0.676000 -0.103700 0.729500
usemtl WHITE_BONE.001
s 1
f 1/1/1 2/2/2 3/3/3
f 4/4/4 1/1/1 3/3/3
f 2/5/2 5/6/5 6/7/6
f 7/8/7 2/9/2 6/10/6
f 6/11/6 8/12/8 9/13/9
f 8/12/8 6/11/6 10/14/10
f 8/15/8 10/16/10 11/17/11
f 11/17/11 10/16/10 12/18/12
f 11/17/11 12/18/12 13/19/13
f 12/18/12 14/20/14 13/19/13
f 13/19/13 14/20/14 15/21/15
f 15/22/15 16/23/16 13/24/13
f 15/22/15 4/25/4 16/23/16
f 4/25/4 3/26/3 16/23/16
f 1/27/17 5/28/18 4/29/17
f 4/29/4 5/28/17 6/30/19
f 4/29/4 6/30/19 10/31/19
f 4/29/19 10/31/10 15/32/19
f 15/32/19 10/31/10 14/33/17
f 14/33/20 10/31/17 12/34/17
f 16/23/16 17/35/21 18/36/22
f 16/23/16 18/36/22 13/24/13
f 13/19/13 18/37/22 11/17/11
f 11/17/11 18/37/22 19/38/23
f 11/17/11 19/38/23 20/39/24
f 11/17/11 20/39/24 8/15/8
f 20/40/24 9/13/9 8/12/8
f 9/13/9 20/40/24 21/41/25
f 21/41/25 7/42/7 9/13/9
f 21/43/25 2/9/2 7/8/7
f 2/44/2 21/41/25 22/45/26
f 2/2/2 22/46/26 23/47/27
f 2/2/2 23/47/27 24/48/28
f 2/2/2 24/48/28 3/3/3
f 3/26/3 24/49/28 17/35/21
f 3/26/29 17/35/29 16/23/16
f 17/35/21 25/50/30 26/51/31
f 18/36/22 17/35/21 26/51/31
f 18/37/22 26/52/31 27/53/32
f 18/37/22 27/53/32 19/38/23
f 19/38/23 27/53/32 28/54/33
f 20/39/24 19/38/23 28/54/33
f 21/41/25 20/40/24 28/55/33
f 28/55/33 29/56/34 21/41/25
f 29/56/34 22/45/26 21/41/25
f 22/45/26 29/56/34 30/57/35
f 30/58/35 23/47/27 22/46/26
f 23/47/27 30/58/35 31/59/36
f 24/48/28 23/47/27 31/59/36
f 17/35/21 24/49/28 25/50/30
f 31/59/36 25/60/30 24/48/28
f 32/61/37 33/62/38 29/56/34
f 29/56/34 33/62/38 30/57/35
f 28/55/33 32/61/37 29/56/34
f 34/63/39 32/64/40 28/54/33
f 27/53/32 34/63/39 28/54/33
f 33/62/38 35/65/41 30/57/35
f 30/58/35 35/66/41 31/59/36
f 35/66/41 36/67/42 31/59/36
f 36/67/42 25/60/30 31/59/36
f 25/50/30 36/68/42 26/51/31
f 26/51/31 36/68/42 37/69/43
f 26/51/44 37/69/43 38/70/45
f 35/71/41 37/72/43 36/73/42
f 35/71/41 33/74/38 37/72/43
f 39/75/46 40/76/47 41/77/48
f 42/78/49 40/79/50 43/80/51
f 40/81/50 42/82/49 44/83/52
f 39/75/53 40/76/53 44/84/54
f 45/85/55 40/79/50 39/86/56
f 45/85/55 41/87/57 40/79/50
f 41/87/58 43/80/59 40/79/58
f 44/83/52 42/82/60 28/88/33
f 44/89/52 28/54/61 27/53/61
f 42/90/49 43/91/51 28/92/33
f 43/93/51 32/61/62 28/55/62
f 43/93/51 41/94/57 32/61/37
f 41/94/57 46/95/63 32/61/37
f 44/96/52 45/97/55 39/98/56
f 34/99/64 45/97/55 44/96/52
f 46/100/63 34/101/65 32/102/65
f 45/103/55 34/101/64 46/100/63
f 41/87/57 45/85/55 46/104/63
f 26/52/44 44/89/66 27/53/32
f 26/51/44 38/70/45 44/83/52
f 44/105/52 38/106/45 34/107/64
f 34/101/64 38/108/45 32/102/37
f 32/102/37 37/72/43 33/74/38
f 26/109/67 37/110/67 32/111/37
f 27/112/32 42/90/68 28/92/68
f 26/52/69 42/113/70 27/53/69
f 44/83/71 42/82/71 26/51/31
f 38/108/45 37/72/43 32/102/37
f 47/114/72 48/115/73 49/116/74 50/117/75
f 50/117/75 51/118/76 47/114/72
f 48/115/73 52/119/77 53/120/78 49/116/74
f 52/119/77 54/121/79 55/122/80 53/120/78
f 54/121/79 56/123/81 57/124/82 55/122/80
f 56/123/81 58/125/83 57/124/82
f 58/126/84 57/127/84 55/128/85
f 53/120/86 58/125/87 55/122/86
f 56/123/88 58/125/88 53/120/89
f 49/116/88 56/123/90 53/120/88
f 54/121/88 56/123/88 49/116/91
f 50/117/88 54/121/79 49/116/88
f 52/119/88 54/121/88 50/117/92
f 51/118/93 52/119/94 50/117/93
f 48/115/95 52/119/95 51/118/76
f 47/114/95 48/115/95 51/118/76
f 59/129/96 60/130/97 56/131/98
f 56/131/98 60/130/97 58/132/87
f 60/130/97 61/133/99 58/132/87
f 58/126/87 61/91/99 57/127/82
f 61/91/99 62/134/100 57/127/82
f 57/127/82 62/134/100 55/128/101
f 62/134/100 63/135/102 55/128/101
f 55/136/101 63/137/102 53/138/78
f 63/137/102 64/139/103 53/138/78
f 53/138/78 64/139/103 49/140/104
f 64/139/103 65/141/105 49/140/104
f 63/142/102 66/143/106 61/144/99
f 63/145/102 61/146/99 64/147/103
f 64/147/103 61/146/99 60/148/97
f 64/147/103 60/148/97 65/149/105
f 65/149/105 60/148/97 59/150/96
f 67/151/107 68/152/108 69/153/109
f 69/153/109 68/152/108 70/154/110
f 69/153/109 70/154/110 71/155/111
f 59/129/96 54/156/112 72/157/113
f 54/156/112 52/158/94 72/157/113
f 52/158/94 73/159/114 72/157/113
f 52/119/94 48/115/73 73/160/114
f 73/160/114 48/115/73 47/114/115
f 73/160/114 47/114/115 74/161/116
f 74/161/116 47/114/115 75/162/117
f 47/114/115 51/118/76 75/162/117
f 51/118/76 50/117/92 75/162/117
f 75/163/117 50/164/92 76/165/118
f 50/164/92 49/140/104 76/165/118
f 49/140/104 65/141/105 76/165/118
f 76/165/118 65/141/105 67/166/107
f 76/165/118 67/166/107 77/167/119
f 77/168/119 67/151/107 69/153/109
f 69/153/109 71/155/111 78/169/120
f 77/168/119 69/153/109 78/169/120
f 71/155/111 70/154/110 78/169/120
f 70/154/110 68/152/108 78/169/120
f 68/170/108 59/129/96 72/157/113
f 78/171/120 68/172/108 72/173/113
f 59/129/96 56/131/98 54/156/112
f 77/167/119 79/174/121 76/165/118
f 80/175/122 79/174/121 77/167/119
f 81/176/123 80/177/122 78/169/120
f 79/174/121 82/178/124 75/163/117
f 76/165/118 79/174/121 75/163/117
f 75/162/117 82/179/124 74/161/116
f 82/179/124 73/160/114 74/161/116
f 82/179/124 83/180/125 73/160/114
f 78/169/120 84/181/126 81/176/123
f 78/171/120 72/173/113 84/182/126
f 78/169/120 80/177/122 77/168/119
f 84/183/126 72/157/113 85/184/127
f 86/185/128 73/160/114 83/180/125
f 86/186/128 85/184/127 73/159/114
f 85/184/127 72/157/113 73/159/114
f 87/187/129 85/184/127 86/186/128
f 86/185/128 83/180/125 88/188/130
f 83/180/125 89/189/131 88/188/130
f 90/190/132 89/189/132 83/180/125
f 82/179/124 90/190/133 83/180/125
f 90/191/133 82/178/124 91/192/134
f 91/192/134 82/178/124 79/174/121
f 91/192/134 79/174/121 92/193/135
f 87/187/129 93/194/136 85/184/127
f 93/194/136 84/183/126 85/184/127
f 93/195/136 94/196/137 84/181/126
f 94/196/137 81/176/123 84/181/126
f 94/196/137 92/197/135 81/176/123
f 80/177/122 81/176/123 92/197/135
f 92/193/135 79/174/121 80/175/122
f 95/198/138 90/190/133 96/199/139
f 96/200/139 90/191/133 97/201/140
f 90/191/133 91/192/134 97/201/140
f 91/192/134 98/202/141 97/201/140
f 89/189/131 90/190/133 95/198/138
f 89/189/131 95/198/138 99/203/142
f 88/188/130 89/189/131 99/203/142
f 88/204/130 99/205/142 100/206/143
f 87/187/129 88/204/130 100/206/143
f 100/206/143 93/194/136 87/187/129
f 93/194/136 100/206/143 101/207/144
f 93/195/136 101/208/144 102/209/145
f 93/195/136 102/209/145 94/196/137
f 102/209/145 92/197/135 94/196/137
f 98/210/141 92/197/135 102/209/145
f 98/202/141 91/192/134 92/193/135
f 101/211/144 103/212/146 104/213/147
f 101/211/144 104/213/147 105/214/148
f 101/215/144 100/216/143 103/217/146
f 102/218/145 101/211/144 105/214/148
f 106/219/149 102/218/145 105/214/148
f 98/220/141 102/218/145 106/219/149
f 98/220/141 106/219/149 107/221/150
f 107/221/150 97/222/140 98/220/141
f 96/200/139 97/201/140 107/223/150
f 96/199/139 107/224/150 108/225/151
f 108/225/151 95/198/138 96/199/139
f 108/225/151 109/226/152 95/198/138
f 95/198/138 109/226/152 110/227/153
f 110/227/153 99/203/142 95/198/138
f 86/186/128 88/204/130 87/187/129
f 100/216/143 99/228/142 110/229/153
f 103/217/146 100/216/143 110/229/153
f 110/230/153 104/213/147 103/212/146
f 105/214/148 104/213/147 110/230/153
f 109/231/152 105/214/148 110/230/153
f 106/219/149 105/214/148 109/231/152
f 108/232/151 106/219/149 109/231/152
f 107/221/150 106/219/149 108/232/151
f 5/233/5 2/2/2 1/1/1
f 6/11/6 9/13/9 7/42/7
