# Blender v2.76 (sub 0) OBJ File: ''
# www.blender.org
mtllib tibia_right.mtl
o RLOW_LEG01_RLOW_LEG01_WHITE_BONE
v -12.672916 -26.278156 -26.699450
v -11.459417 -28.661400 -26.101906
v -12.723517 -26.329853 -25.656897
v -11.180015 -28.626297 -26.706131
v -12.006630 -26.242886 -27.142200
v -11.394615 -26.343508 -24.810219
v -11.207951 -28.681984 -25.571938
v -10.603769 -28.681612 -25.322149
v -9.952297 -28.660120 -25.486141
v -9.729020 -26.289753 -25.204916
v -9.760338 -28.626850 -26.087805
v -9.360864 -26.244549 -25.978794
v -9.954686 -28.603571 -26.650927
v -9.472752 -26.195370 -27.038836
v -9.720036 -26.182642 -27.405645
v -10.617156 -28.605185 -26.900009
v -9.796601 -40.798340 -29.119438
v -10.233564 -40.800312 -29.265030
v -9.600151 -40.812252 -28.749916
v -9.687678 -40.835236 -28.315014
v -10.144614 -40.854252 -28.116968
v -10.671078 -40.854031 -28.347885
v -10.808375 -40.840240 -28.689657
v -10.690504 -40.819420 -29.067192
v -9.466854 -41.895737 -29.598845
v -10.108789 -41.887383 -30.043995
v -9.181079 -41.915981 -29.061268
v -9.308403 -41.949314 -28.428696
v -9.973043 -41.977116 -28.140665
v -10.738760 -41.976643 -28.476610
v -10.940800 -41.952454 -29.061714
v -10.573483 -42.987255 -28.439144
v -9.779934 -42.973434 -28.384987
v -9.365048 -42.916790 -29.373894
v -11.146010 -42.509720 -28.834641
v -10.576891 -42.555187 -30.145279
v -10.337907 -42.786385 -30.076893
v -9.679070 -42.898869 -29.875868
v -9.052630 -43.149017 -28.670866
v -8.779093 -42.795162 -29.203609
v -8.983358 -42.720051 -29.490356
v -9.105597 -42.737854 -28.473091
v -8.881439 -42.447464 -29.054132
v -9.286894 -42.547421 -29.644152
v -9.025294 -43.356426 -29.060055
v -9.102041 -43.377766 -28.880650
v -11.719524 -43.275944 -29.215647
v -11.717556 -43.625038 -29.436909
v -11.691744 -43.671352 -28.472364
v -11.704662 -43.302647 -28.658684
v -11.709394 -44.111664 -29.535357
v -11.679576 -44.165054 -28.421635
v -11.697222 -44.605469 -29.484531
v -11.671411 -44.651688 -28.519983
v -11.684302 -44.974079 -29.298107
v -11.669443 -45.000778 -28.741245
v -11.528686 -45.115494 -29.029869
v -11.714767 -43.157928 -28.930773
v -11.091743 -44.638935 -28.534945
v -11.099909 -44.152306 -28.436596
v -11.089776 -44.988029 -28.756205
v -11.341815 -45.104183 -29.013916
v -11.104635 -44.961330 -29.313068
v -11.117555 -44.592720 -29.499493
v -11.129727 -44.098911 -29.550318
v -11.389366 -45.112427 -29.033466
v -11.139857 -43.263195 -29.230608
v -11.112077 -43.658604 -28.487324
v -11.137890 -43.612286 -29.451868
v -11.124995 -43.289898 -28.673645
v -11.135101 -43.145180 -28.945732
v -11.361795 -42.319141 -28.655222
v -11.528334 -42.319481 -28.719168
v -11.601012 -42.313072 -28.881857
v -11.537172 -42.303650 -29.048168
v -11.374396 -42.296753 -29.120514
v -11.207862 -42.296410 -29.056667
v -11.135183 -42.302818 -28.893980
v -11.562904 -38.886784 -29.009644
v -11.396369 -38.886436 -28.945797
v -11.323687 -38.892853 -28.783009
v -11.725679 -38.893681 -28.937298
v -11.789519 -38.903099 -28.770985
v -11.387529 -38.902267 -28.616796
v -11.550303 -38.909172 -28.544350
v -11.716838 -38.909515 -28.608196
v -12.391228 -29.686743 -26.955374
v -12.606184 -29.669502 -27.035000
v -12.700502 -29.618504 -27.238228
v -12.619122 -29.563543 -27.445984
v -12.409626 -29.536959 -27.536665
v -12.194669 -29.554203 -27.457039
v -12.181728 -29.660168 -27.045954
v -12.100349 -29.605299 -27.253817
v -13.049637 -27.628540 -26.993671
v -13.201103 -27.889332 -26.695587
v -12.662474 -27.514448 -27.123573
v -12.266415 -27.613842 -27.009300
v -13.028181 -28.144085 -26.403923
v -12.632120 -28.243475 -26.289650
v -12.244860 -28.129377 -26.419655
v -12.093394 -27.868586 -26.717739
v -12.773598 -28.052935 -26.158102
v -12.902032 -28.192715 -26.054714
v -12.731100 -27.717703 -26.404608
v -12.799313 -27.383528 -26.649893
v -12.938402 -27.246132 -26.750313
v -13.066840 -27.385908 -26.647026
v -13.109339 -27.721041 -26.400515
v -13.041124 -28.055223 -26.155130
vt 0.499063 0.009376
vt 0.444398 0.129669
vt 0.430777 0.000000
vt 0.487310 0.134385
vt 0.536665 0.011506
vt 0.938602 0.328982
vt 0.840221 0.312293
vt 0.938602 0.188494
vt 0.840221 0.825366
vt 0.795063 0.682828
vt 0.825841 0.689238
vt 0.187282 0.975451
vt 0.188594 0.839837
vt 0.231896 0.841176
vt 0.271321 0.839662
vt 0.288490 0.971747
vt 0.039886 0.807900
vt 0.002918 0.943056
vt 0.000000 0.809786
vt 0.054073 0.941288
vt 0.077672 0.804082
vt 0.124894 0.935496
vt 0.149655 0.932352
vt 0.289582 0.810734
vt 0.336908 0.811350
vt 0.288490 0.937449
vt 0.426611 0.944782
vt 0.368009 0.813753
vt 1.000000 0.049159
vt 0.906712 0.000000
vt 0.975660 0.009499
vt 0.840221 0.067979
vt 0.853708 0.162543
vt 1.000000 0.177190
vt 0.973710 0.188494
vt 0.902355 0.187860
vt 0.351962 0.121488
vt 0.382757 0.121981
vt 0.128487 0.116395
vt 0.103607 0.119274
vt 0.074713 0.120918
vt 0.251374 0.145621
vt 0.225114 0.147256
vt 0.840221 0.000000
vt 0.187159 0.145993
vt 0.163426 0.836370
vt 0.454711 0.820506
vt 0.434378 0.816992
vt 0.480768 0.823613
vt 0.407097 0.124120
vt 0.343504 0.056379
vt 0.393940 0.056032
vt 0.113459 0.058122
vt 0.149654 0.053935
vt 0.071434 0.060519
vt 0.274970 0.082873
vt 0.236773 0.085243
vt 0.181568 0.083413
vt 0.426611 0.879602
vt 0.461861 0.885530
vt 0.536665 0.892102
vt 0.193747 0.028139
vt 0.246028 0.028028
vt 0.059759 0.002562
vt 0.125195 0.000000
vt 0.149655 0.051531
vt 0.437084 0.913485
vt 0.528043 0.930386
vt 0.426611 0.020353
vt 0.410340 0.007229
vt 0.364483 0.000000
vt 0.846774 0.431902
vt 0.845153 0.418284
vt 0.942181 0.431902
vt 0.952327 0.394120
vt 0.928011 0.761008
vt 0.907379 0.727768
vt 0.911725 0.711247
vt 0.862607 0.663822
vt 0.903745 0.684691
vt 0.882998 0.695802
vt 0.334088 0.019525
vt 0.295130 0.027789
vt 0.292530 0.007186
vt 0.928011 0.696562
vt 0.917768 0.696562
vt 0.917768 0.653785
vt 0.888613 0.651170
vt 0.307240 0.061384
vt 0.146392 0.018582
vt 0.865736 0.734815
vt 0.862607 0.696562
vt 0.907379 0.703830
vt 0.288023 0.038918
vt 0.288490 0.014432
vt 0.281974 0.000000
vt 0.933046 0.488746
vt 0.933046 0.520848
vt 0.912828 0.476370
vt 0.910008 0.494263
vt 0.934509 0.352439
vt 0.862695 0.353146
vt 0.887029 0.328982
vt 0.873936 0.329031
vt 0.908967 0.647038
vt 0.942985 0.647038
vt 0.942985 0.675490
vt 0.917768 0.661746
vt 0.840221 0.380269
vt 0.910008 0.522589
vt 0.840221 0.446890
vt 0.910008 0.431902
vt 0.907379 0.736239
vt 0.107664 0.030286
vt 0.563301 0.093742
vt 0.552498 0.072601
vt 0.615162 0.078892
vt 0.599485 0.097377
vt 0.550981 0.045053
vt 0.623336 0.052322
vt 0.559161 0.018478
vt 0.621825 0.024775
vt 0.574844 0.000000
vt 0.611022 0.003634
vt 0.862607 0.768490
vt 0.881084 0.760390
vt 0.899903 0.768495
vt 0.580500 0.102812
vt 0.790377 0.928058
vt 0.753189 0.930223
vt 0.750649 0.902701
vt 0.795063 0.949096
vt 0.757875 0.951261
vt 0.899903 0.736244
vt 0.882458 0.750015
vt 0.862607 0.736239
vt 0.743635 0.020712
vt 0.703049 0.000000
vt 0.739220 0.001740
vt 0.707464 0.018971
vt 0.744739 0.047545
vt 0.708568 0.045805
vt 0.859946 0.758592
vt 0.840221 0.742949
vt 0.859946 0.727586
vt 0.886530 0.589173
vt 0.862607 0.631538
vt 0.862607 0.600527
vt 0.886531 0.642888
vt 0.919213 0.585016
vt 0.919213 0.647038
vt 0.642998 0.871311
vt 0.695767 0.887623
vt 0.631377 0.892074
vt 0.680179 0.868740
vt 0.660863 0.862769
vt 0.766211 0.803068
vt 0.787838 0.900537
vt 0.788121 0.873908
vt 0.778069 0.802859
vt 0.583242 0.151117
vt 0.573570 0.149823
vt 0.561867 0.148973
vt 0.711318 0.148991
vt 0.742233 0.075047
vt 0.719943 0.149791
vt 0.706063 0.073307
vt 0.699394 0.148802
vt 0.646000 0.817215
vt 0.656947 0.816091
vt 0.750932 0.876072
vt 0.862007 0.661663
vt 0.862607 0.727586
vt 0.840221 0.662989
vt 0.715093 0.338051
vt 0.703169 0.337861
vt 0.623336 0.629774
vt 0.634290 0.628650
vt 0.723718 0.338850
vt 0.536665 0.336446
vt 0.548368 0.337296
vt 0.645299 0.628258
vt 0.862607 0.522589
vt 0.766912 0.614634
vt 0.757643 0.615654
vt 0.558046 0.338591
vt 0.778768 0.614424
vt 0.767830 0.092214
vt 0.577159 0.857294
vt 0.564685 0.858026
vt 0.549603 0.859335
vt 0.719832 0.866220
vt 0.731016 0.866258
vt 0.704533 0.864983
vt 0.755805 0.092536
vt 0.653544 0.110508
vt 0.667687 0.112393
vt 0.639489 0.109558
vt 0.564731 0.968518
vt 0.588677 0.956588
vt 0.723113 0.981435
vt 0.744739 0.977660
vt 0.695767 0.975203
vt 0.607948 0.945673
vt 0.767798 0.006309
vt 0.795063 0.000000
vt 0.783036 0.090951
vt 0.744739 0.003024
vt 0.673949 0.011175
vt 0.695767 0.024040
vt 0.652146 0.000000
vt 0.915581 0.577891
vt 0.923497 0.585016
vt 0.877139 0.579231
vt 0.909994 0.556654
vt 0.910008 0.439364
vt 0.925241 0.454570
vt 0.933619 0.476370
vt 0.862607 0.560559
vt 0.909997 0.533749
vt 0.864522 0.537223
vt 0.915595 0.522589
vt 0.881756 0.522894
vt 0.731619 1.000000
vt 0.584946 0.984929
vt 0.575161 0.991945
vt 0.604899 0.968705
vt 0.623336 0.952776
vt 0.917180 0.431902
vt 0.933619 0.432797
vt 0.929097 0.573853
vt 0.929097 0.550944
vt 0.923508 0.529710
vn -0.780900 -0.444600 -0.438900
vn -0.957300 -0.277900 0.079500
vn -0.788200 -0.496700 0.363500
vn -0.587500 -0.093600 -0.803800
vn -0.260100 -0.673900 -0.691500
vn -0.233100 -0.305200 0.923300
vn -0.679800 -0.242300 0.692200
vn -0.035800 -0.222500 0.974300
vn 0.663900 -0.151400 0.732300
vn 0.583500 -0.479600 0.655300
vn 0.997500 -0.070000 0.007700
vn 0.971800 -0.193900 0.134200
vn 0.748500 -0.063800 -0.660000
vn 0.882300 -0.313300 -0.351200
vn 0.424500 -0.249700 -0.870300
vn 0.003500 -0.046000 -0.998900
vn -0.260200 -0.673900 -0.691500
vn 0.020600 -0.998600 -0.048500
vn 0.020700 -0.998600 -0.048500
vn 0.583500 -0.479700 0.655300
vn 0.882400 -0.313300 -0.351100
vn 0.609400 0.329900 -0.721000
vn -0.032500 0.382900 -0.923200
vn 0.966300 0.222700 -0.128800
vn 0.764400 0.029500 0.644100
vn -0.019300 -0.120300 0.992600
vn -0.712700 -0.106000 0.693400
vn -0.998500 0.022700 0.050500
vn -0.753100 0.209500 -0.623700
vn -0.326600 0.170000 -0.929700
vn 0.671700 0.316500 -0.669800
vn 0.059200 0.271700 -0.960600
vn 0.966800 0.254300 -0.024100
vn 0.846500 0.074800 0.527200
vn 0.032400 -0.079000 0.996400
vn -0.694300 0.032300 0.719000
vn -0.947600 0.256300 -0.190500
vn -0.395600 -0.749000 0.531600
vn 0.407800 -0.734800 0.542000
vn 0.342900 -0.849800 -0.400200
vn 0.966800 0.254300 -0.024000
vn -0.958200 -0.236500 0.161200
vn -0.483400 -0.142500 -0.863700
vn -0.077900 -0.630600 -0.772200
vn 0.295500 -0.640800 -0.708500
vn 0.450100 -0.506000 0.735800
vn 0.894700 0.438600 -0.084500
vn 0.270900 -0.433000 -0.859700
vn 0.604800 -0.072800 0.793100
vn 0.894700 0.438700 -0.084400
vn 0.840100 0.528100 -0.123500
vn 0.642200 0.038400 -0.765600
vn 0.642300 0.038500 -0.765500
vn 0.554200 0.812300 -0.182000
vn 0.894700 0.438700 -0.084500
vn 0.336800 -0.893100 -0.298300
vn 0.450000 -0.506000 0.735800
vn 0.907500 -0.081300 0.412000
vn 0.846500 0.074800 0.527100
vn 0.840100 0.528100 -0.123600
vn 0.642200 0.038500 -0.765600
vn 0.933600 -0.314600 0.171300
vn 0.846400 0.074800 0.527200
vn 0.136600 -0.020600 0.990400
vn 0.604800 -0.072800 0.793000
vn 0.101000 -0.981000 0.165500
vn 0.342800 -0.849900 -0.400200
vn -0.644000 -0.699300 -0.310200
vn 0.966800 0.254400 -0.024100
vn 0.407700 -0.734800 0.542000
vn 0.407700 -0.734900 0.542000
vn 0.757500 -0.572800 -0.313100
vn 0.852900 0.483500 0.197100
vn 0.797900 0.444400 -0.407400
vn 0.776400 0.254500 -0.576600
vn -0.988900 0.089400 -0.118600
vn -0.832800 0.109100 -0.542700
vn -0.655300 0.077300 0.751400
vn -0.969700 0.103400 0.221500
vn -0.822100 0.018700 -0.569000
vn -0.652700 -0.044200 0.756300
vn -0.655300 0.077400 0.751400
vn -0.822100 0.018600 -0.569000
vn -0.789600 -0.194100 -0.582100
vn -0.644200 -0.291800 0.707100
vn -0.652700 -0.044100 0.756300
vn -0.647100 -0.583700 -0.490500
vn -0.639400 -0.651600 0.408100
vn -0.644100 -0.291800 0.707100
vn -0.647100 -0.583800 -0.490400
vn -0.196500 -0.977900 -0.071800
vn -0.639400 -0.651600 0.408200
vn -0.999400 -0.022100 0.025600
vn -0.999400 -0.022000 0.025700
vn -0.999400 -0.021900 0.025700
vn -0.999400 -0.022000 0.025600
vn -0.999400 -0.022100 0.025900
vn -0.996700 0.075000 0.029800
vn -0.644100 -0.291900 0.707000
vn 0.691900 -0.262300 0.672700
vn 0.435700 -0.026600 0.899700
vn 0.666600 -0.622500 0.410100
vn 0.032100 -0.999500 -0.006100
vn 0.636700 -0.592300 -0.493800
vn 0.654200 -0.195000 -0.730700
vn 0.384100 0.065800 -0.921000
vn 0.425600 -0.903200 -0.054700
vn 0.994900 0.054300 -0.085500
vn 0.305100 0.112700 0.945600
vn 0.167900 0.206500 -0.963900
vn 0.998400 0.004900 -0.055400
vn 0.999600 0.008900 -0.026200
vn 0.222000 0.110000 0.968800
vn -0.652700 -0.044200 0.756400
vn -0.701800 0.070800 0.708900
vn -0.998000 0.049400 0.038900
vn -0.738200 0.122100 -0.663500
vn -0.988900 0.089400 -0.118500
vn -0.832800 0.109000 -0.542800
vn -0.018400 0.175400 -0.984300
vn 0.702900 0.143900 -0.696600
vn 0.983500 0.104000 0.147900
vn -0.023700 0.092100 -0.995500
vn 0.679000 0.116100 -0.724900
vn 0.996600 0.073400 -0.038400
vn -0.719200 0.004700 -0.694800
vn -0.996200 -0.086800 0.002100
vn 0.735600 -0.015800 0.677300
vn 0.033400 -0.099500 0.994500
vn -0.689700 -0.125300 0.713100
vn 0.040600 -0.292300 0.955500
vn -0.679600 -0.318400 0.660900
vn -0.981700 -0.186900 -0.037200
vn -0.928000 -0.029700 -0.371400
vn -0.601600 0.043600 -0.797600
vn -0.025500 0.174200 -0.984400
vn 0.677300 0.178500 -0.713700
vn 0.737300 -0.141300 0.660600
vn 0.998100 0.049000 -0.036700
vn -0.706000 0.273300 -0.653400
vn -0.995900 -0.041900 -0.080300
vn 0.027400 0.570700 -0.820700
vn 0.679000 0.617300 -0.397500
vn -0.736900 -0.570800 0.362200
vn 0.101000 -0.665100 0.739900
vn 0.670800 0.054400 0.739700
vn 0.902600 0.368600 0.222500
vn 0.275100 0.451700 0.848700
vn -0.343100 -0.520400 0.782000
vn 0.256500 0.582900 0.771000
vn 0.325100 0.713600 0.620600
vn -0.214200 0.976100 0.035700
vn -0.672600 0.651400 0.351100
vn -0.637600 0.434800 0.635900
vn -0.632300 -0.132600 0.763300
usemtl WHITE_BONE
s 1
f 1/1/1 2/2/2 3/3/3
f 4/4/4 2/2/2 1/1/1
f 4/4/4 1/1/1 5/5/5
f 6/6/6 3/7/3 2/8/2
f 6/9/6 2/10/2 7/11/7
f 6/12/6 7/13/7 8/14/8
f 8/14/8 9/15/9 6/12/6
f 10/16/10 6/12/6 9/15/9
f 11/17/11 10/18/10 9/19/9
f 12/20/12 10/18/10 11/17/11
f 13/21/13 12/20/12 11/17/11
f 13/21/13 14/22/14 12/20/12
f 15/23/15 14/22/14 13/21/13
f 13/24/13 16/25/16 15/26/15
f 16/25/16 5/27/5 15/26/15
f 16/25/16 4/28/4 5/27/5
f 5/29/17 3/30/18 1/31/18
f 6/32/19 3/30/18 5/29/17
f 10/33/19 6/32/19 5/29/17
f 15/34/19 10/33/20 5/29/19
f 14/35/18 10/33/20 15/34/19
f 12/36/18 10/33/18 14/35/21
f 17/37/22 18/38/23 16/25/16
f 13/24/13 17/37/22 16/25/16
f 11/17/11 17/39/22 13/21/13
f 19/40/24 17/39/22 11/17/11
f 20/41/25 19/40/24 11/17/11
f 9/19/9 20/41/25 11/17/11
f 9/15/9 8/14/8 20/42/25
f 21/43/26 20/42/25 8/14/8
f 8/14/8 7/13/7 21/43/26
f 7/11/7 2/10/2 21/44/26
f 22/45/27 21/43/26 2/46/2
f 23/47/28 22/48/27 2/2/2
f 24/49/29 23/47/28 2/2/2
f 4/4/4 24/49/29 2/2/2
f 18/38/23 24/50/29 4/28/4
f 16/25/30 18/38/30 4/28/4
f 25/51/31 26/52/32 18/38/23
f 25/51/31 18/38/23 17/37/22
f 27/53/33 25/54/31 17/39/22
f 19/40/24 27/53/33 17/39/22
f 28/55/34 27/53/33 19/40/24
f 28/55/34 19/40/24 20/41/25
f 28/56/34 20/42/25 21/43/26
f 21/43/26 29/57/35 28/56/34
f 21/43/26 22/45/27 29/57/35
f 30/58/36 29/57/35 22/45/27
f 22/48/27 23/47/28 30/59/36
f 31/60/37 30/59/36 23/47/28
f 31/60/37 23/47/28 24/49/29
f 26/52/32 24/50/29 18/38/23
f 24/49/29 26/61/32 31/60/37
f 29/57/35 32/62/38 33/63/39
f 30/58/36 32/62/38 29/57/35
f 29/57/35 33/63/39 28/56/34
f 28/55/34 33/64/39 34/65/40
f 28/55/34 34/65/40 27/53/41
f 30/58/36 35/66/42 32/62/38
f 31/60/37 35/67/42 30/59/36
f 31/60/37 36/68/43 35/67/42
f 31/60/37 26/61/32 36/68/43
f 25/51/31 36/69/43 26/52/32
f 37/70/44 36/69/43 25/51/31
f 38/71/45 37/70/44 25/51/31
f 36/72/43 37/73/44 35/74/42
f 37/73/44 32/75/38 35/74/42
f 39/76/46 40/77/47 41/78/48
f 42/79/49 40/80/50 43/81/51
f 44/82/52 43/83/51 40/84/50
f 44/85/53 40/77/54 41/78/54
f 41/86/48 40/80/55 45/87/56
f 40/80/55 39/88/57 45/87/56
f 40/80/58 42/79/49 39/88/58
f 28/89/59 43/83/60 44/82/61
f 27/53/62 28/55/62 44/90/61
f 28/91/63 42/92/49 43/93/51
f 28/56/64 33/63/64 42/94/65
f 33/63/39 39/95/57 42/94/65
f 33/63/39 46/96/66 39/95/57
f 41/97/48 45/98/56 44/99/61
f 44/99/61 45/98/56 34/100/67
f 33/101/68 34/102/68 46/103/66
f 46/103/66 34/102/67 45/104/56
f 46/105/66 45/87/56 39/88/57
f 27/53/69 44/90/61 25/54/31
f 44/82/61 38/71/45 25/51/31
f 34/106/67 38/107/45 44/108/61
f 33/101/70 38/109/45 34/102/67
f 32/75/38 37/73/44 33/101/39
f 33/110/71 37/111/72 25/112/72
f 28/91/73 43/93/73 27/113/41
f 27/53/74 43/114/51 25/54/74
f 25/51/31 43/83/75 44/82/75
f 33/101/70 37/73/44 38/109/45
f 47/115/76 48/116/77 49/117/78 50/118/79
f 48/116/77 51/119/80 52/120/81 49/117/82
f 51/119/83 53/121/84 54/122/85 52/120/86
f 53/121/84 55/123/87 56/124/88 54/122/89
f 55/125/90 57/126/91 56/127/92
f 55/123/93 56/124/94 53/121/84
f 53/121/84 56/124/94 54/122/95
f 53/121/94 54/122/94 51/119/83
f 51/119/83 54/122/94 52/120/94
f 51/119/94 52/120/94 48/116/77
f 48/116/77 52/120/94 49/117/94
f 48/116/95 49/117/96 47/115/76
f 47/115/76 49/117/96 50/118/93
f 47/115/97 50/118/97 58/128/98
f 54/129/99 59/130/100 60/131/101
f 56/132/92 59/130/100 54/129/99
f 56/132/92 61/133/102 59/130/100
f 57/126/91 61/134/102 56/127/92
f 57/126/91 62/135/103 61/134/102
f 55/125/90 62/135/103 57/126/91
f 55/125/90 63/136/104 62/135/103
f 53/137/84 63/138/104 55/139/90
f 53/137/84 64/140/105 63/138/104
f 51/141/83 64/140/105 53/137/84
f 51/141/83 65/142/106 64/140/105
f 61/143/102 66/144/107 63/145/104
f 64/146/105 61/147/102 63/148/104
f 59/149/100 61/147/102 64/146/105
f 65/150/106 59/149/100 64/146/105
f 60/151/101 59/149/100 65/150/106
f 67/152/108 68/153/109 69/154/110
f 70/155/111 68/153/109 67/152/108
f 71/156/112 70/155/111 67/152/108
f 72/157/113 52/158/114 60/131/101
f 72/157/113 49/159/78 52/158/114
f 72/157/113 73/160/115 49/159/78
f 73/161/115 50/118/79 49/117/78
f 58/128/98 50/118/79 73/161/115
f 74/162/116 58/128/98 73/161/115
f 75/163/117 58/128/98 74/162/116
f 75/163/117 47/115/118 58/128/98
f 75/163/117 48/116/119 47/115/76
f 76/164/120 48/165/119 75/166/117
f 76/164/120 51/141/83 48/165/119
f 76/164/120 65/142/106 51/141/83
f 69/167/110 65/142/106 76/164/120
f 77/168/121 69/167/110 76/164/120
f 67/152/108 69/154/110 77/169/121
f 78/170/122 71/156/112 67/152/108
f 78/170/122 67/152/108 77/169/121
f 78/170/122 70/155/111 71/156/112
f 78/170/122 68/153/109 70/155/111
f 72/157/113 60/131/101 68/171/109
f 72/172/113 68/173/109 78/174/122
f 52/158/114 54/129/99 60/131/101
f 76/164/120 79/175/123 77/168/121
f 77/168/121 79/175/123 80/176/124
f 78/170/122 80/177/124 81/178/125
f 75/166/117 82/179/126 79/175/123
f 75/166/117 79/175/123 76/164/120
f 74/162/116 82/180/126 75/163/117
f 74/162/116 73/161/115 82/180/126
f 73/161/115 83/181/127 82/180/126
f 81/178/125 84/182/128 78/170/122
f 84/183/128 72/172/113 78/174/122
f 77/169/121 80/177/124 78/170/122
f 85/184/129 72/157/113 84/185/128
f 83/181/127 73/161/115 86/186/130
f 73/160/115 85/184/129 86/187/130
f 73/160/115 72/157/113 85/184/129
f 86/187/130 85/184/129 87/188/131
f 88/189/132 83/181/127 86/186/130
f 88/189/132 89/190/133 83/181/127
f 90/191/134 83/181/134 89/190/134
f 83/181/127 90/191/135 82/180/126
f 91/192/136 82/179/126 90/193/135
f 79/175/123 82/179/126 91/192/136
f 92/194/137 79/175/123 91/192/136
f 85/184/129 93/195/138 87/188/131
f 85/184/129 84/185/128 93/195/138
f 84/182/128 94/196/139 93/197/138
f 84/182/128 81/178/125 94/196/139
f 81/178/125 92/198/137 94/196/139
f 92/198/137 81/178/125 80/177/124
f 80/176/124 79/175/123 92/194/137
f 95/199/140 90/191/135 96/200/141
f 97/201/142 90/193/135 95/202/140
f 97/201/142 91/192/136 90/193/135
f 97/201/142 98/203/143 91/192/136
f 96/200/141 90/191/135 89/190/133
f 99/204/144 96/200/141 89/190/133
f 99/204/144 89/190/133 88/189/132
f 100/205/145 99/206/144 88/207/132
f 100/205/145 88/207/132 87/188/131
f 87/188/131 93/195/138 100/205/145
f 101/208/146 100/205/145 93/195/138
f 102/209/147 101/210/146 93/197/138
f 94/196/139 102/209/147 93/197/138
f 94/196/139 92/198/137 102/209/147
f 102/209/147 92/198/137 98/211/143
f 92/194/137 91/192/136 98/203/143
f 103/212/148 104/213/149 101/214/146
f 105/215/150 103/212/148 101/214/146
f 104/216/149 100/217/145 101/218/146
f 105/215/150 101/214/146 102/219/147
f 105/215/150 102/219/147 106/220/151
f 106/220/151 102/219/147 98/221/143
f 107/222/152 106/220/151 98/221/143
f 98/221/143 97/223/142 107/222/152
f 107/224/152 97/201/142 95/202/140
f 108/225/153 107/226/152 95/199/140
f 95/199/140 96/200/141 108/225/153
f 96/200/141 109/227/154 108/225/153
f 110/228/155 109/227/154 96/200/141
f 96/200/141 99/204/144 110/228/155
f 87/188/131 88/207/132 86/187/130
f 110/229/155 99/230/144 100/217/145
f 110/229/155 100/217/145 104/216/149
f 104/213/149 103/212/148 110/231/155
f 110/231/155 103/212/148 105/215/150
f 110/231/155 105/215/150 109/232/154
f 109/232/154 105/215/150 106/220/151
f 109/232/154 106/220/151 108/233/153
f 108/233/153 106/220/151 107/222/152
